<?xml version="1.0" encoding="utf-8"?>
<!-- Generator: Adobe Illustrator 26.3.1, SVG Export Plug-In . SVG Version: 6.00 Build 0)  -->
<svg version="1.1" id="Layer_1" xmlns="http://www.w3.org/2000/svg" xmlns:xlink="http://www.w3.org/1999/xlink" x="0px" y="0px"
	 viewBox="0 0 857 585" style="enable-background:new 0 0 857 585;" xml:space="preserve">
<style type="text/css">
	.st0{fill-rule:evenodd;clip-rule:evenodd;fill:#D7D7D7;}
</style>
<path class="st0" d="M429.1,293.3c-0.8-4.3-1.9-8.5-2.5-12.8c-0.1-0.9-0.3-1.9-0.4-2.8c0-0.1,0-0.1-0.1-0.2
	c-1.2-8.2-2.2-16.4-3.3-24.6c-0.6-5-0.6-10,0.1-15c1.6-12.7,5-24.9,11.4-36.1c3.2-5.7,4.9-12.2,4.9-18.8c0-2.4,0.1-4.8,0-7.2
	c-0.4-10.4-0.9-20.9-1.4-31.4c-0.1-3.1-0.2-6.3-0.4-9.4c0-0.6-0.1-1.2-0.3-1.7c0,0,0-0.1,0-0.1c0.3-0.1,0.7-0.1,1-0.1
	c0.2,0.8,0.4,1.6,0.6,2.4c0.5,2.4,1,4.9,1.5,7.4c0.9,4.3,1.8,8.6,3,12.8c2.3,8.5,5.1,16.8,7.7,25.2c2.9,9.4,5.5,18.9,6.4,28.9
	c0.9,9-1.2,18.1-6.1,25.8c-1.5,2.4-3.1,4.7-4.7,7.1c-3.8,5.8-6.9,11.9-8.2,18.8c-1,5.4-2.8,10.6-5.1,15.5c-0.3,0.7-0.6,1.5-0.9,2.2
	c-1.8,4.3-2.6,9-2.5,13.7c0,0.5-0.1,1-0.2,1.5C429.4,294.1,429.2,293.7,429.1,293.3z M439,144.7c-0.2,0-0.3,0-0.5,0
	c0.1,4,0.3,8,0.5,12c0.4,7,0.8,13.9,1.2,20.9c0.1,1.9,0,3.8,0,5.7c0,6.5-1.7,12.9-4.9,18.6c-6.4,11.4-9.9,23.7-11.5,36.6
	c-0.6,5.2-0.5,10.5,0.2,15.6c1,6.6,1.7,13.3,2.6,19.9c0.3,2.5,0.7,5.1,1.2,8.1c0.2-0.3,0.4-0.6,0.5-1c0.7-5.6,1.6-11.2,1.4-17
	c-0.4-7.3,0.3-14.6,1.9-21.7c1-4.1,2.5-8.1,4.4-11.8c2.2-4.5,4.3-9,6.8-13.4c4.4-7.5,5.8-15.6,5.2-24.1c-0.6-6.7-1.7-13.3-3.3-19.7
	c-2.2-9.1-4.4-18.2-5.4-27.6C439.1,145.4,439,145.1,439,144.7z M429.6,284.8c0,0,0-0.1,0-0.1c0.9-2.6,1.6-5.3,2.7-7.7
	c2.4-5.2,4.1-10.6,5.2-16.2c1.2-6.6,4.1-12.3,7.7-17.8c1.7-2.6,3.4-5.1,5-7.7c4.7-7.4,6.9-16.2,6.1-24.9c-0.8-8.5-2.5-16.9-5.1-25
	c-2.5-8.2-5.1-16.2-7.6-24.3c-0.8-2.6-1.5-5.3-2.2-7.9c-0.2,0-0.3,0.1-0.5,0.1c0.5,2.2,0.8,4.4,1.3,6.6c1.6,6.8,3.2,13.6,4.6,20.4
	c1.4,6,2.1,12.2,2,18.4c-0.2,6.4-1.9,12.7-5,18.3c-2.6,4.7-4.9,9.5-7.3,14.3c-4.1,8.4-6.2,17.7-6,27c0.2,7.8-0.3,15.7-1.5,23.5
	c-0.1,0.9-0.2,1.7-0.2,2.6c0,0.4,0,0.8,0.2,1.2c0,0.1,0,0.1,0.1,0.2C429.4,285.4,429.5,285.1,429.6,284.8L429.6,284.8z M306.7,192
	c-2.4-0.7-4.9-1.2-7.5-1.4c-4.1-0.2-8.1-0.9-12-2c-0.3-0.1-0.5-0.1-0.7-0.2c-11-3-22.1-5.6-32.8-9.5c-5.7-2.1-11.8-3.4-17.9-3.6
	c-7.2-0.3-14.4-1-21.5-2.2c-10.3-1.6-20.1-4.6-28.9-10.4c-2.5-1.7-5-3.4-7.6-5.1c-5.7-3.7-11.7-6.5-18.6-7.1
	c-4.2-0.4-8.5-0.7-12.7-1.1c-1.8-0.1-3.7-0.3-5.5-0.5c-0.3-0.1-0.7-0.2-1-0.3c0-0.2,0-0.3,0.1-0.4c0.8,0,1.6,0,2.3,0
	c3.1,0.1,6.3,0.6,9.4,0.4c4.3-0.3,8.6-0.6,12.9-1c6.7-0.5,13.3-1,20-1.7c10.3-1.2,20.7-1,30.9,0.6c8.3,1.4,16.6,3.1,24.9,4.5
	c11,2,21.5,6.2,30.8,12.4c6.4,4.1,11.6,9.6,17.4,14.5c3.4,2.9,6.9,5.8,10.5,8.5c0.8,0.5,1.5,1,2.4,1.5c1.5,0.8,3.1,1.6,4.6,2.4
	c0.8,0.4,1.5,1,2.2,1.5c-0.1,0.1-0.1,0.3-0.2,0.4C307.7,192.2,307.2,192.1,306.7,192z M184.3,161.1c8.1,5.7,17.2,8.9,26.9,10.7
	c8,1.5,16,2.4,24.1,2.6c6.4,0.2,12.7,1.5,18.7,3.7c5.3,1.9,10.7,3.3,16.1,5c2.4,0.7,4.8,1.3,7.2,2c5.3,1.6,10.6,3,16,3.9
	c0.4,0.1,0.8,0.1,1.1,0.2c0.9,0.2,1.9,0.3,2.8,0.5c0.3,0.1,0.6,0.1,0.9,0.1c0.2,0,0.3,0,0.5,0c-0.3-0.3-0.6-0.5-0.9-0.7
	c-9.8-4.2-18.8-9.7-27.9-15.1c-2.7-1.7-5.6-3.1-8.5-4.6c-5.3-2.6-11-4.2-16.9-4.7c-7.9-0.9-15.8-1.7-23.7-2.4
	c-7.1-0.5-14.1-2.3-20.7-5.2c-10.5-4.7-21.7-5.8-33-6.4c-0.3,0-0.6,0.1-0.8,0.1C173,153.3,178.7,157.2,184.3,161.1z M300.7,188.6
	c-4.2-2.7-8.1-5.7-11.7-9c-6.7-5.8-13-12.3-20.7-16.9c-8.4-5.1-17.7-8.6-27.3-10.5c-8.6-1.5-17-3.2-25.6-4.7
	c-9.7-1.6-19.6-1.8-29.4-0.7c-7.9,0.8-15.8,1.4-23.7,2.1c-0.7,0.1-1.4,0.2-2.1,0.2c0,0.2-0.1,0.4,0,0.5c1.6,0.1,3.3,0.1,4.9,0.2
	c6,0.5,11.9,0.9,17.9,1.5c5.4,0.6,10.8,2,15.8,4.3c8.4,3.6,17.5,5.7,26.6,6.2c5.8,0.3,11.6,1.1,17.4,1.6c9.7,1,19,4.2,27.2,9.4
	c8,4.9,16.1,9.9,24.7,13.8c2.3,1,4.6,2,7,3c0.1-0.1,0.2-0.2,0.3-0.4C301.4,189,301,188.8,300.7,188.6z M430.8,348.4
	c-3.4-0.6-6.9-1.1-10.3-1.5c-7-0.8-14-0.9-21-0.5c-2.9,0.2-5.8,0.1-8.7-0.1c-1.2-0.1-2.4-0.2-3.6-0.3c-0.9-0.1-1.7-0.2-2.5-0.4
	c-0.2-0.4-0.5-0.8-0.9-1.1c0.8,0.2,1.7,0.3,2.5,0.4c1.3,0.2,2.6,0.4,3.9,0.4c5.6,0.2,11.2,0.2,16.8,0c6.1-0.2,12.2,0.3,18.2,1.4
	c2.3,0.4,4.6,0.8,6.9,1.3c0.5,0.1,0.9,0.3,1.4,0.5C432.7,348.6,431.7,348.6,430.8,348.4z M374.4,342.3c-0.2-0.5-0.4-0.9-0.7-1.4
	c0.4,0.2,0.8,0.4,1.2,0.6c0.2,0.5,0.4,0.9,0.6,1.4C375.2,342.7,374.8,342.5,374.4,342.3z M446.3,351.7c-0.7-0.4-1.4-0.7-2.1-1.2
	c-0.7-0.5-1.5-1-2.3-1.5c0,0-0.1,0-0.1,0c-5.7-3.4-11.9-5.8-18.4-7.1c-3.1-0.8-6.1-2-8.9-3.4c-7.8-3.8-15.8-5.9-24.7-4.9
	c-6,0.9-12.1-0.8-16.8-4.5c-0.3-0.3-0.7-0.5-1-0.8c-1.8-1.5-3.6-3-5.4-4.4c-0.1-0.1-0.1-0.1-0.2-0.2l-0.8-0.7l-0.1-0.1
	c-0.3-0.3-0.6-0.5-1-0.8c-0.1-0.1-0.3-0.2-0.4-0.3c-2.9-2.3-6.2-3.8-9.8-4.5c-5.2-1-10.4-1.1-15.6-0.3c-6.7,1-13.4,2-20.1,3
	c-0.3,0.1-0.6,0.2-0.9,0.3c0.5,0.3,1.1,0.5,1.7,0.5c4.9,0.3,9.8,0.5,14.6,1c4,0.3,8,0.9,11.9,1.8c4.8,1.1,9.2,3.3,13,6.4
	c2.5,2,4.7,4.3,7.3,6.2c0.6,0.5,1.2,0.9,1.8,1.3c0.6,0.4,1.1,0.8,1.7,1.1c0.1,0.4,0.1,0.8,0.1,1.3c-0.6-0.3-1.1-0.7-1.6-1.1
	c-2.1-1.4-4.1-3-5.9-4.8c-1.9-1.8-4-3.4-6.1-4.9c-5.6-4-12.1-5.7-18.9-6.1c-4-0.3-8-0.5-12.1-0.7c-6.1-0.4-12.2-0.6-18.3-0.9
	c-3,0-6.1-0.6-8.9-1.7c0.9-0.1,1.4-0.1,2-0.1c0.4,0,0.8,0,1.2,0c3.9-0.1,7.8-0.6,11.6-1.5c4-1,8-2.1,12-3.3c7.3-2.4,14.9-4,22.6-4.9
	c6.7-0.8,13.4-0.2,19.9,1.6c5,1.6,9.8,3.8,14.2,6.7c4.1,2.6,8.7,4.1,13.5,4.6c0.9,0.1,1.9,0.2,2.8,0.3c4.2,0.4,8.3,1.5,12.2,3.1
	c6,2.4,11.7,5.6,17,9.4c3.1,2.3,6.2,4.7,9.3,7.1c1.3,1,2.5,2,3.8,3c2.4,1.9,4.7,4.1,7.1,6.2C446.7,351.7,446.5,351.7,446.3,351.7
	L446.3,351.7z M434.9,342.6c-7.1-5.5-14.4-10.8-22.7-14.5c-4.8-2.3-10-3.7-15.3-4.3c-0.4-0.1-0.9-0.1-1.3-0.2
	c-5.6-0.4-11-2.2-15.7-5.3c-3.5-2.3-7.3-4.2-11.3-5.6c-6.5-2.1-13.3-2.9-20-2.3c-6.8,0.6-13.5,1.9-20.1,3.8
	c-5.6,1.6-11.2,3.1-16.8,4.6c-0.3,0.1-0.6,0.3-0.7,0.6c1.3-0.1,2.7,0,4-0.2c7.1-1,14.1-2,21.2-3.1c5.2-0.9,10.5-1,15.7-0.5
	c4.3,0.5,8.3,2,11.8,4.4c0.1,0,0.2,0.1,0.3,0.2c0.4,0.3,0.7,0.5,1.1,0.8c1,0.7,1.9,1.4,2.8,2.2c0.5,0.4,0.9,0.8,1.5,1.2
	c1.6,1.4,3.3,2.8,5,4c4.6,3.3,9.8,4.1,15.3,4c1.9-0.1,3.8-0.3,5.7-0.4c6.6-0.2,12.7,1.8,18.5,4.7c4.2,2.1,8.6,3.7,13.1,4.8
	c3.8,0.9,7.5,2.3,11.4,3.6C437,344.3,436,343.4,434.9,342.6z M371.2,340.7c-0.1-0.5-0.3-1-0.5-1.5c0.4,0.3,0.8,0.5,1.2,0.7
	c0.2,0.5,0.3,0.9,0.5,1.4C372,341.2,371.6,340.9,371.2,340.7z M378,343.8c-0.3-0.5-0.6-0.9-0.9-1.3c0.5,0.2,1,0.4,1.5,0.6
	c0.3,0.4,0.5,0.8,0.8,1.3C378.9,344.1,378.4,344,378,343.8z M385.4,241.3c-1.8-2.9-3.2-6.1-4.2-9.4c-2.2-6.8-3-13.9-2.4-21.1
	c0-3.2,0.4-6.4,0.2-9.6c-0.3-5.3-1.1-10.5-1.6-15.8c-0.7-6.1-1-12.3,0.2-18.3c1-5.2,2.4-10.3,3.9-15.4c2.1-7,3.2-14.2,3.3-21.5
	c-0.1-10.3-2.6-20.1-6.3-29.7c-0.9-2.3-1.9-4.5-2.8-6.8c-0.1,0-0.3,0.1-0.4,0.1c0.1,0.6,0.2,1.3,0.4,2c1,4.6,2.1,9.2,3.1,13.9
	c2.2,11.2,1.6,22.7-1.7,33.6c-1.6,5.6-3.5,11.1-5.4,16.6c-1.3,3.9-2.1,7.9-2.6,11.9c-0.4,3.7-1,7.3-1.3,11c-0.3,2.7-0.4,5.4-0.3,8
	c0.5,6.7,1.7,13.3,3.6,19.8l0,0c0.3,0.9,0.6,1.9,1,2.7c0.1,0.4,0.2,0.9,0.3,1.3c-0.8-1.1-1.5-2.4-1.9-3.7c-0.5-1.8-1.1-3.5-1.5-5.3
	c-0.2-0.6-0.3-1.2-0.4-1.8c-1.8-8.3-3-16.7-1.1-25.3c0.4-1.9,0.3-3.9,0.6-5.9c0.4-3.5,1.1-6.9,1.9-10.3c1.5-5.2,3.2-10.4,5-15.6
	c4.7-13.1,5.5-27.3,2.3-40.8c-0.4-1.5-0.7-3.1-1.1-4.6c-1.5-6.1-3-12.2-4.5-18.2c-0.2-0.8-0.3-1.6-0.4-2.4l0.6-0.2
	c0.4,1.1,0.8,2.2,1.3,3.3c1.5,3,3,6,4.5,8.9c2.2,4.3,4.4,8.5,6.5,12.9c3.2,6.6,6.6,13.1,9.3,19.9c3.7,8.9,4.1,19,1,28.1
	c-1.1,3.4-2.3,6.8-3.3,10.2c-1,3.1-1.7,6.3-2.5,9.5c-0.7,2.8-1.2,5.6-2.2,8.2c-1.9,4.8-2.7,10-2.5,15.2c0.1,1.9,0,3.8,0.1,5.7
	c0.1,4.6-0.2,9.2-0.9,13.7c-0.4,2.4-0.6,4.9-0.5,7.4c0,3.8,0.5,7.6,1.4,11.3c0,0,0,0,0,0.1c0.5,1.9,1.2,3.8,2.1,5.6
	c0.2,0.5,0.3,0.9,0.5,1.4C386,242,385.6,241.7,385.4,241.3L385.4,241.3z M381.7,226.4c0.2-3.5,0.3-7,0.5-10.4
	c0.2-4.2,0.6-8.4,0.8-12.6c0.1-1.4,0-2.9-0.1-4.3c-0.4-6.2,0.6-12.4,2.8-18.2c0.9-2.4,1.2-5,1.8-7.6c0.8-2.9,1.4-5.9,2.3-8.8
	c1.1-3.5,2.3-7.1,3.5-10.6c3-8.7,2.5-17.3-0.3-25.9c-3.5-10.3-9-19.6-14.3-29.1c0,0.3,0.1,0.6,0.2,0.8c0.1,0.3,0.2,0.5,0.3,0.8
	c3.2,8,5.3,16.3,6.2,24.9c0.8,9-0.6,17.7-3,26.3c-1.5,5.3-2.9,10.6-4,16.1c-1.1,5.5-0.8,11.1-0.2,16.7c0.5,5.1,1.3,10.1,1.6,15.2
	c0.2,4.1,0.1,8.1-0.3,12.2c-0.4,5.2,0.1,10.5,1.5,15.5c0.1,0.2,0.2,0.4,0.3,0.6c0.2,0,0.3,0,0.5,0
	C381.7,227.4,381.7,226.9,381.7,226.4L381.7,226.4z M403.6,279.5c-3.5-0.8-7-2-10.5-2.1c-3.6-0.1-7.2,0.1-10.8,0.4
	c-7.7,0.5-15.2,2.6-22,6.2c-8.5,4.6-17.6,5-27,3c-3.5-0.8-6.9-1.8-10.4-2.6c-8.4-2.1-16.8-3.2-25.3-2c-3.1,0.4-6.3,0.9-9.4,1.4
	c-4.5,0.7-9,1.4-13.5,2.4c-1.6,0.3-3.1,0.6-4.6,1c-2.6,0.6-5.3,1-7.9,1.3c-1.7,0.2-3.5,0.4-5.3,0.5c0.5-0.3,0.5-0.4,0.6-0.5
	c2.7-0.6,5.4-1.3,8-2.1c9.3-2.6,18.2-6.7,26.3-12.1c7.3-4.9,15.3-8.4,23.9-10.4c9.4-2.4,18.7-1.6,27.8,1.1
	c6.2,1.9,12.8,2.4,19.2,1.3c6-1.1,12.2-1.3,18.2-0.7c4.8,0.6,9.3,2.8,12.6,6.4c1.9,2,4.1,3.7,6.6,4.9c0.6,0.3,1.3,0.6,2,0.9
	c1.6,0.7,3.1,1.4,4.6,2.2c-0.1,0.2-0.1,0.3-0.2,0.5C405.5,280.1,404.5,279.7,403.6,279.5L403.6,279.5z M282.7,283.7
	c0.2,0,0.4-0.1,0.6-0.1c0,0,0,0,0.1,0c0.5-0.1,1-0.1,1.4-0.2c3.7-0.5,7.5-1.1,11.2-1.7c9.3-1.5,18.4-0.4,27.5,1.8
	c3.2,0.8,6.4,1.7,9.7,2.5c9.2,2.1,18.3,1.6,26.8-2.9c7.6-3.9,16-6.1,24.5-6.4c0.7,0,1.4-0.3,2-0.7c-0.3-0.1-0.6-0.3-0.9-0.3
	c-9-1.8-18.1-2.4-27.1-0.4c-1.3,0.3-2.7,0.5-4,0.9c-6.3,1.5-12.9,1.5-19.3,0c-1.1-0.2-2.3-0.4-3.4-0.7c-12.1-2.8-23.8-1.7-35.4,2.6
	c-4.3,1.5-8.4,3.2-12.6,4.9c-0.4,0.1-0.8,0.3-1.1,0.5C282.7,283.4,282.7,283.5,282.7,283.7L282.7,283.7z M397.4,276.4
	c-2.8-2.3-5.6-4.8-8.5-7c-2.5-1.8-5.5-2.8-8.5-3c-5.5-0.6-11.1,0-16.6,0.6c-1.3,0.1-2.6,0.3-3.9,0.5c-4.6,0.7-9.4,0.4-13.9-0.9
	c-3.6-1-7.3-1.9-11.1-2.5c-10.2-1.9-19.9,0.2-29.4,4c-5.6,2.3-10.9,5.1-15.9,8.5c-4.9,3.3-10.2,5.9-15.7,7.9
	c-0.3,0.1-0.6,0.3-0.9,0.4c-0.2,0.1-0.4,0.2-0.6,0.3c0,0.2,0.1,0.3,0.1,0.4c1-0.2,2-0.4,2.9-0.7l2.3-0.9c0,0,0,0,0.1,0
	c5.2-1.9,10.2-3.8,15.4-5.7c4.9-2,10-3.5,15.3-4.5c6.9-1.3,14-1.2,20.9,0.1c2.4,0.5,4.9,0.9,7.3,1.5c5,1.1,10.2,1.2,15.2,0.3
	c0.6-0.1,1.3-0.2,1.9-0.4c11.7-3.2,23.5-2.6,35.2,0c2.6,0.6,5.3,1,8,1.5c0.1,0,0.3,0,0.4,0C397.3,276.7,397.3,276.5,397.4,276.4
	L397.4,276.4z M337.1,221.5c-0.4,0-0.9,0.1-1.3,0.1c-3.6,0.3-7.1,0.6-10.7,1c-3.6,0.4-7.3,0.5-10.8,1.1c-7.1,1.3-14.2,2.8-21.2,4.4
	c-9,2-18.1,3.2-27.3,3.6c-5.4,0.2-10.9,0.4-16.4,0.9c-12.3,1-24.5,3.7-36.6,6.1c-3.9,0.8-7.7,2.1-11.6,3.2c-0.7,0.2-1.3,0.6-1.9,0.8
	c0.8,0.2,1.6,0.2,2.4,0c5.8-1.2,11.7-1.7,17.6-1.5c6.8,0.3,13.5,0.8,20.3,1.4c17.2,1.7,34-0.8,50.4-5.7c6.6-1.9,13-4.1,19.5-6.2
	c1.3-0.4,2.6-0.9,3.8-1.3c2-0.7,3.9-1.4,5.9-2c1.1-0.4,2.1-0.8,3.2-1.3c0.1,0.2,0.1,0.3,0.2,0.5c-3.3,1.4-6.5,2.9-9.8,4.1
	c-1.7,0.6-3.3,1.1-5,1.7c-6.7,2.2-13.4,4.3-20.2,6.4c-11.6,3.4-23.6,5.2-35.7,5.4c-6.8-0.1-13.5-0.5-20.2-1.3
	c-11.9-1.3-24-0.7-35.8,1.7c-0.1,0-0.2,0-0.3,0.1c-1.1,0.2-2.3,0.5-3.4,0.7c-0.1-0.2-0.1-0.4-0.2-0.6c2.5-1,4.8-2,7.3-3
	c1.2-0.4,2.4-0.9,3.6-1.3c13.7-4.9,27.2-9.9,39.7-17.3c9.6-5.7,20-7.7,31.1-6.8c0.6,0.1,1.1,0,1.7,0.1c8,0.7,16,0.3,23.9-1.3
	c3.4-0.7,6.9-0.9,10.3-0.4c1.2,0.1,2.3,0.3,3.5,0.6c0.1,0,0.2,0,0.3,0c1.3,0.3,2.6,0.7,3.9,1.2c4.6,1.7,9.4,2.7,14.3,3
	c0.1,0,0.3,0,0.4,0c1.5,0.1,3.1,0.2,4.6,0.4c0.8,0.2,1.6,0.4,2.4,0.7C338.6,221.1,337.9,221.4,337.1,221.5L337.1,221.5z
	 M317.1,217.3c-5.5-2-11.4-2.5-17.2-1.4c-8.1,1.6-16.3,2.1-24.6,1.4c-1.7-0.1-3.3-0.2-5-0.3c-9.9-0.5-19,2.1-27.5,7
	c-8.6,5.1-17.8,9.3-27.2,12.6c-0.3,0.1-0.6,0.3-0.9,0.4c0,0.1,0,0.3,0,0.4c1.7-0.3,3.4-0.7,5.1-0.9c9.5-1.6,18.9-3.4,28.5-4.6
	c5.6-0.7,11.3-0.8,17-1.1c9.4-0.4,18.7-1.6,27.9-3.7c6.9-1.6,13.9-3,20.9-4.3c3.8-0.6,7.6-1,11.5-1.2c2.7-0.3,5.4-0.3,8.1-0.5
	c0.4,0,0.9-0.2,1.2-0.5c-0.7-0.1-1.4-0.2-2.1-0.3C327.3,220.2,322.1,219.2,317.1,217.3L317.1,217.3z M332.2,191.7
	c-0.7-0.8-1.3-1.6-1.9-2.4c-0.7-0.8-1.5-1.7-2.1-2.6c-2.4-2.8-4.3-6-5.8-9.4c-1.4-3.6-2.6-7.2-3.7-10.9c-3.3-10.3-5.3-21-5.9-31.9
	c-0.2-3.4-0.7-6.8-1.4-10.1c-1.7-9.3-6.1-17.9-12.7-24.7c-2.4-2.5-4.9-4.9-7.5-7.3c-6.3-5.9-12.7-11.7-19.4-17
	c3.7,3.9,7.4,7.8,11.1,11.7c3.5,3.8,6.6,8.1,9.2,12.6c4.4,7.6,6.8,15.8,8.4,24.4c2.4,13.4,5.8,26.6,10.2,39.4
	c2,5.8,5.1,11.1,9.2,15.7c1.1,1.3,2.4,2.6,3.6,3.9c1.1,1.2,2.3,2.4,3.5,3.6c-0.3-0.1-0.4-0.1-0.5-0.2c-3.1-2.2-5.8-4.8-8.1-7.8
	c-0.2-0.3-0.4-0.5-0.6-0.8c-3-4-5.8-8.1-7.3-12.9c-2.1-6-4.1-12.1-5.7-18.3c-2.3-9.3-4.2-18.7-6.2-28.1c-2.3-10.7-7.2-20.7-14.3-29
	c-2.1-2.5-4.4-4.8-6.8-7.2c-2.2-2.2-4.5-4.5-6.7-6.7c-1.4-1.4-2.8-2.9-4.1-4.3c1,0.3,1.9,0.8,2.7,1.3c0.6,0.4,1.2,0.8,1.8,1.2
	c9.1,6,18.1,11.9,27.1,17.9c6,4,11.8,8,16.6,13.4c4,4.3,6.5,9.7,7.4,15.5c0.8,6.4,1,12.8,0.5,19.2c-0.4,4.8-0.1,9.6,1,14.3
	c0.5,2.3,0.8,4.7,0.9,7.1c0.2,4.1,0.3,8.3,1.8,12.2c2.2,5.6,3.9,11.5,6.5,16.9l0,0c0.6,1.2,1.2,2.3,1.9,3.5
	C333.6,193.2,332.9,192.5,332.2,191.7L332.2,191.7z M330.3,187.1c-1.2-3.3-2.3-6.6-3.7-9.8c-2-5.1-3.1-10.5-3.1-16
	c0-2.4-0.3-4.8-0.9-7.1c-1.1-4.8-1.4-9.7-1-14.5c0.4-6.2,0.3-12.5-0.5-18.7c-1-7.6-4.8-13.5-10.4-18.5c-8.2-7.3-17.6-12.9-26.5-19
	c-0.9-0.7-1.9-1.3-2.9-1.9c-0.1,0.1-0.2,0.2-0.2,0.3c0.6,0.7,1.3,1.4,2,2.1c5.7,4.8,11.2,9.9,16.4,15.4c6.6,6.9,11,15.5,12.8,24.8
	c0.7,3.3,1.2,6.7,1.4,10.2c0.7,10.9,2.6,21.7,5.9,32.1c1.4,4.7,2.6,9.4,5.1,13.6c1.7,2.8,3.6,5.5,5.7,8
	C330.4,187.7,330.3,187.4,330.3,187.1L330.3,187.1z M453.7,348.3c-0.1,0-0.2,0-0.3,0c0-0.7-0.1-1.4-0.1-2.2
	c-0.1-3.6-0.3-7.2-0.2-10.8c0-0.3,0-0.5,0-0.8c0.4-6.6,1.3-13.2,2.9-19.6c1.8-7.5,5.2-14.6,9.9-20.7c2.4-3.2,5.3-6.2,7.8-9.3
	c5.1-6.3,9.5-13.2,13.1-20.5c3.7-7.7,7.2-15.5,8.4-24c0.2-1.1,0.3-2.2,0.4-3.4c0-0.3,0.1-0.7,0.2-1.1l0.6,0c0,1.1-0.1,2.1-0.1,3.2
	c0,0,0,0,0,0.1c0,0,0,0,0,0c0,0.5,0,0.9,0,1.3c0,0.8-0.1,1.6-0.1,2.4c-0.2,6.5-0.2,12.9-0.5,19.4c-0.4,11.9-2.8,23.4-8.4,34
	c-0.7,1.4-1.6,2.8-2.6,4c-2.8,3.2-5.6,6.3-8.6,9.3c-5.3,5-10.1,10.4-14.5,16.2c-3.8,5.2-6.6,10.8-6.9,17.3c0,0.3,0,0.6,0,0.9
	c0,1.4,0.1,2.7,0.1,4.1C454.4,348.3,454.1,348.3,453.7,348.3L453.7,348.3z M494.1,248.9c-0.3,0.8-0.6,1.6-0.8,2.4
	c-3.5,10.6-8.7,20.7-15.3,29.7c-3.3,4.4-7,8.5-10.4,12.9c-4.7,5.7-8.2,12.4-10.1,19.6c-1.4,5.8-2.9,11.6-3.1,17.6
	c-0.1,0.7-0.2,1.4-0.4,2.1c0.2,0.1,0.5,0.1,0.7,0.1c0.1-0.4,0.3-0.7,0.4-1.1c2.4-6.1,4.7-12.2,7.2-18.3c1.8-3.9,4.2-7.5,7.1-10.7
	c3.8-4.6,7.9-8.9,11.6-13.5c3.3-4,5.8-8.6,7.5-13.4c2.9-8.5,4.9-17.4,5.9-26.3C494.4,249.5,494.3,249.2,494.1,248.9L494.1,248.9z
	 M460,326.8c3.3-4.9,7.1-9.4,11.3-13.5c4.1-4.2,8.3-8.3,12.1-12.8c1.8-2.2,3.2-4.7,4.3-7.3c5.5-11.7,7.3-24.2,7.1-37
	c0-0.2-0.1-0.4-0.2-0.6c-1.2,5.2-2.3,10.3-3.6,15.3c-1.5,6.5-4.4,12.6-8.5,18c-2,2.6-4.2,5-6.3,7.5c-3.9,4.6-8,9-11.2,14.2
	c-1,1.5-1.8,3.1-2.6,4.8c-2,4.7-3.8,9.4-5.7,14.1c-0.4,1.1-0.6,2.2-0.6,3.3C457.5,330.8,458.7,328.7,460,326.8L460,326.8z
	 M378.9,352.2c-0.3-0.7-0.6-1.3-0.9-2c0.4,0.1,0.7,0.1,1.1,0.1c0.3,0.6,0.6,1.3,0.9,2C379.6,352.3,379.2,352.3,378.9,352.2
	L378.9,352.2z M529.9,461.6c-0.6-0.4-1.2-0.8-1.8-1.3c-1.5-1.4-2.9-2.9-4.3-4.3c-4.2-4.1-8.6-7.9-12.5-12.2
	c-7-7.6-13.9-15.4-20.6-23.4c-7-8.4-13.3-17.3-18.9-26.7c-5.4-9.3-10.4-18.8-14.9-28.6c-1.7-3.8-4.4-7.2-7.7-9.7
	c-3.9-2.9-8.4-5-13.2-6c-5.9-1.1-11.9-1.2-17.8-0.3c-8.4,1.3-16.8,2.6-25.3,3.4c-0.3,0-0.7,0.1-1.1,0.1c-0.7,0.1-1.4,0.1-2,0.1
	c-0.3-0.6-0.7-1.2-1.1-1.7c0.7,0,1.4,0,2.1,0c1.7-0.1,3.4-0.2,5.1-0.4c7.1-0.8,14.2-1.8,21.2-3c1.2-0.2,2.4-0.4,3.7-0.5
	c1.6-0.2,3.2-0.3,4.8-0.3c5.3-0.1,10.5,0.6,15.6,2.2c0.3,0.1,0.7,0.1,1,0.1c0,0,0.1,0,0.1,0c-0.5-0.6-0.9-1.1-1.3-1.5
	c-1.7-1.6-3.2-3.3-4.7-5c-2.7-3-5.1-6.2-7.6-9.5c-4.2-5.9-10-10.5-16.7-13.2c-9.4-3.7-18.6-8-27.8-12.2c-8-3.6-16.5-4-25.1-3.5
	c-8.4,0.6-16.4,3-24.3,5.8c-6.7,2.3-13.5,4.6-20.4,6.6c-3.6,1.1-7.4,1.6-11.1,2.3c-0.7,0.1-1.4,0.2-2.1,0.4c0,0.1,0,0.1,0,0.2
	c0.1,0.1,0.1,0.2,0.1,0.3c1.5,0.1,2.9,0.3,4.3,0.4c5.1,0.4,10.3,0.9,15.5,1.3c1.4,0.1,2.8,0.3,4.2,0.7c6.2,1.4,11.9,4.5,16.4,9
	c5,4.8,10.2,9.3,16.4,12.6c3.5,1.9,7.3,3.4,11.1,4.5c0.5,0.2,1.1,0.4,1.7,0.5c0,0.6,0,1.3,0.1,1.9c-0.6-0.1-1.2-0.3-1.8-0.5
	c-5-1.5-9.9-3.6-14.4-6.2c-5.3-3.1-9.8-7.3-14.2-11.5c-5.2-5-11.2-8.3-18.5-9.1c-2.1-0.3-4.3-0.5-6.5-0.7
	c-5.1-0.6-10.2-1.1-15.2-1.7c-1.7-0.3-3.3-0.7-4.9-1.2c-0.4-0.3-0.8-0.6-1.2-0.9c0.3-0.1,0.6-0.2,0.9-0.3c6.3-0.6,12.5-1.8,18.6-3.6
	c7-2.1,14-4.5,21-6.9c7.7-2.7,15.5-5.1,23.7-5.7c9.9-0.7,19.5,0.1,28.6,4.5c8,3.8,16.1,7.5,24.3,10.7c7.8,3,14.5,8.3,19.3,15.2
	c1.8,2.6,3.9,5.1,5.8,7.6c4.2,5.2,8.9,10,14.2,14.2c0.4,0.3,0.8,0.5,1.2,0.7c-0.1-0.8-0.3-1.6-0.7-2.3c-3.7-7.5-7.3-15-11-22.6
	c-6.5-13.3-13.1-26.5-20.9-39c-0.8-1.5-1.9-2.9-3.2-4.1c-6.4-5.7-14.6-8.8-23.2-8.7c-7.3,0-14.3,1.9-21.1,4.3
	c-5.5,2-10.9,4.1-16.3,6.4c-11,4.8-23.3,6-35.1,3.3c-7.1-1.6-14.2-3.1-21.3-5.1c-7.9-2.2-16.1-2.6-24.2-1.2
	c-0.4,0.1-0.7,0.1-1.1,0.2c-3.8,0.7-7.6,1.5-11.5,2.1c-0.8,0.2-1.7,0.3-2.5,0.5c-2.7,0.4-5.4,0.7-8,1c-0.6,0-1.1-0.1-1.6-0.2
	c0.1-0.2,0.2-0.4,0.4-0.6c0.5-0.2,0.9-0.4,1.4-0.5c14.6-4.5,28.2-12,39.8-22c4.8-4.2,10.4-7.4,16.5-9.3c9-2.9,18.2-3.9,27.5-1.8
	c7.6,1.8,15.5,2.1,23.2,0.9c4-0.5,8-0.8,12-0.9c4.8-0.2,9.6,1.2,13.6,4c3.8,2.7,7.3,5.8,10.5,9.2c2.4,2.7,5,5.3,7.7,7.7
	c2.5,1.8,5.2,3.5,7.9,5c0.9,0.5,1.8,1.1,2.7,1.6c-0.1-0.7-0.4-1.4-0.8-1.9c-7.2-10.8-15.3-20.9-24-30.4
	c-8.2-8.8-17.4-16.5-26.7-24.2c-0.7-0.6-1.5-1.1-2.4-1.5c-6.6-1.8-13.2-2.9-20.1-1.8c-7,1.2-13.9,3.3-20.4,6.2
	c-4.4,1.9-8.6,4.1-12.8,6.6c-12,7.1-25.3,11.8-39.1,13.9c-13.1,1.8-26.3,1.9-39.4,0.1c-11.8-1.6-23.7-2.7-35.6-4
	c-0.5-0.1-1.1-0.2-1.6-0.4c0.7-0.7,1.5-1.2,2.4-1.6c3.9-2,8.1-3.8,11.8-6.1c9.3-5.9,18.3-12.1,27.5-18.2c6.7-4.6,13.8-8.7,21.1-12.3
	c5.5-2.5,11.3-4.5,17.4-4.5c11.9-0.2,23.7,2.6,34.3,8c2.9,1.6,6.2,2.6,9.5,3c4.2,0.4,8.4,1.2,12.4,2.5c3.6,1.1,7.2,2.3,10.9,3.3
	c2.1,0.5,4.3,0.9,6.4,1.2c3.1,0.5,6.3,0.9,9.5,1.4c0.7,0.1,1.4,0.2,2,0.3c-0.3-0.7-0.8-1.3-1.4-1.7c-1.9-1.4-3.9-2.9-5.8-4.3
	c-8.5-6.3-17.5-12-26.9-17.1c-5.7-3.2-11.9-5.5-18.3-6.9c-6.5-1.4-13.1-2.1-19.7-2.2c-2.7,0-5.4-0.2-8.1-0.6
	c-5.2-0.7-10.5-1-15.7-0.9c-4.6,0-9.1,0.1-13.8,0c-7.3,0-14.5-0.7-21.7-2.1c-15.1-3-28.7-9.5-41.6-17.6c-3.8-2.5-7.6-5.2-11.3-7.8
	c-7.8-5.5-16.6-8.6-25.8-10.6c-1.9-0.4-3.8-0.9-5.7-1.4c-0.9-0.1-1.6-0.7-1.8-1.5c0.1-0.1,0.3-0.2,0.4-0.3c0.6,0,1.3-0.1,2-0.1
	c9.7,0,19.4-0.2,28.9-2.1c6.7-1.4,13.3-3.1,20-4.6c7.1-1.6,14.2-3.3,21.3-4.6c8.2-1.5,16.7-0.4,24.3,3.2c10.2,4.6,20.7,8.7,31,13.1
	c2.2,0.9,4.4,2,6.4,3.3c6.4,4.2,11.9,9.7,16.1,16c2.4,3.5,4.7,7,7.9,9.9c5.2,4.7,11.1,8.7,17.4,11.9c9,4.2,17.8,9.1,26.1,14.6
	c0.5,0.3,1.1,0.6,1.6,0.9c-0.5-1.1-1.1-2.2-1.9-3.2c-2.4-3.9-4.7-7.9-7.1-11.8c-0.9-1.6-2.1-3-3.5-4.2c-5.9-4.5-11.5-9.4-16.7-14.6
	c-5.7-5.8-10.4-12.2-12.9-20c-1.2-3.9-2.6-7.9-3.4-11.9c-1.8-8.5-3.4-17-4.9-25.5c-2.6-14.5-8.3-27.3-18.1-38.3
	c-2.4-2.7-4.7-5.4-7.1-8c-1-1-1.7-2.3-2.1-3.7c0.9,0.5,1.4,0.7,1.8,1c4.8,3.1,9.8,5.7,15.1,7.7c2.8,1.1,5.6,2.2,8.3,3.4
	c15,6.6,27.8,16.2,36.7,30.1c8.1,12.6,9.7,25.9,4.9,40.1c-0.4,1.1-0.8,2.2-1.1,3.3c-1.5,4.7-1.9,9.8-1.3,14.7
	c0.6,3.8,1.4,7.6,2.6,11.2c2,6.2,4.2,12.2,6.5,18.3c1,2.4,2.1,4.8,3.5,7c1.5,2.3,3.3,4.5,5,6.6c0.9,1.2,2,2.3,3.2,3.3
	c11.1,8.1,21.7,16.9,31.8,26.2c1.7,1.6,3.4,3.2,5.3,5c-0.1-0.5-0.2-1-0.4-1.4c-2.1-4-4.2-7.9-6.4-11.9c-1.7-3.1-3.5-6.2-5-9.4
	c-3-6.7-5.8-13.5-8.7-20.2c-2.7-6.4-4.2-13.2-4.3-20.1c-0.1-10.5,1.3-20.9,4.1-31c2.5-9.1,4.7-18.1,7.1-27.2
	c2.7-10.2,3-20.8,0.9-31.1c-0.6-3.1-1.4-6.2-2.1-9.4c-0.3-1.6-0.6-3.2-0.8-4.7c0-0.5,0.1-0.9,0.3-1.4l0.5-0.1c0.8,1.5,1.6,3,2.4,4.6
	c3.2,6.9,7.1,13.5,11.7,19.6c3.4,4.6,6.7,9.2,9.7,13.9c6.2,9.7,9.8,20.8,10.4,32.3c0.4,9.2-1.5,17.9-6.8,25.7c-1,1.5-2.1,3-3.1,4.5
	c-2.4,3.1-3.7,7-3.6,10.9c0,3.3-0.3,6.7-0.9,10c-0.8,3.2-1.8,6.3-3,9.3c-1.9,5-3,10.2-3.2,15.5c-0.1,7.3,1.2,14.5,3.8,21.3
	c1.2,3,2.8,5.8,4.9,8.2c4.8,5.9,9.8,11.7,14.3,17.9c8.1,11,15.4,22.6,21.9,34.6c0.3,0.6,0.7,1.2,1.1,1.8c-0.2-4.5-0.8-9-1.7-13.4
	c-1.3-5.9-3.1-11.7-4.9-17.4c-1.7-5.3-3.9-10.5-5.8-15.8c-1.9-5.1-3.1-10.5-3.4-16c-0.5-10.1-0.3-20.2,1.6-30.2
	c0.6-3.2,1.1-6.4,1.5-9.7c1.3-9.6,4.4-18.9,9-27.4c5.4-9.9,8.6-20.9,9.4-32.2c0.4-4.1,0.4-8.2,0.6-12.4c0,0,0-0.1,0-0.1
	c0-0.2,0-0.4,0.1-0.6c0-0.7-0.2-1.6,0.9-2c0.2,0.8,0.5,1.4,0.7,2.1c3.7,12.5,7.6,24.9,12.8,36.9c3.3,7.4,6,15.1,8.1,23
	c3.3,12.5,4.9,25.1,3.5,38c-0.9,8.8-3.8,17.3-8.5,24.8c-3.3,4.9-7.3,9.4-11.8,13.3c-2.8,2.5-5.3,5.4-7.2,8.7c-2,3.5-4.1,7-4.2,11.1
	c0,4.1-0.1,8.3,0.3,12.4c0.5,5.7,1.5,11.4,4,16.7c5.8,12.1,11.8,24.2,17.8,36.2c0.2,0.5,0.5,1,1,1.9c0.2-2.1,0-4.2-0.6-6.2
	c-0.1-0.3-0.1-0.7-0.2-1c-0.1-0.7-0.3-1.4-0.4-2.1c-0.5-2.5-1-5-1.4-7.5c-1-7.1-1.9-14.2-0.3-21.3c1.1-5.4,2.5-10.8,4.2-16.1
	c4.5-13.8,11.5-26,22.2-36c8.4-7.8,14.4-17.9,17.2-29.1c0.4-1.3,0.8-2.6,1.1-3.9c0.3,0,0.5,0,0.8,0c0.2,2.6,0.6,5.1,0.7,7.7
	c0.3,7.6,1,15.2,2.2,22.8c0.5,3.2,1,6.4,1.3,9.7c0.4,4.7,0.8,9.4,0.8,14.1c0.1,5.4-1.4,10.6-4.4,15.1c-3.5,5-7.8,9.4-12.7,13.1
	c-3.5,2.6-7.3,4.8-10.8,7.3c-3,2.2-5.9,4.5-8.7,7c-1.5,1.5-3,3.2-4.2,5c-2.8,3.4-4.6,7.5-5.3,11.8c-0.4,2.7,0.2,5.3,0.3,8
	c0.2,4.2,1.3,8.3,3.3,12.1c1.8,3.8,3.7,7.4,5.5,11.2c6.9,14,15.4,27.1,25.2,39.2c5,6.2,10.2,12.3,15.6,18.2
	c5.1,5.5,10.6,10.7,15.9,15.9c2.8,2.7,5.8,5.1,8.6,7.7c0.7,0.7,1.6,1.3,1.5,2.5c-0.2,0.7-1,1.1-1.7,0.9
	C530.1,461.7,530,461.6,529.9,461.6z M390.6,266.9c-2.1-2-4.3-3.9-6.7-5.5c-3.8-2.8-8.4-4.3-13.1-4.1c-3.9,0.1-7.7,0.4-11.6,0.9
	c-8.2,1.2-16.6,0.8-24.7-1c-10.5-2.2-20.5-0.5-30.3,3.6c-4.4,2-8.5,4.5-12.2,7.7c-9.1,7.6-18.9,14-30.1,18.1
	c-0.3,0.1-0.5,0.3-0.8,0.4c0.9-0.1,1.5-0.1,1.9-0.2c0.8-0.1,1.6-0.3,2.4-0.5c2.5-0.5,5-1,7.5-1.5c0.6-0.2,1.3-0.3,1.9-0.4
	c1-0.2,1.8-0.3,2.8-0.5c0,0,0,0,0.1,0c1.7-0.2,3.4-0.3,5-0.4c0.2,0,0.4,0,0.6,0c0,0,0,0,0.1,0c1.6,0,3.2,0,4.8,0.1
	c3.2,0.2,6.3,0.7,9.4,1.5c7.3,1.9,14.6,3.5,21.9,5.2c2.3,0.5,4.7,0.8,7.1,1.2c7.8,1.1,15.7,0.3,23-2.4c6.4-2.3,12.7-5,19.1-7.3
	c4.4-1.6,9-3,13.5-4.1c0.2,0,0.3-0.1,0.4-0.1c4.6-1.1,9.4-1.4,14.1-0.9c0.1,0,0.3,0,0.4,0c0.7,0.1,1.4,0.2,2,0.3
	c0.4,0.1,0.8,0.1,1.3,0.1l-0.4-0.5C396.9,273.5,393.8,270,390.6,266.9L390.6,266.9z M330.9,219.2c-5.7-1.7-11.3-3.4-17.3-3.8
	c-0.1,0-0.2,0-0.3,0c-1.2-0.1-2.4-0.3-3.5-0.6c-2.1-0.5-4.1-1.4-5.9-2.5c-3-1.7-6.2-3-9.5-3.9c-5.3-1.6-10.7-2.7-16.2-3.5
	c-8-1-16.1,0.3-23.4,3.7c-7.8,3.8-15.3,8.1-22.5,12.9c-8.8,5.7-17.5,11.5-26.3,17.1c-2.1,1.2-4.2,2.3-6.4,3.3
	c-1.3,0.6-2.6,1.2-3.9,1.8c-0.5,0.2-1,0.5-1.5,0.9c0.7,0.1,1.4,0.1,2,0.1c1,0.1,2,0.1,2.9,0.2c10.6,1.2,21.1,2.2,31.7,3.6
	c12.3,1.5,24.8,1.3,37-0.6c13.4-2,26.2-6.7,37.7-13.8c0.9-0.5,1.7-1,2.6-1.5c1.8-1.1,3.6-2,5.5-2.9c6.9-3.3,14.2-5.8,21.7-7.6
	c0.2-0.1,0.4-0.1,0.6-0.2c0.1-0.1,0.2-0.2,0.4-0.2c-1.3-0.9-2.8-1.6-4.3-2C331.6,219.3,331.3,219.2,330.9,219.2L330.9,219.2z
	 M300.8,187.5c-5.7-4.2-10.6-9.3-14.4-15.3c-5.7-8.6-13.9-15.3-23.5-19.1c-9.1-3.6-18.2-7.2-26.9-11.4c-8.7-4.3-18.6-5.5-28-3.5
	c-7.3,1.6-14.5,3.2-21.7,5.1c-7.1,1.9-14.3,3.4-21.6,4.4c-4.7,0.7-9.4,1-14.1,1.1c-1.5,0-2.9,0.1-4.3,0.2c-0.1,0.1-0.2,0.1-0.3,0.2
	c0.2,0.1,0.4,0.1,0.6,0.2c0.2,0.1,0.4,0.1,0.6,0.2c10.7,2.1,20.8,6.6,29.5,13.2c8.9,6.5,18.6,12,28.8,16.2c14.4,6.1,29.4,8.3,44.8,8
	c3.7-0.1,7.4-0.1,11.2-0.1c4.7-0.1,9.3,0.2,13.9,0.8c2.5,0.4,4.9,0.6,7.4,0.6c1.3,0,2.6,0,3.8,0.2c2.3,0.1,4.6,0.3,6.8,0.6
	c0.4,0.1,0.8,0.1,1.1,0.2c1.3,0.2,2.5,0.4,3.7,0.6c0.2,0,0.3,0,0.5,0l5.2,1c0.5,0.2,1.1,0.2,1.6,0.1c-1.4-1-2.7-2-4.1-3
	C301.2,187.8,301,187.6,300.8,187.5L300.8,187.5z M331.6,187.6c-2.2-5.6-3.9-11.4-5-17.4c-1-5.9-0.7-12,1.1-17.7
	c0.3-1,0.6-1.9,0.9-2.9c4.9-13.9,3.1-27-4.9-39.3c-8.5-13-20.4-22-34.4-28.4c-3.1-1.4-6.3-2.6-9.5-4c-3-1.3-5.9-2.7-8.9-4.1
	c-0.6-0.3-1.2-0.5-1.7-0.8c0,0.1-0.1,0.1-0.1,0.2c1,1.1,2,2.1,3,3.2c1.9,1.9,3.6,3.9,5.3,6c7.9,10,13.1,21.8,15.2,34.4
	c1.1,6.2,2.1,12.4,3.4,18.6c1.4,7.2,3.3,14.3,5.9,21.2c1.9,5.1,4.8,9.8,8.5,13.8c2.4,2.6,4.8,5.1,7.3,7.5c1.9,1.8,3.8,3.5,5.8,5.1
	c1.5,1.3,3,2.5,4.6,3.6c0.4,0.3,0.8,0.6,1.2,0.9c1.1,0.7,1.9,1.6,3.3,2.8C332.2,189.2,331.9,188.4,331.6,187.6L331.6,187.6z
	 M383.9,235.1c0-0.3,0-0.5-0.1-0.8c-1.8-9.1-0.9-18.4,2.6-27c2.6-6,3.8-12.6,3.7-19.2c0-3.8,1.2-7.5,3.5-10.6l3.2-4.4
	c4.8-6.8,6.8-14.5,6.9-22.8c-0.1-11.6-3.4-22.9-9.6-32.6c-3.3-5.3-6.9-10.4-10.6-15.5c-2.1-2.9-4.1-5.9-5.9-9c-1.2-2-2.2-4-3.2-6.1
	c-0.2-0.5-0.5-0.9-0.7-1.3c-0.1,0-0.2,0.1-0.4,0.1c0.3,1.1,0.5,2.1,0.8,3.2c1,4.2,1.7,8.4,2.1,12.7c0.6,7.8-0.1,15.6-2,23.1
	c-2.4,9.1-4.6,18.2-7.1,27.2c-2.7,9.8-4.1,19.9-3.9,30c0.1,6.7,1.5,13.3,4.1,19.5c0.6,1.4,1.3,2.9,1.9,4.4c0.7,1.6,1.4,3.2,2.1,4.9
	l0,0c1.6,3.7,3.1,7.5,4.8,11.1c1.6,3.4,3.4,6.6,5.2,9.9c0.8,1.4,1.5,2.7,2.2,4.1c0.2,0,0.3-0.1,0.4-0.1
	C383.9,235.7,383.9,235.4,383.9,235.1C383.8,235.1,383.8,235.1,383.9,235.1L383.9,235.1z M440.8,267.9c3.7-3.5,7.2-7.2,10.4-11.2
	c5.3-6.7,8.2-14.5,9.5-22.9c1.8-11.1,1-22.1-1.1-33.1c-2.1-10.2-5.3-20.1-9.5-29.7c-3.9-9.2-7.2-18.6-10-28.2
	c-0.5-1.7-1-3.4-1.4-5.2c-0.1-0.5-0.3-1.1-0.5-1.6c-0.1,0-0.3,0-0.4,0c0,0.7,0.1,1.4,0.1,2.1c0,2.1,0,4.2-0.2,6.2
	c-0.4,12.3-3.7,24.3-9.5,35.1c-4.1,7.6-6.8,15.9-8.1,24.5c-0.8,5.3-1.6,10.5-2.4,15.7c-1.5,9-1.4,18.1-0.8,27.2
	c0.4,6,2.3,11.7,4.5,17.3c1.7,4.4,3.4,8.8,4.8,13.3c0,0.1,0,0.1,0.1,0.2c0.8,2.6,1.5,5.3,2.1,8.1c0.1,0.3,0.3,0.6,0.4,0.9
	c0.2-0.3,0.4-0.7,0.5-1.1c0.1-0.2,0.3-0.5,0.4-0.8c0,0,0-0.1,0-0.1c0.7-1.3,1.3-2.5,1.9-3.7c0.3-0.6,0.5-1.2,0.8-1.8
	C434.6,274.9,437.4,271.1,440.8,267.9z M459.5,333.6c4.4-5.8,9.8-10.7,16.1-14.4c5.4-3.1,10.4-7,14.8-11.5c2-2.1,3.9-4.3,5.6-6.6
	c2.9-4.2,4.3-9.2,4.2-14.2c0-4.5-0.3-9-0.7-13.5c-0.3-3.5-0.8-6.9-1.3-10.3c-1.2-7.6-1.8-15.3-1.8-23c0-0.2,0-0.5-0.1-0.7
	c0,0,0,0,0-0.1c0,0,0,0,0,0c0-0.3-0.2-0.6-0.3-0.8c-0.2,0.5-0.4,1.2-0.6,1.7c0,0.1-0.1,0.3-0.1,0.4c-2.8,9.4-7.4,17.7-14.4,24.3
	c-14,13.1-21.9,29.2-26.5,47.4c-1.7,7.3-2.1,14.9-1.2,22.4c0.3,2.6,0.7,5.3,1.1,7.9c0.1,0.4,0.2,0.7,0.4,1.1c0-0.1,0.1-0.2,0.1-0.3
	C455.8,339.8,457.4,336.5,459.5,333.6L459.5,333.6z M384.8,352.6c-0.4,0-0.8,0-1.2,0c-0.4-0.6-0.8-1.3-1.2-1.9
	c0.4,0,0.8,0.1,1.2,0.1C384,351.4,384.3,352,384.8,352.6L384.8,352.6z M374.4,351.5c-0.1-0.7-0.3-1.3-0.5-2c0.4,0.1,0.7,0.2,1.1,0.2
	c0.2,0.6,0.3,1.3,0.5,2C375.1,351.6,374.8,351.6,374.4,351.5z M211,110.6c-7.2-2-17,2-19,7.5c0.5,1.9,2.4,3.1,4.4,2.7
	c2.2-0.3,4.4-0.9,6.4-1.9c2.3-1.3,4.6-2.8,6.7-4.4c0.4-0.4,0.8-0.8,1.1-1.2c-0.1-0.1-0.2-0.2-0.3-0.4c-0.6,0.5-1.2,1-1.9,1.6
	c-2.6,2.2-5.5,3.8-8.7,4.8c-1.2,0.4-2.5,0.6-3.8,0.6c-1.4,0.1-2.7-0.7-3.2-2c1.6-3.4,4.9-4.7,8-6.1C204,110.5,207.5,110.4,211,110.6
	z M103.4,45.7C97.6,42,91.3,40,84.3,41.2c-2,0.2-3.7,1.4-4.7,3.1c-0.7,1.3-0.7,2.6,0.5,3.5c1.2,0.9,2.6,1.5,4.1,2
	c4.3,1.2,9,0.7,12.9-1.4c-0.7,0.2-1.4,0.3-2.1,0.5c-3.6,1-7.4,1.1-11,0.1c-1-0.4-2-0.8-3-1.3c-0.9-0.4-1.5-1.4-1.4-2.4
	c0.8-1.8,2.4-3.1,4.4-3.3c4.6-0.8,9.4-0.3,13.7,1.4C99.7,44.1,101.5,44.9,103.4,45.7z M123.4,33.8c-2.2-6.2-5.8-11.3-11.5-14.8
	c-2-1.3-4.3-1.9-6.6-1.7c-1.1,0-2.3,0.4-3,1.3c6.2-2.1,10.3,1.3,14.1,4.9c2.5,2.6,4.5,5.5,6,8.7C122.7,32.7,123.1,33.3,123.4,33.8z
	 M115.6,72.7c-3.2,2.8-6.9,5-10.9,6.4c-1.6,0.6-3.3,1-5,1.2c-1.7,0.3-3.5-0.2-4.9-1.3c0.3,1,1.2,1.8,2.3,1.8
	c1.3,0.3,2.6,0.3,3.9,0.1c5.1-1,9.8-3.4,13.6-6.9C114.9,73.6,115.2,73.1,115.6,72.7z M167.9,82.8c0.1-2.3,1.7-3.5,3.5-4.3
	c5.5-2.5,11.1-3.9,17.1-2.3c0.2,0.2,0.5,0.2,0.8,0.1c-2.7-1.4-5.7-1.9-8.6-1.4c-3.5,0.5-7,1.5-10.1,3.2c-1,0.6-1.9,1.4-2.6,2.3
	C167.4,81,167.4,82.1,167.9,82.8L167.9,82.8z M134,79.1c-0.1,2.4,0.1,4.8-0.2,7.1c-0.3,2.4-0.8,4.9-1.5,7.2c-0.7,2.3-2.3,3.9-5,3.8
	c-0.2,0-0.4,0.1-0.6,0.2c2,1,4.3,0.2,5.3-1.8c0,0,0-0.1,0-0.1c1-1.8,1.7-3.8,2.1-5.9C134.8,86.2,134.8,82.6,134,79.1z M168,82.8
	c0.5,0.5,1,0.9,1.7,1.1c1.9,0.3,3.9,0.3,5.8,0.1c5.2-0.9,10.2-2.7,14.9-5.3c0.3-0.2,0.5-0.4,0.7-0.7c-0.7,0.2-1.1,0.3-1.5,0.5
	c-3.6,1.4-7.2,3-11,4.1C175.1,83.8,171.5,84.2,168,82.8L168,82.8z M155,26.2c-1,2-0.5,4,0.2,5.9c1.4,3.4,3.7,6.3,6.7,8.4
	c1.6,1.2,3.4,2.1,5.1,3.2l0.3-0.4c-0.7-0.5-1.5-1-2.2-1.4c-3.2-2.1-6.1-4.3-8.1-7.7C155.5,31.7,154.8,29,155,26.2z M203.4,14.3
	c-0.4-0.4-1-0.3-1.4,0.1c-0.1,0.1-0.2,0.2-0.2,0.4c-0.4,0.7-0.7,1.4-0.9,2.2c-0.8,2.8-0.5,5.7,0.7,8.3c1.4,2.8,2.9,5.5,4.3,8.2
	c0.2-0.1,0.3-0.2,0.5-0.2c-1.1-2.1-2.1-4.2-3.2-6.3c-1.7-2.8-2.3-6.2-1.7-9.4C201.5,16.1,202.2,14.9,203.4,14.3L203.4,14.3z
	 M118,33.2c-0.8-0.3-1.7-0.6-2.5-1c-2.7-1.1-5.3-2.4-7.8-3.8c-2.9-1.7-4.6-4.5-5.8-7.6c0.1,0.7,0.3,1.4,0.5,2.1
	c0.8,2.1,2.1,4,3.9,5.4C109.6,31,113.7,32.7,118,33.2z M229.7,29.2c1.6,2.5,1,4.9-0.3,7.2c-1.6,2.5-3.5,4.8-5.8,6.7
	c-0.8,0.7-1.6,1.4-2.6,2.2c1.5-0.3,2.9-1.1,3.8-2.3c1.8-1.8,3.5-3.8,5-5.9c0.8-1.4,1.4-3,1.5-4.7C231.5,31.1,231.4,29.7,229.7,29.2
	L229.7,29.2z M112.6,70.9c-3.6-0.7-7.3-1.1-10.9-0.1c-2.8,0.7-5.4,2.2-7.2,4.5c-0.3,0.5-0.5,1-0.6,1.5c1-1.1,2.1-2.2,3.3-3.1
	c2.8-2,6.2-3,9.6-2.8C108.7,70.9,110.6,70.9,112.6,70.9z M156.8,24.5c4.2,0.2,6.6,2.9,8.3,6.2c1.6,3.2,3,6.6,4.5,10.1
	c0-0.5-0.1-0.9-0.2-1.4c-1.3-4.2-2.7-8.3-5.5-11.8C162.1,25.4,159.9,24,156.8,24.5L156.8,24.5z M203.4,14.2c2.2,0.4,2.9,2.2,3.7,3.9
	c1.4,3.4,2,7,1.9,10.6c0,1.7-0.1,3.4,0.1,5.1c1.2-5.6,0.6-11.5-1.7-16.7c-0.5-0.9-1.1-1.7-1.8-2.4C205,14.1,204.1,13.9,203.4,14.2
	L203.4,14.2z M125.4,95.8c-1-2.2-0.4-4.3,0.3-6.4c1.3-3.2,3-6.3,5.2-9c0.5-0.7,1-1.4,1.5-2.1c-3.9,3.9-7.1,8.3-8,13.9
	C124.1,93.5,124.1,94.8,125.4,95.8z M229.7,29.2c-3.6-1.7-5.9-0.5-7.7,2.5c-1.6,3-2.3,6.4-1.9,9.8c0.1-0.7,0.2-1.5,0.4-2.2
	c0.5-2.3,1.1-4.5,1.8-6.7c1-2.6,3-4,6-3.6C228.9,29.2,229.3,29.2,229.7,29.2L229.7,29.2z M223,77.6c-0.9-0.5-1.4-0.7-1.8-1
	c-8.7-5.7-18.1-10.3-27.9-13.8c-4.1-1.5-8-3.3-11.1-6.3c-3.3-3.2-6.5-6.7-9.4-10.3c-1.8-2.3-2.2-5.3-2.1-8.3
	c0.1-1.7,0.1-3.5-0.1-5.2c-0.5-3.4-2.3-6.4-5-8.4c-2.9-2.2-8.1-2.3-10.6,0.5c-0.6,0.7-1.1,1.5-1.6,2.3c-0.6,1.1-1,2.3-1.5,3.4
	c-1.4,3.2-0.7,6,2.2,8.1c1,0.7,2.1,1.3,3.2,1.8c3,1.2,6.1,2.4,9.2,3.5c2.5,0.8,4.7,2.3,6.4,4.4c2.5,2.9,5.1,5.8,7.7,8.6
	c0.7,0.7,1.5,1.4,2.4,2.3c-0.3,0.1-0.6,0.1-1,0.1c-10.1-2.7-20.1-5.3-30.2-8c-4.1-1.1-8-2.7-11.6-4.9c-4.2-2.5-8.4-4.9-12-8.3
	c-2.3-2.2-4-4.5-4.2-7.8c-0.2-3-1-5.9-2.6-8.5c-1.4-2.5-3.9-4.3-6.7-4.8c-1.3-0.3-2.6-0.8-3.9-1.3c-2.4-0.8-4.7-1.1-6.9,0.3
	c-1.8,1.1-2.9,3-3,5.1c-0.2,1.7-0.3,3.3-0.3,5c-0.2,2.1,0.7,4.1,2.4,5.3c4.2,3.2,8.8,4.8,14.1,3.9c3.3-0.6,6.7,0.4,9.1,2.7
	c5,4.4,10.5,8.1,16.3,11.2c0.4,0.2,0.7,0.5,1,0.8c-0.8,0-1.2,0-1.5-0.1c-10.1-1.3-20.2-2.6-30.3-3.9c-2.6-0.3-5.3-0.5-7.5-2
	c-1.4-0.8-2.6-1.9-3.6-3.1c-3.4-4.3-10.7-6.4-15.8-4.2c-1.6,0.6-2.9,1.8-3.7,3.2c-1.1,2-2.1,4-3.1,6c-1.1,1.8-0.8,4.2,0.8,5.6
	c0.4,0.4,0.7,0.8,1,1.1c3.8,3.3,5.9,3.8,10.3,1.7c2.5-1.2,4.8-2.7,7-4.5c3.5-2.8,8.1-4,12.5-3.2c8,1.2,16,2.1,24,3.4
	c8.3,1.3,16.6,3,24.9,4.5c0.9,0.2,1.7,0.4,2.9,0.7c-0.3,0.2-0.6,0.3-1,0.4c-10,0.6-18.9,4.4-27.8,8.6c-2.9,1.4-5.8,2.6-8.8,3.7
	c-2.8,0.8-5.6,1.3-8.5,1.6c-1.3,0.1-2.6-0.1-3.9-0.5c-1.7-0.4-3.4-1-5.1-1.3c-5.1-1-9.2,0.9-12.2,5c-2.2,3-1.6,6.1,1.4,8.4
	c0.9,0.7,1.9,1.3,2.8,2c1.4,1,3.2,1.5,5,1.3c4.5-0.4,8-2.4,10.3-6.4c0.1-0.1,0.2-0.2,0.2-0.4c1.5-4,4.7-6.1,8.4-7.7
	c5.8-2.4,11.6-5,17.4-7.5c0.3-0.1,0.7-0.2,1.5-0.5c-0.6,0.8-0.9,1.3-1.2,1.8c-1.2,1.8-2.5,3.6-3.7,5.4c-0.5,0.9-1,1.8-1.4,2.7
	c-1.6,3.2-3.5,6.1-6.9,7.9c-3.3,1.8-5.1,4.9-6.1,8.4c-0.8,2.9-0.6,5.5,1.7,7.6c1.2,1.1,2.3,2.2,3.5,3.2c1.2,1,2.9,1.1,4.3,0.4
	c3.6-1.5,5.8-3.9,5.5-8c-0.2-2.5-0.1-5.1-1-7.3c-2.2-5.7-0.9-10.8,2.1-15.8c3-4.9,6.9-8.4,12.6-9.7c3-0.7,6-1.2,9-1.7
	c4.1-0.7,8.3-0.3,12.2,1c11.1,3.4,22.2,6.6,32.7,11.6c1.8,0.8,3.5,1.7,5.3,2.6c0.5,0.2,0.9,0.6,1.8,1.2c-1.1,0.1-1.7,0.2-2.3,0.3
	c-4.1,0.5-8.3,0.9-12.3,1.6c-3.9,0.8-7.9,0.3-11.5-1.4c-5.8-3-11.1-2.2-15.9,2.1c-0.2,0.1-0.3,0.3-0.5,0.4c-3.3,2.8-3.3,5.6,0.2,8.3
	c1.1,0.9,2.2,1.7,3.2,2.7c1.6,1.6,4,2.1,6,1.2c3.7-1.5,7-3.9,9.7-6.8c2.6-2.7,5.4-4.9,9.3-5.3c5.2-0.6,10.4-1.2,15.6-1.7
	c0.9,0,1.7,0.2,2.4,0.7c11,7,21.8,14.3,30.7,24c2.3,2.5,4.7,4.8,7,7.2c0.6,0.6,1.1,1.2,1.9,2.1c-0.7,0-1.3,0-2-0.1
	c-2.7-0.6-5.4-1.2-8-2c-4.8-1.5-10-1.4-14.8,0.3c-5.2,1.7-10.7,2.7-16.1,4.1c-1.3,0.3-2.7,0-3.7-0.9c-4.6-3.5-9.6-2.8-14.6-1.1
	c-2.6,0.9-4.4,3.4-4.4,6.2c-0.2,2.7,0.1,5.3,2.8,6.8c0.7,0.5,1.6,0.8,2.4,0.9c2.4,0.1,4.8,0.1,7.2-0.1c1.8-0.1,3.4-1.3,3.9-3
	c0.4-1,0.8-2,1.2-3c0.8-2.2,2.7-3.9,5-4.4c1.3-0.4,2.7-0.6,4-0.9c4.5-1.1,9.1-2.1,13.5-3.5c4.1-1.4,8.5-1.5,12.7-0.3
	c3.5,1,7.1,1.7,10.6,2.7c1.8,0.4,3.4,1.2,4.9,2.2c7.7,5.6,14.5,12.2,20.2,19.7c9.7,12.7,17.9,26.1,23.3,41.2
	c1.7,4.8,3.1,9.7,4.6,14.5c0.5,1.5,1,3,1.6,4.5c0.3,0.7,0.7,1.3,1.1,2c0.7-0.6,1.3-1.1,1.9-1.6c-0.4-1.5-0.8-3-1.3-4.5
	c-3.3-8.8-6.4-17.8-10.6-26.3c-4.4-8.9-9.1-17.5-15.2-25.4c-2.4-3-4.5-6.2-6.9-9.3c-4.9-6.2-10.9-11.1-17-15.9
	c-4.5-3.5-8.6-7.4-12.4-11.6c-6.1-6.7-12.9-12.6-20.3-17.7c-2.3-1.5-4.1-3.5-5.3-5.9c-1.4-2.8-3.2-5.4-5.3-7.7
	c-0.9-1.1-1.8-2.3-2.6-3.5c-1.5-2-1.9-4.6-1.3-7c1-4.4,3.3-8.2,5.9-12c1.7-0.2,3.5-0.4,5.3-0.5c2.6-0.1,5.2-1.2,7.1-3
	c2.3-2.5,3-6.1,1.9-9.3c-0.9-2.1-6.9-6.7-9.2-6.9c-0.9-0.1-1.7,0-2.5,0.4c-2.6,1.3-4.8,3.2-5,6.3c-0.2,2-0.1,4.1,0.3,6.1
	c0.9,4.2-0.1,7.9-2.1,11.5c-1.1,1.9-1.9,3.9-3,6c-0.2-0.4-0.4-0.8-0.6-1.3c-1-4.7-2.1-9.4-2.9-14.1c-0.4-3.3,0-6.6,1.3-9.6
	c0.6-1.5,1.4-2.9,1.9-4.4c1.5-4,0.6-8.5-2.3-11.6c-0.1-0.2-0.3-0.3-0.4-0.5c-1.8-1.7-8.9-2.5-11.1-1.3c-1.3,0.8-2.1,2-2.3,3.5
	c-1.3,5.3,0.9,9.3,4.7,12.8c0.9,0.8,1.8,1.7,2.7,2.5c2.1,1.7,3.4,4,3.9,6.6c1.1,5.8,2.2,11.6,3.4,17.3c0.3,1.5,0.7,3,1,4.5
	c0.7,2.6,1.9,5,3.7,7.1c1.9,2.3,3.7,4.7,5.4,7.1C222,75.7,222.5,76.7,223,77.6z M123.2,34c-2.2-0.2-4.4-0.3-6.7-0.2
	c-4.5,0.5-9.1-0.7-12.7-3.5c-1.6-1-2.4-2.8-2.1-4.7c0.2-1.3,0.3-2.6,0.4-3.9c0.3-4,3.2-6.1,7.1-5.1c0.6,0.2,1.2,0.5,1.8,0.7
	c1.2,0.4,2.5,0.8,3.7,1.1c1.6,0.3,3,1.2,4.1,2.4c2.6,2.8,3.2,6.3,3.7,9.8C122.8,31.8,123,33,123.2,34z M102.6,45.3
	c-2.8,0.5-4.8,2-7,3.6c-2,1.4-4.1,2.7-6.3,3.9c-2.6,1.7-6.1,1.3-8.2-0.9c-0.3-0.2-0.6-0.4-0.9-0.7c-1.9-1.6-2.2-3-1.1-5.2
	c0.8-1.7,1.8-3.3,2.6-5c0.9-2.3,3.2-3.8,5.7-3.8c2.5,0,4.9,0.4,7.3,0.9c1.2,0.4,2.2,1,3.1,2C99.4,41.6,100.9,43.4,102.6,45.3z
	 M170.3,43.6c-0.3,0-0.6,0-0.9,0c-4.3-1.8-8.6-3.5-12.9-5.3c-0.6-0.3-1.2-0.6-1.7-1c-2.2-1.8-2.7-3.7-1.6-6.4c0.5-1.2,1-2.4,1.5-3.6
	c0.5-1.3,1.6-2.3,2.9-2.8c2.8-1.1,5.9-0.4,8,1.8c2.5,2.4,3.8,5.8,3.7,9.2C169.3,38.2,169,40.9,170.3,43.6z M116.6,71.1
	c-2.2,1.9-3.3,4.4-4.6,6.7c-1.7,2.9-4.4,4.3-7.6,5c-2.5,0.6-5.2-0.3-7-2.1c-0.2-0.2-0.5-0.3-0.7-0.5c-3-2.2-3.2-4.9-0.7-7.6
	c3-3.1,6.6-4.4,10.9-3.2C110,70.3,113.1,71.5,116.6,71.1z M208.7,35.6c-1.5-1.8-2.7-3.3-4-4.8c-1.3-1.4-2.6-2.9-4.1-4.2
	c-2.9-2.6-3.2-5.9-2.6-9.4c0.4-2.2,1.5-3.1,3.8-3c1.4,0.1,2.9,0.3,4.3,0.4c1.7,0.1,3.2,1,4.1,2.5c2,3.1,2.3,7,0.7,10.4
	C209.8,30,208.3,32.4,208.7,35.6z M190.7,77.3c-2.3,2.1-4.4,4.2-6.8,6.1c-2,1.4-4,2.6-6.2,3.5c-1.2,0.6-2.7,0.4-3.7-0.5
	c-1.6-1.3-3.2-2.5-4.7-3.9c-1.5-1.3-1.6-2.8-0.2-4.2c1.6-1.5,3.3-2.8,5.2-3.9c2.1-1.3,4.8-1.6,7.1-0.6
	C184.5,75,187.5,76.1,190.7,77.3z M220.1,44.4c-0.3-3-0.6-5.9-0.8-8.9c-0.1-1.1,0-2.2,0.2-3.2c0.4-2,1.7-3.6,3.5-4.5
	c1.1-0.7,2.6-0.7,3.7,0c1.8,1.2,3.6,2.5,5.3,3.9c1.3,1,1.9,2.7,1.7,4.3c-0.5,4.7-2.6,6.7-6.8,7.5C224.6,43.9,222.3,44.1,220.1,44.4z
	 M133.1,77.5c0.6,3,1.3,5.9,1.9,8.9c0.2,1.1,0.3,2.2,0.4,3.2c0,0.7-0.1,1.5,0,2.2c0.1,3.1-1.6,5-4.3,6.1c-1,0.6-2.3,0.5-3.3-0.3
	c-1.4-1.1-2.6-2.3-3.8-3.6c-0.7-1-1.1-2.2-1.1-3.4c0.2-3.5,1.8-6.7,4.4-8.9C129.1,80.2,131.1,78.9,133.1,77.5z M211,112.3
	c-2.2,1.3-3.2,3.5-4,5.8c-0.1,0.3-0.3,0.7-0.4,1c-0.4,1.3-1.6,2.2-2.9,2.3c-2.2,0.2-4.5,0.3-6.7,0.1c-1.1-0.2-2.2-0.7-3-1.6
	c-2.2-2.5-1.2-7.9,1.8-9.3C200.4,108.6,206.4,108,211,112.3L211,112.3z M603.8,63.9c0,5.8-2.3,10.4-7.5,13.4
	c-1.7,0.9-3.4,1.7-5.1,2.4c-3.9,1.6-7.8,3.3-10.7,6.6c-0.3,0.2-0.6,0.2-0.9,0.2c0.6-1.2,1.2-2.3,1.7-3.5c1.2-2.7,2.2-5.5,3.6-8.1
	c2.2-4.5,5.6-8.3,9.9-11.1c2.6-1.6,5.4-2.9,8.8-1.6C603.7,62.8,603.8,63.3,603.8,63.9z M595.9,76.7c5.1-2.8,8-8.4,7.3-14.2
	c-2.1-0.6-4.3-0.3-6.2,0.8c-4.2,2.3-7.6,5.6-10,9.7c-1.8,3.1-3.2,6.4-4.7,9.6c-0.1,0.5-0.2,1-0.3,1.5
	C586.2,80.2,591.4,79.2,595.9,76.7z M566.4,52.1c-0.3-0.6-0.7-1.1-1-1.7c-1.9-3.6-3.7-7.1-5.6-10.7c-1.5-2.9-2.6-5.9-1.9-9.2
	c0.5-2.4,1.3-4.6,3.9-6.1c-1.2-0.2-2.3,0.4-2.8,1.5c-1.9,2.6-2.6,6-1.7,9.1c0.9,2.7,2,5.2,3.3,7.7c1.8,3.6,3.7,7.1,5.6,10.6
	c0.4,0.7,0.9,1.3,1.4,1.9c0-1,0-1.7,0-2.3c-0.2-3.3,0.1-6.5,0.9-9.7c0.9-3.8,1.3-7.8,1.1-11.8c-0.1-2.2-1.2-4.2-2.9-5.4
	c3.4,4,2.5,8.6,2,13c-0.5,4.3-2.2,8.5-1.6,13C566.7,52.1,566.5,52.1,566.4,52.1z M583.9,191c2.7,0.3,5.4,0.1,8-0.8
	c3.5-1.1,6.9-2.3,10.3-3.6c1.7-0.7,3.2-1.7,4.6-2.9c1.6-1.3,2.6-3.2,2.8-5.3c0.1-1,0.2-2.1,0.3-3.2c-0.8-1.2-2.2-1.8-3.6-1.5
	c-6.2,0.4-11.6,2.5-15.4,7.6c-1.3,1.8-2.4,3.7-3.3,5.7c1.7-2.3,3.4-4.6,5.2-6.8c2-2.2,4.6-3.8,7.5-4.6c2.8-0.8,5.6-1.9,8.7-0.7
	c0.4,3.5-0.3,6.6-3.2,8.7c-3.5,2.5-7.4,4.3-11.5,5.2C590.9,189.6,587.5,190.2,583.9,191L583.9,191z M589.5,160.1
	c-0.4-0.4-0.7-0.9-1-1.4c-0.9-2.6-3-3.5-5.4-3.9c-3.8-0.6-7.6-0.1-11.2,1.3c-1.6,0.6-3.2,1.4-4.6,2.4c0.5-0.2,1-0.4,1.5-0.6
	c4.2-2,8.9-2.8,13.5-2.4c1.4,0.1,2.7,0.6,3.9,1.2c1.6,0.7,2.5,2.4,2.2,4.1c-3.9,6-14.9,7.1-21.7,1.7c1.6,2.8,6.1,4.4,11.9,4.1
	C583,166.5,587.2,164,589.5,160.1L589.5,160.1z M524.2,73.8c-1-0.3-1.9-0.6-2.9-1c-2.2,3.8-1.6,7.2,0.6,10.2
	c3.7,5.2,8.7,8.9,15.1,10.1c0.2,0,0.4-0.1,0.5-0.2c-1.1-0.4-2.1-0.8-3.1-1.2c-4.2-1.6-7.9-4.2-10.8-7.7c-1.7-1.8-2.7-4.1-2.9-6.5
	c-0.2-1.4,0.3-2.8,1.2-3.9L524.2,73.8L524.2,73.8z M602.3,60.4c-2.8-3.2-5.7-3.7-8.6-1.5c-1.6,1.1-3,2.5-4.3,4
	c-3.7,4.8-6.7,10-7.6,16.1c0.1-0.2,0.2-0.4,0.3-0.6c0.1-0.3,0.2-0.6,0.3-0.9c1.5-4.8,3.8-9.3,6.8-13.3c1.2-1.6,2.5-3,4.1-4.2
	c3.4-2.8,5.6-2.2,8-0.3C601.5,59.9,601.7,60,602.3,60.4L602.3,60.4z M478.9,199.5c-0.9,2.3,0,4.3,1,6.1c4.1,8,11.1,11.5,19.6,12.6
	C489.4,215.6,480.9,211.4,478.9,199.5z M540.9,74.6c-1.4-3.5-3-7.1-4.3-10.9c-1.2-3.5-0.9-7.2-0.3-10.8c0.1-0.7,0.4-1.5,0.9-2.1
	c1-1.6,2-2,4-1.9c-0.4-0.2-0.9-0.3-1.3-0.3c-2.2,0.2-4,2-4.1,4.3c-0.4,2.7-0.5,5.4-0.3,8.1c0.3,4.2,2.1,7.9,4.2,11.4
	C540,73.2,540.5,74,540.9,74.6L540.9,74.6z M482.3,196.2c3-0.1,5.4,1.2,7.5,2.8c3.8,3,6.9,6.9,8.9,11.3c0.7,1.7,1.2,3.5,1.5,5.4
	c0.2-1.9-0.1-3.8-0.9-5.5c-2-4.5-5.1-8.5-9-11.5c-2.1-1.6-4.5-2.9-7.3-2.7C482.9,196.1,482.6,196.1,482.3,196.2z M506.9,114.5
	c-1.3,0.9-2,2.4-1.9,4c-0.3,8.3,2.8,15.1,8.7,20.8c-1.3-1.9-2.7-3.9-4-5.8c-2.5-3.9-3.9-8.4-4.1-13.1
	C505.3,118.3,505.7,116.2,506.9,114.5z M576.2,214.8c3.4,7.7,19.6,8,24.8,1.9c-3.8,2.6-8.3,3.8-12.9,3.6
	C583.5,220,579.4,218.5,576.2,214.8L576.2,214.8z M578.5,210.1c4.2-1.4,8.5-2.1,12.9-1.9c1.1,0.1,2.1,0.2,3.2,0.3
	c3.2,0.2,5.9,2.4,6.8,5.5c0.1,0.3,0.2,0.5,0.4,1c-0.6-4-2.5-6.2-6.1-7C589.9,206.8,583.9,207.5,578.5,210.1L578.5,210.1z
	 M509.1,158.1c-5.2-1.5-9.2-4.6-12.8-8.4c-2.3-2.4-3.5-5.1-2.5-8.8c-1.2,2.2-1.4,4.4-0.2,6.3c3.5,5.2,8.1,9,14.2,10.7
	C508.3,158,508.7,158.1,509.1,158.1z M589.4,122.4c2.1,2.9,1.4,5.7-0.5,8.4c-3.1,4.4-7.5,6.7-12.7,7.7c-0.4,0.1-0.7,0.1-1.3,0.2
	c1.4,0.3,2.9,0.2,4.2-0.3c3.7-1.2,7-3.3,9.5-6.3c1.5-1.6,2.4-3.7,2.5-6C591.2,124.7,590.9,123.3,589.4,122.4L589.4,122.4z
	 M524.2,73.8c6.9,4.6,12,11.4,14.6,19.3c-0.5-3-1.6-5.8-3.2-8.4c-2.2-3.5-4.9-6.6-8-9.2C526.5,74.8,525.4,74.3,524.2,73.8
	L524.2,73.8z M542.6,51.5c4.4,6.9,3.1,14.2,1.3,21.8C547.1,67.4,547.3,56,542.6,51.5z M516.6,135.7c2.6-8.8-1.7-17.7-6.4-20.2
	C516.2,121,517.6,128,516.6,135.7z M589.4,122.5c-1.5-0.7-3.4-0.6-4.8,0.4c-4.8,2.7-8.2,7.3-9.6,12.6c0.3-0.6,0.7-1.2,1-1.9
	c1.3-2.8,3.1-5.4,5.3-7.6C583.4,123.8,586.3,122.5,589.4,122.5L589.4,122.5z M510.1,153.7c-1.7-4.6-4.5-8.8-8.1-12.2
	c-1.2-1.3-2.8-2.1-4.6-2.2c-0.5,0-1,0.1-1.5,0.3c2.9-0.2,4.9,1.4,6.7,3.3C505.6,146.2,508.2,149.8,510.1,153.7L510.1,153.7z
	 M554.3,131.2c1.8-4.6,3.8-9.1,5.5-13.8c7.1-20.2,8.6-41,6.4-62.1c-0.2-1.4-0.8-2.6-1.7-3.6c-2.2-2.5-4.6-4.9-6.9-7.2
	c-2.7-2.7-4.6-6.1-5.5-9.8c-0.8-3.1-0.4-6.5,1.3-9.2c2.1-3.6,5.4-4.6,9.1-2.6c1.1,0.6,2.3,1.1,3.6,1.5c3.7,1,6.8,3.7,8.2,7.3
	c0.5,1.1,0.8,2.3,1.3,3.4c1,2.9,1,6.1-0.1,8.9c-1,2.6-2.5,4.9-4.4,6.8c-2.2,2.3-3.3,5.5-2.9,8.8c1.3,13.4,0.8,26.9-1.6,40.2
	c-0.1,0.4-0.1,0.9-0.1,1.3c0.5-0.3,0.9-0.8,1.2-1.3c1.7-2.4,3.4-4.9,5.3-7.2c7.5-9,6.6-6.6,8.8-18.2c0.7-3.6,1.4-7.2,2.4-10.7
	c1.7-5.9,6.1-8.9,12-9.8c2.8-0.4,5,0.5,6.2,3.1c1.5,3.3,3,6.6,4.3,10.1c1,2.7,0.9,5.6-0.2,8.3c-1.6,4-4.8,7.2-8.9,8.6
	c-3.4,1.1-6.9,1.7-10.5,1.9c-4.6,0.2-8.9,2.5-11.6,6.3c-1.6,2-3.2,4.1-4.6,6.2c-2.2,3.6-4.1,7.3-5.8,11.1c-3.1,7.6-5.8,15.4-8.9,23
	c-4,9.9-8.2,19.7-11.3,29.9c-0.2,0.7-0.4,1.5-0.7,2.5c0.2-0.1,0.4-0.2,0.6-0.3c0.4-0.5,0.7-1,1.1-1.5c3.9-5.7,8.7-10.6,14.3-14.6
	c3.4-2.4,6.7-4.9,10.1-7.4c1.8-1.3,3.1-3.2,3.6-5.4c0.8-2.9,1.6-5.9,2.4-8.8c0.6-2.6,2.1-4.9,4.3-6.5c2.4-1.8,5.7-1.9,8.1-0.2
	c1.7,1.2,3.4,2.6,5,3.9c1.4,1.2,2.3,2.9,2.3,4.8c0.3,4.6-3.4,10.3-7.7,12c-3,1.3-6.5,1.2-9.5-0.2c-2.3-1.2-5.1-0.8-6.9,1.1
	c-1.3,1.1-2.6,2-4,3c-5.2,3.5-10,7.4-14.5,11.8c-0.5,0.5-1,1.1-1.5,1.7c3.1-0.7,6.2-0.6,9.3,0.1c3.2,0.8,5.6-0.2,7.7-2.6
	c1.5-1.6,3.2-3,5.1-4.1c3.7-2.1,8.1-2.5,12.2-1.3c2.2,0.5,3.7,2.4,3.8,4.6c0.1,1.6,0.1,3.2,0.1,4.8c-0.3,5.3-4.1,9.7-9.8,11.1
	c-5,1.2-10.3-0.9-13-5.3c-0.5-0.7-0.9-1.4-1.3-2.2c-1-2.2-3.1-3.7-5.5-3.9c-1.6-0.3-3.3-0.3-5-0.1c-2.5,0.4-5.3,1-7,3.1
	c-3.2,3.9-6.1,8.1-7.6,12.9c-3.2,10.6-5.7,21.5-7.4,32.5c-0.1,0.6-0.1,1.1-0.1,2c0.8-0.5,1.4-0.8,2-1.1c2.9-1.6,6-3,9.1-4.2
	c4.2-1.4,8.5-2.2,12.8-3.5c3.9-1.1,7.7-2.4,11.5-3.8c3.4-1.3,6.6-3.1,10-4.5c4.8-2,8.4-4.9,10.2-10c1.2-3.5,3-6.9,5.3-9.8
	c3-3.7,7-4.6,11.4-4.2c1.6,0.1,3,1,3.6,2.5c1.1,2.6,2,5.2,2.8,7.9c0.7,2.5,0.2,5.3-1.5,7.4c-4.2,5.7-10,8.7-17.5,6.8
	c-1.5-0.4-2.9-0.9-4.4-1.1c-2.5-0.5-5-0.2-7.3,0.9c-7.1,3.6-14.1,7.6-22,9.3c-1,0.2-2.1,0.5-3.1,0.8c-1.2,0.3-2.4,0.7-3.9,1.1
	c0.3,0.2,0.6,0.4,0.9,0.5c2.9,0.6,5.7,1.7,8.3,3.2c2.5,1.3,5.3,2.1,8.1,2.2c1.2,0.1,2.4,0.2,3.6,0.4c1.8,0.4,3.7,0,5.2-1.1
	c1.1-0.7,2.1-1.5,3.1-2.3c2.7-2,5.8-3.4,9.1-4.1c2.3-0.7,4.7-0.7,7-0.2c3.2,0.9,5.6,2.8,6.4,6.1c1.3,5.3-2.3,12.5-7.2,14.8
	c-2.8,1.4-5.9,2.1-9,2.1c-3.1,0.2-6.1-1.3-7.8-3.9c-2-2.9-4.2-5.6-6.2-8.4c-0.6-1.1-1.8-1.7-3-1.8c-4.5-0.2-8.5-1.8-12.6-3.8
	c-5.1-2.7-11.3-2.9-16.6-0.5c-2.6,1.1-4.9,2.7-7.4,4c-1.1,0.6-1.8,1.7-1.8,2.9c-0.2,3-0.6,5.9-0.9,8.8c-2.1,22.3,0.7,44.9,8,66.1
	c2.9,8.8,6.4,17.4,10.4,25.8c2.4,4.8,4.4,9.9,7.5,14.3c5.1,7.4,10.9,14.4,16.5,21.5c6.7,8.1,12.7,16.7,18,25.8
	c0.4,0.7,0.7,1.4,0.8,2.1c0.2,1-0.1,1.6-1.7,1.7c-0.6-0.8-1.4-1.8-2.1-2.8c-0.7-1-1.2-2.1-1.8-3.1c-7.7-11.7-15.5-23.3-24.7-33.9
	c-5.6-6.6-10.1-14.1-13.5-22.1c-3-6.9-5.9-13.8-8.5-20.9c-5.5-14.6-9.6-29.6-11-45.3c-0.2-1.8-0.7-3.6-1.5-5.2
	c-1.2-2.4-2.5-4.7-4-6.9c-4.1-6.6-9.6-11.9-15.6-16.8c-1.4-1.1-2.9-2-4.5-2.7c-2.8-1.3-5.7-1.3-8.7-1.2c-9.1,0.2-16.1-3.8-20.1-11.7
	c-1.7-3.5-1.1-6.4,1.9-9c1.6-1.4,3.2-2.8,4.9-4.1c3.4-3,8.3-3.4,12.1-0.8c6.3,3.9,9.7,11.1,8.7,18.4c-0.1,1-0.3,1.9-0.4,3
	c3.4,3.1,6.7,6.1,10.1,9c5.7,4.7,10.5,10.4,14.2,16.8c0.7,1.2,1.4,2.3,2.1,3.5c0.3-1,0.4-2,0.4-3c0.2-6.5,0-12.9,0.6-19.4
	c0.8-7.8,2.2-15.5,3.3-23.2c0.2-1,0.3-2.1,0.4-3.2c0.3-10.6-3.8-20.9-11.3-28.4c-1.8-1.8-3.7-3.4-5.7-4.9c-2.1-1.7-4.6-2.8-7.2-3.2
	c-2-0.3-4.1-0.6-6.1-0.7c-6.3-0.5-10.4-3.9-12.7-9.7c-1-2-0.6-4.3,0.9-5.9c0.7-0.8,1.4-1.6,2.1-2.4c3.5-3.9,9.6-4.3,13.5-0.7
	c0.5,0.4,0.9,0.9,1.2,1.3c2,2.4,3.1,5.5,3.2,8.6c0,0.9,0.1,1.8,0.2,2.7c0.2,3.1,1.8,5.9,4.3,7.7c2.2,1.5,4.3,3.4,6.4,5.1
	c0.3,0.2,0.5,0.4,0.8,0.7c-0.1-0.9-0.3-1.7-0.7-2.5c-2.1-5.4-4.3-10.7-6.1-16.2c-1.5-4.4-3.7-8.2-7.9-10.5c-4-2.2-6.8-6-7.9-10.5
	c-0.1-0.4-0.2-0.7-0.4-1.1c-1.6-4.4-0.3-7.9,3.1-11.4c1.1-1.2,2.8-1.7,4.4-1.2c1.7,0.3,3.4,0.8,5.1,1.1c4.8,1.1,7,4.4,7.9,9
	c0.6,3.4-0.1,6.9-1.8,9.9c-2.4,4.8-2.1,9.8-0.8,14.7c2.1,7.3,5,14.4,8.6,21.1c2.9,5.3,5.3,11,7.1,16.8c0.3,1.2,0.6,2.4,0.9,3.6
	c0.5-0.7,0.9-1.5,1.1-2.3c3.8-15.4,8.6-30.5,14.4-45.2c1-2.6,1.7-5.4,2-8.2c0.7-6.8,1-13.6,1.5-20.5c0-0.5,0.1-0.9,0-1.4
	c0-1.9-0.5-3.8-1.6-5.4c-2.6-3.6-5.8-6.7-9.4-9.2c-3-2.1-6.5-3.3-10.1-3.7c-3.1-0.6-6-1.5-8.9-2.7c-2.3-1-4.3-2.7-5.6-4.9
	c-1.8-2.6-2.2-6-1.1-8.9c1.2-3.6,6-5.6,9.6-4.1c1.2,0.6,2.4,1,3.6,1.3c4,0.7,6.5,3.1,8,6.7c1.5,3.3,2.4,6.9,2.6,10.6
	c0.1,2,1.2,3.8,2.9,4.8c2.5,1.9,4.7,4,7.1,6c0.3,0.2,0.5,0.4,1.1,0.8c-0.1-0.6-0.2-1.1-0.3-1.7c-1.7-4.1-3.4-8.3-5.3-12.3
	c-1.6-3.4-3.6-6.7-4.4-10.5c-0.2-0.8-0.5-1.6-1-2.3c-1.4-1.9-3-3.8-4.5-5.7c-1.9-2.3-3.9-4.4-5.6-6.9c-3.2-4.6-3-8.9,0.3-13
	c2.5-3.6,7.5-4.5,11.2-2c1.7,1.1,3.5,2.1,5.2,3.4c1.1,0.8,2,1.8,2.7,3c1.6,2.7,2,6,1,9c-0.8,3.3-2.4,6.4-4.6,9.1
	c-2.8,3.2-3.2,7.9-0.8,11.4c3.5,5.8,6.2,12,8.2,18.5c1.4,4.1,1.9,8.5,1.4,12.8c-0.3,2.2-0.5,4.4-0.7,6.6c-0.2,2.9-0.3,5.9-0.4,8.8
	C553.9,131.1,554.1,131.2,554.3,131.2L554.3,131.2z M593.1,83.3c4.4-0.9,8.2-2.7,10.6-6.8c1.9-3,2.2-6.8,0.8-10
	c-0.9-2.3-1.9-4.6-2.9-6.9c-0.4-0.8-0.8-1.5-1.2-2.2c-0.7-1.4-2.3-2.1-3.8-1.8c-4.9,0.6-8.7,2.9-10.4,7.6c-0.9,2.7-1.7,5.5-2.2,8.3
	c-0.7,3.3-1.3,6.5-2,9.8c-0.3,1.3-0.8,2.6-1.3,4.3C584.7,83.6,589,84.1,593.1,83.3L593.1,83.3z M500.4,212.1
	c1.4-7.2-2-12.4-7.5-16.3c-3.6-2.5-7.1-2.1-10.5,0.7c-1.5,1.3-3,2.5-4.5,3.8c-2.5,2.2-2.8,4.1-1.3,7.1c4,7.4,10.4,10.5,18.6,10.4
	c1.7,0,3.5,0,5.6,0.1C499.8,215.8,500,213.9,500.4,212.1z M571.8,46.9c2.6-3.7,3.6-7.7,1.8-12c-0.6-1.7-1.4-3.3-2.4-4.9
	c-0.8-1.2-1.9-2.2-3.1-2.9c-2.6-1.3-5.2-2.4-7.9-3.3c-1.8-0.7-3.8,0-4.8,1.6c-1.7,2.2-2.4,5-2,7.7c0.5,3.6,2.2,7,4.7,9.6
	c1.5,1.5,3,3,4.5,4.5c1.6,1.7,3,3.6,4.6,5.5C568.7,50.9,570.4,49,571.8,46.9z M574.8,212.3c2.5,3.4,4.9,6.9,7.5,10.2
	c0.7,0.7,1.5,1.3,2.5,1.4c6.4,1.2,15.3-1.1,17.2-10.6c1-5.4-2.1-9.1-7.6-9c-3.7,0.1-7.2,1.1-10.4,3c-0.8,0.4-1.6,0.9-2.3,1.5
	c-1.9,1.7-4.3,2.7-6.8,3C574.8,212,574.8,212.1,574.8,212.3z M593.4,191.6c5.2,1.3,9.5-0.1,13.4-3.7c3.6-3.3,4.2-7.2,2.5-11.6
	c-0.6-1.4-1.2-2.8-1.8-4.2c-0.4-1.1-1.5-1.8-2.7-1.8c-3.6-0.2-7.1,0.3-9.4,3.5c-1.5,2.1-2.8,4.3-4,6.6c-1.7,3.2-2.6,6.8-5.5,9.4
	C588.6,190.5,591,191,593.4,191.6L593.4,191.6z M545.1,71.2c1.8-2.5,3.1-5.4,3.9-8.4c0.7-2.5,0.3-5.2-1.1-7.4
	c-0.4-0.7-1-1.3-1.7-1.8c-2-1.4-4-2.7-6.1-4c-1.7-1.1-3.9-1.2-5.6-0.2c-3.4,1.6-5.6,6.2-4.3,9.7c0.6,1.8,1.5,3.5,2.7,5
	c3,4,6.2,7.8,9.4,11.6C543.1,74.2,544,72.7,545.1,71.2z M517.7,130.2c1.7-3.6,1.5-7.7-0.5-11.1c-0.8-1.4-2.1-2.5-3.6-2.9
	c-2.2-0.6-4.4-1.1-6.6-1.6c-1.1-0.3-2.2,0.1-2.9,0.9c-2.3,2.5-3.8,5.4-2.6,8.9c0.8,2.1,1.6,4.3,2.6,6.3c0.4,0.8,1,1.5,1.7,2.1
	c3.1,2.5,6.2,5,9.4,7.6C514.7,136.7,516.3,133.5,517.7,130.2L517.7,130.2z M568.7,165.3c3,4.5,9.7,5.6,14.4,2.4c3-2,4.9-4.8,4.8-8.6
	c0-1.1,0.1-2.1,0-3.2c-0.1-2.5-0.9-3.6-3.4-4.1c-3.4-0.8-7.1-0.3-10.2,1.3c-1.2,0.7-2.3,1.4-3.3,2.4c-1.8,1.5-3.5,3.1-5.4,4.8
	C566.6,161.9,567.6,163.6,568.7,165.3L568.7,165.3z M535.5,79.8c-1.3-2.2-3.4-3.8-6-4.2c-1.5-0.4-2.9-0.9-4.3-1.5
	c-2.6-1.1-6.2,0.4-7.1,3.1c-0.9,2.4-0.6,5.1,0.8,7.2c1.2,1.9,3,3.5,5,4.5c1.1,0.6,2.3,1.1,3.6,1.5c3.7,0.9,7.4,1.7,11.2,2.5
	C538.5,88.2,537.8,83.8,535.5,79.8L535.5,79.8z M581.7,139.8c3,0.7,6.2-0.2,8.4-2.3c2-1.9,3.4-4.4,3.8-7.1c0.4-1.9-0.3-3.9-1.8-5.1
	c-1.5-1.3-3-2.5-4.7-3.6c-1.9-1.5-4.6-1.4-6.3,0.3c-1.3,1-2.3,2.4-3,3.9c-1.4,3.8-2.3,7.8-3.5,11.8
	C577.1,138.4,579.3,139.3,581.7,139.8L581.7,139.8z M509.2,149.2c-0.2-2.4-1.1-4.8-2.5-6.7c-2.7-4.2-9.7-4.6-12.6-0.6
	c-0.2,0.2-0.4,0.5-0.6,0.7c-2.8,3.2-2.9,4.5-0.6,8.1c1.9,3.3,5.2,5.5,8.9,6c3,0.4,6,0.8,9.4,1.3
	C509.5,155.1,509.2,152.2,509.2,149.2L509.2,149.2z M745.2,176.6c1.8-4.8,1.2-9.8,0.8-14.7c-0.3-4.3-0.1-8.7,0.6-12.9
	c1.5-8.9,3.2-17.8,3.7-26.8c0.4-7.3,0.1-14.7-0.9-22c-1-6.9-2.4-13.7-3.6-20.6c-1.4-7.3-1.6-14.8-0.7-22.2
	c1.3-10.3,3.5-20.5,6.5-30.5c2.4-7.5,4.7-15.1,7-22.6c0.1-0.5,0.4-1,0.9-1.3c-0.1,0.7-0.1,1.4-0.2,2.2c-0.5,5.8-1.4,11.6-0.8,17.5
	c0.5,5.3,1.2,10.5,2,15.8c1.1,6.7,2.4,13.3,3.5,20c0.9,5.2,1.6,10.3,2.3,15.5c1,9,1.3,18,0.9,27c-0.5,15.4-4.1,30.2-9.4,44.6
	c-3,8.2-6.3,16.3-9.5,24.4c-0.6,1.5-1,3-1.5,4.5c-0.3,0.8-0.7,1.6-1,2.5L745.2,176.6z M747.2,164.8l0.5,0.1c0.1-0.9,0.3-1.8,0.4-2.6
	c1-8.9,2.8-17.7,5.4-26.3c2.7-9.4,4.4-19.1,5.1-28.9c1.3-13.3,0.4-26.8-2.6-39.8c-2.3-9.7-2.7-19.5-2.3-29.4
	c0.5-7.4,1.4-14.8,2.8-22.1c0.1-0.7,0.2-1.3,0.3-2l-0.5-0.1c-0.6,2-1.2,4.1-1.8,6.1c-3.4,10.8-6,21.8-7.9,33
	c-1.6,9.4-1.5,19,0.3,28.3c1.4,6.7,2.7,13.4,3.5,20.2c1.2,9.6,1.2,19.4,0,29c-1,7.1-2.2,14.3-3.3,21.4
	C746.7,156,746.7,160.5,747.2,164.8L747.2,164.8z M748.8,165.1c0.1,0,0.2,0.1,0.3,0.1c0.3-0.7,0.7-1.3,0.9-2
	c2.3-6.2,4.7-12.4,7-18.6c3.7-9.9,6.4-20.1,8-30.6c2.8-19.6,1.4-39.2-2.2-58.6c-1-5.2-1.9-10.5-2.8-15.7c-1.5-7-2.3-14.1-2.4-21.2
	c-0.1-0.4-0.3-0.8-0.5-1.1c-0.2,1-0.4,1.6-0.5,2.1c-1.2,6.8-2,13.7-2.2,20.6c-0.4,9.7,0.6,19.4,2.8,28.9c1.3,5.5,2.1,11,2.5,16.6
	c1,17.2-0.5,34.3-5.5,50.9c-2.6,8.8-4.4,17.9-5.4,27C748.9,164.1,748.9,164.6,748.8,165.1L748.8,165.1z M758.9,210.2
	c1.9-0.5,3.8-1,5.7-1.5c6.6-2,12.5-5.6,18.3-9.1c10.9-6.7,20-15.3,28.2-25c6.7-7.8,12.6-16.2,17.5-25.2c3.7-6.9,8.3-13.3,13.7-19
	c0.9-0.9,1.7-2,2.3-3.2c-0.5,0.4-1.1,0.8-1.6,1.2c-10.8,9.1-20.4,19.3-28.9,30.6c-14.2,19.1-32.2,35-52.9,46.8
	c-5.9,3.4-12.2,6.3-18.6,8.6c-2.3,0.8-4.6,2-6.9,3c-0.7,0.3-1.2,0.9-2.3,0.3c1.5-1,2.9-1.8,4.3-2.7c2.3-1.6,4.6-3.3,6.7-5.1
	c5.7-5.4,11.7-10.4,18-15c8.1-6,14.3-13.6,19.9-21.7c3.4-4.9,6.7-9.8,11.2-13.8c5-4.2,10.4-7.9,16.2-11c11.2-6.1,22-12.9,32.3-20.4
	c1.8-1.3,3.4-2.7,5.2-4c1.5-1.1,3-2,4.7-2.7c-1.9,2-3.8,3.9-5.7,5.9c-7.2,7.6-13.4,16.2-18.5,25.3c-10.7,18.7-24.4,34.8-42.5,46.8
	c-4.8,3.1-9.9,5.9-15.1,8.4c-3.3,1.6-6.8,3-10.7,3c-0.2,0-0.4-0.1-0.6-0.1C758.9,210.4,758.9,210.3,758.9,210.2L758.9,210.2z
	 M834.1,134.9c-0.1-0.1-0.1-0.2-0.2-0.2c-0.3,0.2-0.6,0.3-0.9,0.5c-2.5,1.7-5,3.4-7.6,4.9c-6.8,4.1-13.6,8-20.4,12.1
	c-6,3.6-11.6,7.8-16,13.4c-1.9,2.5-3.7,5-5.5,7.6c-6,8.6-12.6,16.8-21.3,23c-6.7,4.9-13,10.3-19,16c-0.3,0.3-0.5,0.6-0.8,0.9
	c3.8-1.3,7.4-2.7,11-4.5c12.3-6,23.8-13.6,34-22.7c10.3-9.2,19.9-19,28-30.2c5.1-7.1,10.9-13.7,17.5-19.5
	C833.4,135.8,833.8,135.4,834.1,134.9L834.1,134.9z M802.6,296.8c-0.6,0.1-1.3,0.3-1.9,0.3c-6.8,0.5-13.6,1.4-20.3,2.9
	c-11.7,2.5-23.5,4.7-35.6,5c-13,0.2-26-2.1-38.1-6.9c-7.1-2.8-14.6-4.8-22.3-5.7c-4.6-0.5-9.2-1.5-13.8-1c-2.2,0.2-4.3,0.3-6.4,0.5
	c4-1.6,8.1-3.3,12.1-5c3.6-1.6,7.4-2.8,11.3-3.4c5.2-0.8,10.4-1.6,15.6-2c8.7-0.8,17.3,0.3,25.8,2c1.4,0.3,2.9,0.4,4.3,0.8
	c10.2,2.4,20.7,3.6,31.2,3.7c11.1,0.1,21.6,3,31.9,7c1.1,0.4,2.3,0.7,3.5,0.9c0.9,0.2,1.8,0.3,2.7,0.5
	C802.7,296.4,802.6,296.6,802.6,296.8z M676.3,288.2c2.6-0.4,5.2-1.1,7.8-1.3c9.8-1.1,19.6-0.2,29.1,2.4c9.5,2.9,19.3,5.1,29.1,6.6
	c8.9,1.5,18,1.9,27,1.2c6-0.5,11.9-1.1,17.9-1.5c2.4-0.2,4.9-0.2,7.7-0.3c-0.3-0.2-0.6-0.4-0.9-0.6c-0.5-0.2-1-0.4-1.5-0.6
	c-9.2-2.7-18.4-5.3-28.1-5.4c-8,0.1-16-0.6-23.8-2.1c-5.7-1.2-11.5-2.3-17.3-3.2c-4-0.6-8.1-1-12.2-1.3c-6.3-0.2-12.6,0.2-18.8,1.3
	C686.9,284.4,681.3,285.4,676.3,288.2L676.3,288.2z M675.4,289.8c0.1,0.1,0.2,0.3,0.4,0.4c0.3,0,0.6,0,0.9,0.1
	c10.8,1.2,21.3,3,31.5,7.1c16.4,6.7,33.5,7.8,50.9,5.6c6.2-0.8,12.2-2.3,18.4-3.3c4.3-0.8,8.7-1.5,13-2.2c2.1-0.3,4.3-0.6,6.5-0.8
	c-0.7-0.3-1.5-0.5-2.2-0.4c-6.1,0.4-12.3,0.6-18.4,1.2c-7.7,0.9-15.4,1.1-23.2,0.6c-12-1-23.8-3.2-35.4-6.6
	c-9.6-2.8-19.3-4.6-29.4-4C683.9,287.7,679.6,288.5,675.4,289.8L675.4,289.8z M669,123.3c0.4,2.9,0.8,5.8,1.1,8.7
	c0.7,6.1,1.9,12.2,3.8,18c1.7,5.4,3.7,10.6,5.9,15.8c2.4,5.3,5.3,10.4,8.2,15.5c3.9,6.9,6.9,14.2,9,21.8c3.2,12.4,2.4,24.7-0.3,37
	c-0.9,4.2-3.1,7.9-5.3,11.6c0-0.5-0.1-0.9,0-1.4c0.3-5.9,0.9-11.8,1-17.7c0.1-6.7-1.7-13.2-5.4-18.8c-3.2-5.1-6.6-10.2-10-15.2
	c-5-7.7-8.3-16.3-9.9-25.3c-1.1-6.3-1.6-12.7-1.4-19c0-7.8,0-15.6,0.4-23.4c0.3-3.9,0.9-7.8,1.8-11.7c0.1,0.5,0.1,0.9,0.1,1.4
	c0.3,9.2,0.3,18.3,0.8,27.5c0.4,6.5,2.4,12.8,4.6,19c2.7,7.2,7.1,13.4,10.9,19.9c4.4,7.4,7.5,15.4,9.2,23.9
	c1.5,7.5,2.1,15.2,1.8,22.8c-0.1,2.3-0.6,4.7-0.9,7c-0.1,1-0.3,2-0.4,3l0.5,0.1c0.6-1.5,1-3,1.4-4.5c1.9-8.2,2.6-16.7,2.2-25.1
	c-0.1-1.7-0.4-3.3-0.7-5c-0.5-2.6-1.1-5.2-1.7-7.8c-1.2-4.9-3-9.6-5.3-14c-2.9-5.6-6.1-11-9-16.6c-2.6-4.9-4.7-10-6.3-15.3
	c-1.1-3.4-2.2-6.8-3.1-10.2c-1.6-6.8-2.7-13.7-3.1-20.7c0-0.4,0-0.9,0.1-1.3L669,123.3z M667,133.4l-0.4,0c-0.1,0.7-0.2,1.3-0.2,2
	c0,4.3-0.1,8.6,0,13c0.2,8.4,0.1,16.8,1.6,25.1c1.4,7.9,4.2,15.6,8.4,22.5c3.6,5.8,7.5,11.4,11.1,17.2c2,3.2,3.6,6.7,4.5,10.4
	c0.9,3.5,1.3,7.2,1.2,10.8c0,1.5,0,2.9,0,4.4c0.1,0,0.3,0,0.5,0c0.2-1.1,0.4-2.2,0.5-3.3c0.6-8.1,0-16.2-1.6-24.2
	c-1.7-8.7-5-17.1-9.7-24.7c-4.4-7.1-8.9-14.1-11.6-22.1c-1.6-4.6-2.7-9.3-3.3-14.2c-0.6-5-0.6-10.1-0.9-15.2
	C667.1,134.5,667,133.9,667,133.4z M708.8,253.2c7.5-5.8,14.7-11.5,23.6-14.5c6-2.1,12.4-3,18.8-2.9c3.1,0.1,6.2-0.2,9.3-0.4
	c1.1-0.1,2.1-0.4,3.1-0.8c8.9-3.8,18.7-5.2,28.3-4.2c4.8,0.5,9.7,0.8,14.5,1c6.9,0.1,13.8-0.5,20.6-1.7c2.9-0.5,5.8-0.8,8.7-1.2
	l0.2,0.5c-1.4,0.6-2.7,1.4-4.2,1.9c-2.3,0.8-4.7,1.2-6.9,2.2c-7.6,3.4-15.1,6.8-22.5,10.4c-13.9,6.6-28.3,9.4-43.6,6.8
	c-7.6-1.3-15.2-2.4-22.9-2.2c-6.7,0.1-13.3,0.8-19.7,3.1c-1.2,0.4-2.3,0.9-3.3,1.4C711.6,253.3,710.2,253.6,708.8,253.2L708.8,253.2
	z M824.3,232.1c0-0.1-0.1-0.2-0.1-0.3c-1.2,0.2-2.3,0.5-3.5,0.7c-7.8,1.4-15.5,3.4-22.9,6c-7.6,2.5-15.4,4.4-23.4,4.3
	c-7-0.1-13.9-0.8-20.9-1.4c-6.8-0.5-13.5-0.8-20.1,1.1c-4.8,1.3-9.5,2.6-13.9,4.9c-1.1,0.6-2.1,1.3-3.1,1.9c0.4,0.2,0.9,0.3,1.3,0.1
	c6.7-2.2,13.6-2.4,20.5-2.5c6.5,0,13.1,0.7,19.5,2c15.2,2.7,29.6,0.4,43.5-6.1c5.2-2.5,10.5-4.8,15.7-7.2
	C819.2,234.5,821.7,233.3,824.3,232.1z M816.6,232.4c0-0.1,0-0.3-0.1-0.4c-6.8,0.6-13.6,0.5-20.4-0.2c-3.8-0.4-7.7-0.5-11.6-0.6
	c-5.3-0.2-10.7,0.7-15.6,2.7c-6.1,2.4-12.6,3.5-19.2,3c-3.6-0.2-7.3,0.1-10.8,1.1c-3.2,0.9-6.4,1.9-9.5,3.1
	c-2.2,0.8-4.3,2.1-6.5,3.1c0.5,0.2,1.1,0.2,1.7,0c7.2-2.6,14.5-4.6,22.3-4c6.6,0.4,13.2,1,19.8,1.6c8,0.7,16,0.1,23.7-2
	c1.4-0.4,2.8-0.8,4.2-1.2c5.6-1.6,11.2-3.3,16.9-4.9C813,233,814.8,232.8,816.6,232.4L816.6,232.4z M643.5,172.3
	c-0.3,1.6-0.4,3.1-0.8,4.7c-2.9,12.7-3.7,25.7-2.3,38.7c0.5,3.9,1.2,7.8,2.1,11.6c1.4,6.2,3.2,12.2,4.3,18.4
	c1.4,7.1,1.6,14.4,0.5,21.5c-0.4,2.9-1.3,5.8-2.7,8.4c-3.3,5.8-7,11.4-10.6,17c-0.7,0.9-1.5,1.8-2.3,2.6c-0.2-0.1-0.4-0.3-0.6-0.4
	c0.3-0.2,0.6-0.4,0.9-0.7c3.3-5,6.6-10,9.9-15c4.6-7.1,5.6-15,5.2-23.2c-0.2-5.5-1-10.9-2.4-16.2c-1.5-5.5-3-11-4-16.6
	c-0.8-4.9-1.3-9.9-1.5-14.9c-0.5-7.9,0-15.8,1.5-23.6c0.1-0.5,0.1-0.9,0.1-1.4c-0.2,0.1-0.3,0.1-0.5,0.3
	c-3.8,10.6-6.9,21.4-8.2,32.6c-0.6,6.9-0.1,13.8,1.6,20.6c1.4,5.8,2.8,11.5,4.1,17.3c1.5,6.9,1.8,14,0.9,21c-1,7-3.7,13.7-7.8,19.5
	c-0.6,0.9-1.4,1.7-2.1,2.6c-0.1-0.1-0.3-0.1-0.4-0.2c0.1-0.9,0.3-1.7,0.5-2.5c2.6-5.5,2.4-11.4,2.1-17.2c-0.4-7.8-2.5-15.3-6.1-22.2
	c-4.3-8.5-5.7-17.3-2.9-26.5c1.9-6.3,4.2-12.6,6.5-18.7c4-10.4,8.2-20.6,12.2-31c0.9-2.2,1.6-4.4,2.4-6.6L643.5,172.3z M634.6,197.8
	l-0.3-0.1c-0.2,0.5-0.5,1-0.7,1.6c-2.9,7.4-5.8,14.9-8.5,22.4c-1.1,3.1-2,6.2-2.7,9.4c-1.8,7.9-0.6,15.5,3,22.8
	c1.8,3.5,3.3,7.2,4.5,10.9c1.9,6.1,2.6,12.5,2.2,18.9c-0.2,2.7-0.5,5.3-0.7,8.4c0.6-1,1-1.6,1.4-2.2c5.8-10.1,6.8-21,4.9-32.2
	c-1.3-7.6-3.3-15-5-22.5c-0.9-4.1-1.5-8.2-1.6-12.4c-0.2-7.6,1.3-14.9,3.1-22.2C634.2,199.6,634.4,198.7,634.6,197.8z M631.3,312.7
	c0.4,0,0.8,0,1.2,0.1c6.3,2.6,12.9,2.5,19.5,2.4c5.8-0.1,11.5-0.6,17.3-0.3c4.5,0.3,8.9,0.9,13.3,1.8c4.9,1,9.2,3.5,13.2,6.4
	c8.5,6.3,17.9,11.3,27.8,15.1c1.5,0.5,2.9,1.1,4.2,1.8c-2.8,0.1-5.6,0.4-8.4,0.3c-5.6-0.1-11.2-0.3-16.8-0.8
	c-11.9-0.8-23.4-4.5-33.6-10.7c-1-0.6-2-1.1-3-1.7c-6.6-4.4-14.1-7.3-22-8.5c-4.1-0.6-7.7-2.7-11.5-4.2c-0.6-0.3-1.1-0.7-1.5-1.2
	L631.3,312.7z M718.1,339.6c0-0.2,0-0.3,0.1-0.5c-0.7-0.1-1.3-0.3-2-0.4c-10.7-1.5-21-5.4-30-11.4c-8.7-5.9-18.9-9.2-29.4-9.5
	c-5.5-0.1-10.9-0.7-16.3-1.6c-0.2,0-0.4,0-0.7,0.1c1.7,0.8,3.6,1.4,5.5,1.7c7,1.1,13.7,3.7,19.7,7.4c1.3,0.8,2.7,1.5,3.9,2.3
	c11.2,7.1,23.6,10.4,36.7,11.3C709.8,339.3,713.9,339.4,718.1,339.6L718.1,339.6z M651.5,316.5c0.7,0,1.5,0.1,2.2,0.1
	c4,0.4,8,0.6,12,1.3c8.2,1.6,16.1,4.9,23,9.7c3.9,2.7,8.2,4.9,12.8,6.5c6.3,2.1,12.7,3.6,19.3,4.4c0.4,0.1,0.8,0,1.6,0.1
	c-0.3-0.2-0.5-0.4-0.8-0.6c-9.9-3.9-19.3-9.1-27.9-15.4c-4.1-2.8-8.7-4.8-13.6-5.7C670.6,314.8,661,315.9,651.5,316.5L651.5,316.5z
	 M702.7,66.9c0.1,4.4,0,8.9,0.3,13.3c0.5,7.2,1.1,14.4,3.6,21.2c1.7,4.3,3.7,8.5,5.9,12.5c3.3,6.5,6.6,12.9,9.9,19.5
	c0.9,1.8,1.6,3.8,2.2,5.7c1.7,6,3.6,12,4.8,18.1c2.2,10.6,2.9,21.4,1.9,32.1c-0.4,4.1-1.3,8.1-1.9,12.1c-0.2,1.1-0.2,2.3-0.3,3.4
	c-0.1,0.8-0.1,1.6-0.1,2.4c-0.2,0-0.3,0-0.5,0c-0.1-1.3-0.1-2.6-0.2-3.8c-0.5-6.9-0.8-13.8-1.5-20.6c-0.7-6.7-2.6-13.1-4.8-19.4
	c-3.3-9.9-8.5-18.9-13.2-28.2c-3.4-6.6-5.8-13.6-7.1-20.8c-1.3-7.6-1.7-15.2-1.2-22.9c0.5-7.5,1-15,1.5-22.5
	c0.1-0.7,0.2-1.5,0.4-2.2L702.7,66.9z M702.3,81.6c-0.1,0-0.2,0-0.4,0c0,0.3-0.1,0.6-0.1,0.9c-0.4,9.5-1.1,19,0.3,28.4
	c0.7,4.6,1.7,9.1,3.2,13.5c2.1,6.2,4.9,12.1,8.2,17.8c3.8,6.6,6.9,13.5,9.5,20.7c3.4,9.3,5.3,19.1,5.8,28.9c0.1,2,0.3,4,0.5,6
	c0.5-0.9,0.8-2,0.9-3.1c1.9-17,0.2-34.1-4.9-50.4c-1.3-4.3-2.8-8.5-4.7-12.6c-3-6.3-6.2-12.5-9.6-18.6c-4.5-7.7-7.2-16.3-8-25.2
	C702.8,85.8,702.5,83.7,702.3,81.6z M729.9,340.4c-2.6,0.5-4.7,1-6.8,1.3c-6.6,0.9-13.2,2.2-19.9,2.5c-13.3,0.5-26.5-2.4-38.4-8.4
	c-4.6-2.4-8.8-5.5-12.4-9.2c-3.9-3.9-8.6-6.9-13.8-8.7c-3.3-1.3-6.6-2.7-9.8-4.4c-5.3-2.7-11.3-3.3-17.1-2
	c-15.3,3.2-30.2,7.7-45.1,12.5c-8.1,2.6-16.2,5.4-24.1,8.4c-13.9,5.1-26.7,12.7-37.9,22.4c-0.7,0.7-1.5,1.3-2.4,1.8
	c-0.8,0.4-1.7,0.7-2.6,0.9c-0.9,0.3-1.9-0.1-2.3-1c-0.2-0.8,0-1.6,0.5-2.2c1-1,2.1-1.9,3.4-2.7c5.9-3.9,11.8-7.9,17.9-11.4
	c15.1-9.2,31.6-15.8,48.9-19.8c14.1-3.7,28.2-7.6,42.4-11.1c5.1-1.2,9.6-4,13-8c3.8-4.3,5.3-9,3.9-14.7c-2-8.4-5-16.6-8.9-24.4
	c-1.9-3.9-3.5-7.9-4.8-12.1c-1.9-5.9-2.3-12.2-1.1-18.3c1.5-8.9,4.9-17.1,9.2-24.9c2.5-4.5,5.1-9,7.9-13.3
	c5.1-7.8,9.9-15.7,13.4-24.3l0.5,0.1c0,1,0.1,2,0,2.9c-0.6,9.6-0.5,19.1,0.3,28.7c1,10.2,2.8,20.3,5.7,30.2
	c2.9,10.1,3.2,20.9,0.8,31.1c-3.4,14.4-10.1,27-21.6,36.7c-1.9,1.6-3.7,3.5-5.5,5.3c0.1,0.2,0.2,0.3,0.3,0.5
	c2.4-0.9,4.8-1.7,7.2-2.6c19.8-7.9,37.9-19.2,53.6-33.6c2.1-1.9,3.7-4.3,4.5-7c2-6.8,2.4-14,1.3-21c-1.1-8.1-4.2-15.8-8.9-22.5
	c-3.5-4.9-7-9.7-10.7-14.5c-3-3.6-5.7-7.5-8-11.6c-3.3-6.2-4.4-12.9-4.7-19.8c-0.3-8.3,0.6-16.6,2.4-24.7c1.4-6.5,3-12.9,4.4-19.3
	c0.7-3,1.2-6,1.8-8.9c0.1-0.7,0.3-1.4,0.5-2.1c0.2,0,0.4,0,0.5,0c0.2,0.7,0.4,1.5,0.6,2.2c0.4,2.8,0.9,5.5,1.6,8.3
	c1.5,4.9,3.3,9.8,5.1,14.7c2.9,7.9,7.6,14.9,11.6,22.2c7.1,12.6,11.1,26.2,14.1,40.1c2.2,10.2,1,20.4-1.8,30.5
	c-1.2,4.2-2.8,8.2-4.1,12.3c-1.5,4.8-2.9,9.6-4.3,14.4c0.1,0.1,0.3,0.2,0.4,0.3c0.5-0.3,0.9-0.6,1.3-0.9
	c12.7-12.4,23.7-26.4,32.6-41.8c0.6-1,0.9-2.1,1.1-3.2c1-6.4,1-12.9,0.1-19.3c-0.3-2.1-0.9-4.1-1.8-6.1c-3.5-8.3-8.8-15.4-13.7-22.8
	c-7.5-10.9-12.9-23-15.9-35.9c-2.8-11.8-2.8-24.1-0.3-36c1.4-6.3,3.2-12.5,4.8-18.8c1.6-5.6,2.7-11.2,3.3-17c0-0.3,0.1-0.6,0.2-0.9
	c0.1-0.2,0.3-0.3,0.5-0.4c0.1,0.6,0.2,1.2,0.3,1.7c0.5,4.5,0.9,9.1,1.6,13.6c1,5.9,2.6,11.6,4.9,17.1c4.1,10.4,9.6,20.2,14.6,30.2
	c3.8,7.8,6.7,16,8.6,24.5c1.5,5.6,2.3,11.3,2.5,17.1c0,3.3-0.2,6.5-0.6,9.8c-1.2,8.3-2.7,16.5-4,24.8c-0.6,4.1-1.1,8.3-1.6,12.4
	l0.4,0.2c0.3-0.3,0.6-0.7,0.8-1.1c4.7-9.3,8.8-18.9,12.3-28.7c1.9-5.3,1.7-10.8,1.2-16.2c-0.5-5.7-1.4-11.5-2-17.2
	c-0.7-7.3,0.1-14.6,0.7-21.8c0.8-9,1.1-18.1-0.2-27.1c-0.8-5.3-1.8-10.5-2.6-15.7c-1.5-8.9-1.6-17.9-0.3-26.8
	c1.9-12.7,6.1-24.6,11.4-36.2c2.6-5.7,5.1-11.5,7.6-17.3c0.2-0.4,0.5-0.8,0.8-1.1c0.3,1.1,0.5,1.8,0.7,2.5c1,6.8,1.9,13.5,3.1,20.3
	c0.6,3.3,1.5,6.5,2.3,9.8c1.7,6.7,3.5,13.4,5,20.2c7,32.1,4.1,63.2-9.9,93c-4.1,8.7-8.3,17.3-12.1,26.1s-7.1,17.8-11,26.6
	c-3,6.7-6.5,13.1-9.7,19.6c0,0.2,0,0.4,0,0.7c0.9-0.6,1.7-1.1,2.5-1.6c11.7-7.2,21.6-17,28.7-28.8c2.4-4,5-7.8,7.3-11.8
	c10.6-18.1,25.8-30.9,44.8-39.4c3.9-1.7,7.9-3.2,12-4.5c9.9-2.9,19.4-7.2,28.1-12.8c0.6-0.4,1.3-0.6,2-0.5c-0.6,0.8-1.2,1.7-1.9,2.5
	c-4.4,5.2-8.1,11-11.1,17.2c-7.1,14.1-15.1,27.8-23.9,41c-7,10.6-17.4,18.6-29.5,22.6c-2.5,0.9-5,1.7-7.6,2.4
	c-12.3,3.4-24.7,6.6-37,10.1c-5.4,1.4-10.5,3.6-15.2,6.7c-1.6,1.1-2.9,2.4-4,4c-6.8,10.5-14.4,20.4-22.9,29.5
	c-0.3,0.3-0.5,0.7-1.2,1.5c6.4-2.5,12.2-6.5,16.8-11.6c4.1-4.8,9.3-8.5,15.1-10.7c2.2-0.7,4.5-1.4,6.8-1.9c4.5-1.1,9.1-2,13.5-3.4
	c4.2-1.4,8.3-3.4,12.4-5.2c7.3-3.1,15.2-4.7,23.1-4.5c10.1-0.1,20.2,1.4,29.9,4.5c6.8,2.4,14.1,3.4,21.3,3c0.3,0.1,0.7,0.2,1,0.4
	c-0.3,0.5-0.8,0.9-1.2,1.2c-9.9,4-19,9.6-28.1,15c-9,5.4-18.7,9.6-28.9,12.3c-11.2,3-23.1,3-34.3-0.1c-5.3-1.4-10.5-3-15.9-4.3
	c-9-2.3-17.3-0.2-25.1,4.5c-2.7,1.6-5.5,2.9-8.4,4c-1.5,0.6-2.8,1.4-4,2.5c-9,9-18.9,17.2-29.6,24.2c-2.3,1.5-4.8,3-7.1,4.5
	c-0.7,0.4-1.2,0.9-1.6,1.5c4.2-1.8,8.3-3.7,12.5-5.4c4.6-2,9.2-4.1,13.9-5.7c6.9-2.2,14.1-3.3,21.4-3.2c3.3,0,6.5,0.1,9.8,0.4
	c6.2,0.3,12.5-0.1,18.6-1.2c6.4-0.9,12.8-2,19.3-1.4c6.2,0.6,12.3,2.1,18.1,4.4c8,3.1,15.9,6.5,23.9,9.7c4.2,1.7,8.4,3.2,12.6,4.8
	c0.4,0.2,0.8,0.4,1.2,0.6c-0.4,0.2-0.8,0.4-1.2,0.6c-7.5,1.6-14.5,4.4-21.6,7.3c-6.4,2.5-13,4.3-19.8,5.2
	c-8.1,1.2-16.2,1.7-24.3,1.4c-8.7-0.4-17.4-1.8-25.9-4.2c-5.7-1.5-10.8-4.5-15.7-7.8c-7.1-4.7-15.4-7.2-23.9-7.1
	c-4.1,0.1-8.2,0.6-12.2,1.6c-4.3,0.8-8.5,1.8-12.6,3.1c-2.8,0.9-5.5,2.3-8.2,3.4c-5.3,2.2-10.5,4.3-15.8,6.5
	c-1.6,0.7-3.2,1.3-4.9,1.9c0,0.1,0.1,0.2,0.2,0.3c3.6,0.9,7.3,1.7,10.9,2.6c5.8,1.5,11.6,1.3,17.5,0.8c7.3-0.6,14.7-1.3,22.1-1.6
	c14.1-0.6,26.5,4.1,37.4,12.8c4,3.2,7.9,6.5,11.9,9.6c2.9,2.2,6,4.2,9,6.3C728.9,339.6,729.2,339.8,729.9,340.4z M746.1,171.8
	c0.3-0.3,0.6-0.6,0.8-0.9c4.5-9.7,9.2-19.2,13.4-29c8.4-19.2,12.7-39.3,11.7-60.4c-0.7-14-2.9-27.9-6.6-41.3
	c-3-10.1-4.9-20.4-5.8-30.9c-0.1-1.5-0.3-3.1-0.4-4.6c-1.1,2.3-2.2,4.6-3.1,6.9c-2.7,6.5-5.6,12.8-8.1,19.4
	c-7.2,18.8-9.7,38-5.2,57.9c1.4,6.2,2.2,12.4,2.3,18.8c0.1,8.3-0.3,16.6-1.2,24.8c-0.6,6.5-0.5,13.1,0.3,19.6
	c0.6,5.1,1.2,10.1,1.7,15.2C746.1,168.6,746.1,169.9,746.1,171.8z M848.3,124l-0.2-0.3c-0.3,0.2-0.6,0.3-1,0.5
	c-7.4,4.6-15.4,8.2-23.8,10.7c-5.8,1.8-11.4,4.1-16.8,6.9c-13.7,7.1-25.5,16.5-34.3,29.3c-3.7,5.5-7.2,11.1-10.6,16.7
	c-6.3,10.3-13.7,19.5-23.6,26.6c-0.3,0.2-0.5,0.5-0.7,0.8c1.9-0.5,3.8-1,5.6-1.5c12.5-3.4,25-6.7,37.4-10.1
	c5.3-1.4,10.4-3.5,15.2-6.2c9.1-5,15.9-12.3,21.4-21c7.9-12.6,15.6-25.4,22.4-38.7c1.4-2.6,2.9-5.2,4.5-7.7
	C845.2,128.1,846.8,126.1,848.3,124L848.3,124z M802.1,296.7c-7.8-2.5-14.8-6.2-22.2-9c-5.6-2.2-11.3-4.1-17-6.1
	c-9.4-3.2-19.1-3.5-28.8-1.8c-8.2,1.6-16.5,2.1-24.7,1.5c-11.7-0.9-23.1,0.5-33.9,5.2c-3.1,1.4-6.3,2.7-9.4,4.1
	c0.6,0.2,1.3,0.3,1.9,0.1c5.2-0.7,10.5-0.5,15.6,0.8c5.9,1.3,11.5,3.7,16.5,7.1c4.7,3.3,9.9,5.7,15.5,7.1c4.7,1.1,9.5,2.1,14.3,2.8
	c10.1,1.5,20.2,1.1,30.3-0.1c9.1-1.1,18-3.4,26.4-6.8c4.4-1.8,9.1-2.9,13.7-4.3C800.8,297.1,801.4,296.9,802.1,296.7L802.1,296.7z
	 M629.2,295.9c0.7-0.5,1.4-1.1,2-1.7c1.7-1.9,3.5-3.8,5-5.9c8.6-11.1,13.5-24.6,13.9-38.6c0.3-6.5-1.1-12.7-2.5-18.9
	c-1.6-7.2-3.4-14.4-4.5-21.7c-1.6-10.8-1.8-21.7-0.8-32.5c0-0.5,0-0.9-0.1-1.4c-0.5,0.6-0.9,1.3-1.2,2c-1.8,3.4-3.5,6.9-5.4,10.3
	c-2.1,3.6-4.4,7.1-6.6,10.6c-4.8,7.6-8.8,15.6-11.9,24.1c-1.9,5.3-3,10.9-3.2,16.5c-0.2,7.4,2.2,14.3,5.4,20.8
	c4.7,8.9,8.1,18.4,10.2,28.2c0.5,2,0.5,4.1,0,6.1C629.4,294.4,629.3,294.9,629.2,295.9z M833.7,229.8c0-0.1-0.1-0.3-0.1-0.4
	c-0.4,0-0.7-0.1-1.1-0.1c-5.7-0.6-11.4-1.2-16.8-2.9c-9.6-3.1-19.5-4.1-29.5-4.1c-7.6-0.1-15.2,1.4-22.2,4.4
	c-3.8,1.7-7.6,3.6-11.5,4.9c-4.8,1.6-9.6,2.8-14.6,3.7c-6.2,1.2-12,4-16.9,8.1c-2.6,2.3-5.1,4.9-7.4,7.5c0.9-0.1,1.2-0.1,1.6-0.2
	c5.3-1.4,10.8-1.3,16,0.1c5,1.3,10,2.7,15,4.1c11.1,3.1,22.7,3.1,33.8,0.2c10.2-2.6,19.5-7.1,28.7-12.2c6.2-3.4,12.3-6.8,18.6-10.2
	C829.4,231.5,831.6,230.7,833.7,229.8L833.7,229.8z M702.8,69.9c-0.2,0.2-0.3,0.4-0.4,0.7c-2.2,9-4.5,18-6.4,27.1
	c-2.4,11.8-2.1,24,0.8,35.7c3.1,12,8.2,23.3,15.2,33.5c3.7,5.5,7.3,11,10.7,16.7c2.4,4.1,4.7,8.4,5.3,13.3c0.1,0.7,0.2,1.5,0.3,2.2
	c0.3-0.3,0.5-0.7,0.6-1.1c1.5-8.8,2.9-17.5,4.3-26.3c0.4-2.3,0.5-4.5,0.5-6.8c-0.2-12.7-3.5-24.7-8.2-36.3
	c-2.6-6.5-6.1-12.6-9.2-18.8c-3.7-7.2-6.9-14.7-9.6-22.4C704.8,81.6,703.5,75.8,702.8,69.9z M692.9,246c0.3-0.4,0.5-0.8,0.7-1.2
	c3.6-9.3,5.9-18.8,6-28.9c0-7.2-1.2-14.4-3.5-21.3c-2-6.4-3.9-12.8-6.5-19c-2.5-5.7-5.3-11.3-8.6-16.6c-5.9-9.8-10.2-20.4-12.8-31.6
	c-0.3-1.5-0.6-3.1-0.9-5.1c-0.2,0.4-0.4,0.8-0.5,1.2c-1.6,7.7-3.1,15.5-4.7,23.2c-1.9,8.4-2.7,17-2.5,25.6
	c0.3,6.4,1.3,12.7,4.3,18.5c2.2,4.1,4.8,7.9,7.9,11.4c4.3,5.2,8.3,10.7,12,16.4c4.1,6.3,6.9,13.3,8.2,20.6
	C692.5,241.4,692.6,243.6,692.9,246z M727,339.9c-2.7-1.8-5.4-3.4-8-5.3c-4.6-3.4-9-7.1-13.5-10.5c-9.1-6.8-19.1-10.9-30.5-11.5
	c-6.5-0.3-12.9,0.3-19.3,0.9c-6.3,0.6-12.5,1.4-18.9,0.9c-0.4,0.1-0.8,0.2-1.2,0.4c2,0.8,3.6,1.4,5.1,1.9c4.6,1.6,8.8,4.2,12.3,7.7
	c0.7,0.7,1.4,1.4,2.2,2c5.7,5.4,12.6,9.4,20.2,11.7c12.2,3.8,24.6,5.6,37.4,3.7C717.4,341.2,722.2,340.5,727,339.9z M359.7,443.1
	c-0.2,0.1-0.3,0.1-0.4,0.2c-0.4-0.7-0.8-1.3-1.2-2c-3.3-7.4-8.4-13.5-13.6-19.7c-1.3-1.6-2.7-3-4.2-4.4l-0.1-0.1
	c-1.5-1.6-3.2-3.1-4.8-4.5c-5.8-5-11.7-9.9-17.6-14.8c-4.5-3.6-8.8-7.4-12.8-11.5c-4.3-4.6-7.5-10.1-10.7-15.6
	c-3.2-5.6-7.1-10.8-11.6-15.5c-3.3-3.4-6.8-6.8-10.3-10.1c-4.8-4.5-10.1-8.5-15.8-11.9c-3.5-2.1-7.1-4.2-10.6-6.3
	c-2.7-1.6-5.4-3.2-8.1-4.8c-1.1-0.6-2.1-1.3-3.2-1.9c0.1,0,0.2-0.1,0.3-0.1c0.4-0.3,1-0.3,1.4,0c1.4,0.6,2.7,1.3,4.2,1.8
	c0.1,0,0.1,0,0.2,0c13.5,4.4,27,8.7,40.6,13c7.3,2.1,14.5,4.9,21.3,8.4c7.3,3.9,13.9,9.1,19.5,15.2c4.5,5.1,8.3,10.9,11.1,17.1
	c6,12.8,10.5,26.2,14.6,39.7c1,3.5,2.2,6.8,3.8,10.1c1.3,2.7,2.8,5.3,4.6,7.8c1.1,1.6,2,3.4,3.1,5.4c-0.4-0.1-0.7-0.1-1.1-0.2
	C358.6,439.9,359.1,441.5,359.7,443.1z M347.8,419.5c-4.4-14.2-8.8-28.3-15-41.9c-7-16.5-20.2-29.5-36.8-36.2
	c-5.5-2.4-11.4-4.2-17.1-6.1c-8.5-2.8-16.9-5.4-25.4-8.1c-0.7-0.2-1.3-0.5-2-0.7c-0.1,0.1-0.2,0.2-0.2,0.3c0.6,0.3,1.2,0.7,1.9,1
	c10.3,5.1,20.6,10.1,30.9,15.3c7.5,3.9,14.6,8.4,21.2,13.6c5.7,4.6,10.8,9.9,15.2,15.9c6.7,8.8,11.3,18.8,16.2,28.6
	c3,5.9,6.3,11.6,9.5,17.4c0.4,0.7,1,1.3,1.7,1.7C347.9,420.1,347.9,419.8,347.8,419.5L347.8,419.5z M346.1,420
	c-2.8-4.8-5.7-9.5-8.2-14.3c-3.5-6.5-6.6-13.2-10.1-19.7c-3.7-7.1-8.3-13.6-13.7-19.6c-5.5-5.8-11.7-10.9-18.5-15.1
	c-10.7-6.9-22.1-12.5-33.6-18c-3.9-1.9-7.9-3.7-11.8-5.6c-0.1,0.1-0.2,0.3-0.3,0.4c1.8,1.1,3.5,2.2,5.3,3.3
	c7.1,4.1,13.7,9.1,19.6,14.8c2.6,2.5,5.3,5,7.8,7.6c5.6,5.8,10.4,12.4,14.2,19.5c3.3,5.9,7.4,11.3,12.4,16c4.5,4.1,9.3,7.8,14,11.7
	c3.8,3.1,7.6,6.3,11.3,9.5c2.7,2.4,5.4,4.9,7.9,7.5c2.1,2.1,3.9,4.5,5.9,6.7c0.4,0.5,0.9,1,1.5,1.2C348.6,423.8,347.2,422,346.1,420
	z M409.8,482.8c-1.9-3.9-3.2-8-4-12.3c-0.3-1.9-0.6-3.8-0.7-5.7c-0.8-11.3-3.8-22.4-8.8-32.7c-1.7-3.5-3.1-7-4.5-10.6
	c-2.8-7.7-3.9-15.8-4.8-23.8c-0.9-8.6-2.3-17.2-4.4-25.6c-1.9-7.2-4.4-14.2-7.3-21c-0.3-0.7-0.6-1.3-0.9-2c-1.2-2.7-2.4-5.3-3.6-7.9
	c-0.2-0.5-0.4-0.9-0.7-1.4c-0.7-1.4-1.4-2.9-2.1-4.3c-0.3-0.3-0.7-0.7-1-0.9c0.3,1.1,0.5,1.7,0.8,2.3c0.3,0.7,0.5,1.3,0.7,2
	c0.2,0.5,0.3,0.9,0.5,1.4c1,2.7,1.8,5.5,2.5,8.3c0.2,0.6,0.3,1.3,0.5,2c0.8,3,1.5,6,2.1,9c1.3,6.1,1.7,12.4,1.3,18.6
	c-0.2,3.2-0.4,6.4-0.6,9.6c-0.7,12.1,1.2,23.8,6.7,34.7c3.7,7.5,7.9,14.8,12,22.2c3,5.3,6.4,10.4,8.5,16.1c0.4,1,0.7,1.9,1,2.9
	c0.5,1.5,0.9,3,1.3,4.4c-0.2,0.1-0.3,0.1-0.5,0.2c-0.3-0.9-0.7-1.7-1-2.6c-1.3-4.2-3.1-8.2-5.2-11.9c-2.8-5-5.6-9.9-8.4-14.9
	c-2.2-3.9-4.3-7.7-6.5-11.6c-5.6-10.1-8.9-20.8-9-32.4c-0.1-4.7,0.1-9.4,0.4-14.1c0.6-8.3,0-16.6-1.9-24.7c-0.4-1.9-0.9-3.8-1.4-5.7
	c-0.1-0.7-0.3-1.3-0.5-2c-0.8-2.9-1.7-5.9-2.6-8.7c-0.1-0.5-0.3-1-0.5-1.5c-0.8-2.3-1.6-4.7-2.5-7c0-0.1,0-0.1-0.1-0.2
	c-1.3-3.4-2.5-6.7-3.7-10.1c-0.2-0.5-0.4-1.1-0.6-1.6c-0.1-0.1-0.1-0.3-0.1-0.4c0.4,0.1,0.7,0.4,1,0.8l0.3,0.5
	c0.4,0.6,0.8,1.3,1.2,1.9c0.1,0.1,0.1,0.3,0.2,0.4c1.1,1.7,2.1,3.4,3.2,5.2c3,4.7,6,9.5,9,14.3c0.3,0.4,0.5,0.8,0.8,1.3
	c0.8,1.3,1.6,2.5,2.4,3.7c0.6,0.9,1.2,1.8,1.8,2.7c0.4,0.6,0.8,1.2,1.2,1.9c3.2,4.9,6.5,9.9,9.7,14.9c6.2,10,9.8,21.4,10.5,33.1
	c0.4,6,0.3,12.1,0.3,18.1c0,8.9,0.7,17.7,3.7,26.2c2.8,8.1,4,16.7,3.5,25.3c-0.1,1.3,0,2.6,0.1,3.9c0.1,2.2,0.5,4.4,1,6.5
	c0.2,1,0.4,2.1,0.4,3.1C410.1,482.8,409.9,482.8,409.8,482.8L409.8,482.8z M407.7,464.9c0.1-6.1-0.8-12.2-2.7-18
	c-3.3-9.6-4.9-19.8-4.5-30c0.1-3,0.1-5.9,0.1-8.9c0.2-15.1-3.3-29.2-11.4-42.1c-3-4.8-6.2-9.5-9.2-14.3c-0.4-0.6-0.8-1.3-1.2-1.9
	c-0.2-0.2-0.3-0.4-0.4-0.6c-1.3-2.1-2.7-4.2-4-6.3c-0.3-0.5-0.6-0.9-0.9-1.3c-1.5-2.5-3.1-5-4.7-7.4c-0.3-0.4-0.6-0.7-1-0.9
	c1.2,2.5,2.3,4.9,3.5,7.3c0.2,0.5,0.4,0.9,0.6,1.4c0.7,1.5,1.5,3,2.2,4.6c0.5,1,0.9,2,1.3,2.9c0.3,0.6,0.6,1.3,0.9,2
	c5.8,13.3,9.5,27.4,11.1,41.8c0.3,2.9,0.7,5.8,1.1,8.7c1.1,10.5,4.1,20.7,8.7,30.2c5.1,10.3,8.1,21.6,8.9,33c0.2,2,0.4,3.9,0.7,5.9
	c0.1,0.7,0.3,1.3,0.5,2c0.1,0,0.3,0,0.4-0.1C407.7,470.1,407.7,467.5,407.7,464.9L407.7,464.9z M293.2,429.3
	c-6.2-1.2-12.3-3.1-18.1-5.5c-5.7-2.5-10.9-5.9-15.6-10c-3.7-3.2-7-6.9-9.9-11c-3.8-5.7-7.4-11.5-11.2-17.2c-4-6-9.9-10.4-16.7-12.7
	c-4.8-1.6-9.9-2.6-15-2.9c-8.4-0.6-16.9-1-25.3-1.8c-10.1-0.9-20.1-2.1-29.6-6c-0.3,0-0.6-0.1-0.9-0.1c2.1,1.2,3.9,2.1,5.6,3.2
	c11.3,6.9,23.9,11.6,37.1,13.6c6.9,1.1,13.8,2.7,20.7,4.4c7.8,2,14.1,6.5,19.7,12c4.8,4.8,9.2,9.9,13.9,14.8
	c3.2,3.4,6.7,6.6,10.8,8.6c0.4,0.2,0.7,0.4,1.1,0.5c2.7,1.3,5.6,2.3,8.4,3.4c0.7,0.3,1.5,0.6,2.2,0.9c-0.3,0.3-0.6,0.3-1,0.3
	l-1.7-0.4c-0.8-0.2-1.7-0.5-2.5-0.7c-3.8-1.2-7.3-3-10.6-5.3c-2.8-2-5.5-4.3-7.8-6.9c-4.7-5.3-9.7-10.3-14.7-15.3
	c-5.8-6-13.3-10.1-21.4-11.9c-5.4-1.2-10.8-2.4-16.3-3.3c-11-1.9-21.6-4.7-31.4-10.1c-5.2-2.9-10.4-5.8-15.7-8.7c-1-0.5-2-1.1-3-1.7
	c-0.2-0.4-0.4-0.8-0.4-1.2c1.6,0.6,3.3,1.1,5,1.5c1.2,0.3,2.3,0.5,3.5,0.6c9.8,2,19.9,2.5,29.9,1.4c6.3-0.8,12.6-1.5,18.9-2.1
	c6.9-0.5,13.9,0.1,20.6,2c9.8,2.5,18.2,8.8,23.2,17.6c2.5,4.1,4.7,8.3,7.2,12.4c4.4,7.1,8.9,14.1,14.8,20.1c2.9,3.1,6.2,5.8,9.7,8
	c2.4,1.5,4.8,2.8,7.3,4c3.2,1.6,6.6,3,9.9,4.4c0.7,0.3,1.4,0.7,2.1,1c0,0.2-0.1,0.3-0.1,0.4C295.1,429.8,294.1,429.5,293.2,429.3z
	 M269.9,416.3c-2.5-2.3-4.9-4.8-7-7.4c-6.2-7.6-11.6-15.8-16.1-24.5c-1.7-3.3-3.8-6.5-6.2-9.4c-5.4-6.4-12.8-10.7-21-12.4
	c-6.8-1.5-13.9-1.9-20.8-1.2c-4.5,0.5-9.1,1-13.7,1.6c-9.1,1.3-18.4,1.1-27.4-0.4c-0.6-0.1-1.2-0.2-1.8-0.2l-0.1,0.3
	c0.6,0.3,1.3,0.5,1.9,0.8c6,1.8,12.2,2.9,18.4,3.4c9.1,0.8,18.3,1.5,27.4,2.1c5.4,0.3,10.7,1.1,16,2.3c8.9,2.3,15.7,7.7,20.8,15.2
	c3.7,5.5,7.1,11.3,10.9,16.8c2.3,3.1,4.8,6,7.6,8.6c5.9,5.6,12.9,10,20.6,12.7c2.1,0.8,4.3,1.4,6.6,1.8c-0.7-0.4-1.3-0.8-1.9-1.1
	C279,422.8,274,420.1,269.9,416.3L269.9,416.3z M344.9,460.1c-0.2,0.1-0.4,0.1-0.6,0.1c0,0-0.1,0-0.1,0.1c-8.2,1.7-15,6-21.2,11.3
	c-6.6,5.5-13.2,11-19.8,16.4c-5.2,4.1-11,7.4-17.2,9.7c-5,2-10.1,3.6-15.2,5.4c-10.9,3.9-21,9.3-29.5,17.2c-1.6,1.5-3.1,3-4.6,4.6
	l-4.3,4.5c-2.7,2.9-5.3,5.7-8,8.4c-2.4,2.5-5.1,4.6-7.7,6.9c0-0.1,0.1-0.3,0.1-0.4c0.8-1,1.5-1.9,2.2-2.9c2.2-2.9,4.2-6,5.9-9.2
	c2.8-5.1,5.6-10.2,8.4-15.2c5.4-9.5,11.1-18.7,18.8-26.6c5-5.3,10.8-10,17-13.8c12.5-7.3,25.8-12.1,40.5-12.1
	c6.2,0,12.4-0.9,18.3-2.8c0.4-0.1,0.9-0.3,1.3-0.4c3.1-0.9,6.3-1.6,9.4-2.2c2.9-0.6,5.9-0.9,8.8-1.3c2.3-0.2,4.6-0.3,6.9-0.5
	c0,0.2,0,0.4,0,0.5C351.3,458.8,348.1,459.5,344.9,460.1z M225,535.1c-0.3,0.4-0.6,0.9-0.6,1.5c1.5-1.7,3.1-3.3,4.6-4.9
	c5.4-6.3,11.4-12,17.9-17.2c7.9-6.1,17-10,26.3-13.3c5.6-2,11.1-3.9,16.5-6.2c5.5-2.4,10.6-5.6,15.1-9.4c3.8-3.2,7.7-6.4,11.5-9.7
	c5.2-4.7,10.8-8.9,16.7-12.6c0.1-0.1,0.1-0.2,0.3-0.5c-2.6,0.7-5.1,1.8-7.4,3.2c-5.6,3.3-11.2,6.6-16.9,9.8c-5.3,3-11.2,5.1-17.2,6
	c-6.2,0.8-12.3,2.4-18.2,4.6c-5.1,2.1-9.9,4.9-14.3,8.2c-8.1,6-14.8,13.5-20.9,21.5C233.8,522.3,229.5,528.8,225,535.1z
	 M327.3,463.2c-5.3,1.7-10.8,2.6-16.3,2.6c-14.1-0.1-26.9,4.1-39.1,10.7c-5.5,3.1-10.6,6.9-15.2,11.3c-8.5,7.7-14.9,16.9-20.6,26.8
	c-2.1,3.9-4.4,7.7-6.6,11.5c-0.4,0.5-0.6,1.2-0.6,1.8c1.1-1.6,2.2-3.2,3.3-4.8c3.7-5.4,7.7-10.5,12.1-15.4c3.5-3.9,7.2-7.6,11.2-11
	c7.8-7,17.3-11.9,27.6-14.2c2.1-0.5,4.1-0.9,6.2-1.2c8.2-1.1,16-4,23-8.4c5.6-3.4,11.3-6.7,17.5-10.4
	C328.6,462.9,327.9,463,327.3,463.2z M178.9,579.1L178.9,579.1c0.3-1,0.5-1.8,0.7-2.7c0.4-1.6,0.7-3.1,1-4.6
	c1.1-6.1,0.8-12.4-0.7-18.4c-1.8-7.1-3.9-14.1-5.8-21.2c-2.8-10.4-1.7-20.6,1.7-30.7c0.4-1,0.8-2,1.4-3c5-9.6,12.8-16.4,21.8-21.9
	c4.6-2.8,9.3-5.6,12.9-9.5c2.7-2.9,5.3-5.8,7.8-8.8c0.8-0.9,1.5-1.7,2.3-2.6c3.9-4.4,8.4-8.3,13.2-11.7c1.7-1.1,3.6-2.2,5.3-3.3
	c0,0.5-0.2,0.9-0.5,1.2c-1.9,1.7-3.8,3.4-5.6,5.2c-1,1-2,2.1-2.9,3.2c-2.7,3.3-5.2,6.8-7.5,10.4c-5.3,8.7-11.8,16.6-19.1,23.6
	c-2.2,2.1-4.2,4.4-6.1,6.8c-4.5,5.3-6.9,11.5-8.4,18.2c-1.5,7.6-2.3,15.2-2.3,23c-0.1,8.9-0.6,17.9-1.7,26.8
	c-0.7,4.4-1.9,8.7-3.6,12.7c-0.9,2.1-1.9,4.2-3,6.3c0,0.1-0.1,0.2-0.2,0.3c-0.2,0.2-0.5,0.6-0.8,1
	C178.8,579.3,178.9,579.2,178.9,579.1z M225,454.8c1.1-1.4,2.4-2.7,3.6-4.1c-0.1-0.1-0.2-0.3-0.3-0.4c-2.2,2.3-4.5,4.7-6.7,7.1
	c-3.6,3.9-7.1,8.1-10.7,12c-2.9,3.3-6.8,5.2-10.5,7.4c-4.3,2.5-8.3,5.4-11.9,8.7c-8.4,7.8-13.8,17.1-14.6,28.8
	c-0.7,7.2,0.1,14.4,2.2,21.3c2,6.4,3.5,13.1,5.2,19.6c0.1,0.5,0.4,1,0.8,1.3c-0.1-0.9-0.1-1.6-0.2-2.5c-0.9-5.8-1.8-11.8-2.7-17.7
	c-1.4-7.4-1.5-14.9-0.5-22.3c1.3-8.2,5.1-15.7,10.8-21.7c2-2.1,4.1-4.1,6.4-5.9c4.7-3.8,9.1-8,13-12.5
	C214.3,467.6,219.6,461.2,225,454.8z M184.1,565.5c0.8-5.3,1.8-10.6,2.3-15.9c0.5-5.4,0.5-10.9,0.6-16.3c0-7.6,0.7-15.1,2.1-22.5
	c1.4-7.1,3.7-13.8,8.3-19.5c1.8-2.2,3.8-4.4,5.7-6.5c4.1-4.5,8.5-8.8,12.3-13.5c2.9-3.4,5.1-7.4,7.7-11.1c0.5-0.8,1.1-1.6,1.6-2.4
	c-0.1-0.1-0.2-0.2-0.3-0.3c-1.1,1.2-2.1,2.4-3.1,3.6c-5.8,7.1-11.6,14.2-18.3,20.3c-3.4,3.1-7.1,6.1-10.5,9.2
	c-7.2,6.4-11.8,15.2-13.1,24.7c-0.8,6.8-0.6,13.7,0.6,20.4c1.1,7,2.2,13.9,3,20.9c0.4,3.6,0.2,7.2,0.3,11.3
	C183.7,567.1,183.9,566.3,184.1,565.5z M201.8,439.2c-2.2,0.1-4.4,0.2-6.6,0.3c-3.7,0.2-7.4,0.1-11-0.4c-7.9-1.1-15.7-3.2-23.1-6.2
	c-7.3-2.9-14.4-6.4-21.6-9.5c-22.1-9.8-46.6-13-70.5-9.2c-0.6,0.1-1.1,0.3-1.8,0.4c0.1,0.1,0.3,0.2,0.5,0.3c0.6,0,1.2,0,1.7,0
	c7.3-0.2,14.6,0.2,21.8,1.1c12.7,1.6,24.9,5.5,36.1,11.7c4.7,2.6,9.4,5.3,14.4,7.4c10.4,4.6,21.2,7.5,32.6,7.2c0.4,0,0.9,0,1.3,0
	c2-0.1,4.1,0,6.1,0.1c0,0.1,0.1,0.2,0.1,0.3c-0.2,0.1-0.4,0.1-0.6,0.1c-0.5,0.1-1,0.1-1.5,0.2c-5.5,0.5-11,0.3-16.4-0.4
	c-3.7-0.5-7.4-1.4-11-2.5c-8.2-2.5-16.1-6-23.4-10.5c-14.5-8.7-30.3-12.6-46.9-13.6c-6.8-0.5-13.7-0.5-20.5-0.2
	c-3.9,0.1-7.7,0.5-11.5,1c-0.5,0.1-1.1,0.1-1.6,0c0.4-0.4,0.9-0.6,1.5-0.6c1.1-0.2,2.3-0.5,3.5-0.7c0.3-0.1,0.6-0.2,0.9-0.2
	c8.9-1.8,17.9-3.5,26.7-5.6c11.7-2.9,23.7-4.8,35.8-5.6c15.4-1,29.8,2.2,42.6,11.2c11.3,7.9,23.5,13.9,36.2,19.1
	c0.6,0.2,1.1,0.4,1.6,0.6c2.3,0.9,4.7,1.7,7,2.6c0.6,0.3,1.3,0.6,1.9,1c0,0.2-0.1,0.3-0.1,0.5C204.2,439,203,439.1,201.8,439.2z
	 M202.9,438c-0.3-0.1-0.4-0.2-0.7-0.2c0,0-0.1,0-0.1,0c-15-5-29.3-11.7-42.3-20.8c-14.1-9.9-29.7-13.2-46.6-11.8
	c-13,1.1-25.8,3.3-38.4,6.7c-0.3,0.2-0.7,0.3-1,0.5c0.9,0,1.5,0,2,0c22.7-2.4,44.3,1.4,65.2,10.6c6.7,3,13.3,6.2,20.2,8.8
	c7.8,3.1,15.8,5.7,24.2,6.3c5.6,0.4,11.2,0.3,16.8,0.5c0.2,0,0.4,0,0.5,0v-0.1c0-0.1,0-0.2,0-0.3C202.9,438.1,202.9,438.1,202.9,438
	z M105.6,572.6c0.4-1.2,0.9-2.5,1.3-3.7c0.7-1.9,1.3-3.8,2-5.7c3.7-10.9,5.7-22.2,7.6-33.6c1.5-9.4,4.1-18.5,9.2-26.6
	c4.3-6.7,9.7-12.3,15.3-17.8c5.1-5.1,10.6-9.8,15.8-14.8c2-2,3.9-4,5.9-6c1.4-1.5,2.8-3,4.3-4.4c2.1-2.1,4.1-4.3,6.3-6.3
	c0.4-0.4,0.9-0.6,1.4-0.8c0.1,0.1,0.2,0.2,0.3,0.4c-3.4,3.8-7,7.4-10.2,11.3c-0.2,0.3-0.5,0.6-0.7,0.9c-4.5,5.6-8.4,11.6-11.6,18.1
	c-3.9,8-7,16.3-9.3,24.9c-1.9,7.7-4.9,15.1-8.7,22c-3.5,6.1-7.9,11.4-12.2,16.9c-4.8,6.1-9.6,12.4-13.2,19.4
	c-0.2,0.4-0.4,0.7-0.6,1.1c-0.8,1.7-1.7,3.4-2.6,5.1C105.8,572.7,105.7,572.7,105.6,572.6z M153.6,474.8c-0.6,0.5-1.2,1.1-1.8,1.6
	c-4.5,4.3-9.2,8.3-13.5,12.7c-5,5.1-9.8,10.3-13.3,16.6c-3.9,7-6,14.4-7.4,22.2c-1.6,8.6-3.4,17.2-5.2,25.9c-0.4,1.5-0.7,3-0.9,4.6
	c0.3-0.7,0.6-1.3,0.9-2c5.2-11.3,9.7-22.9,13.6-34.7c3.5-10.2,8.6-19.7,15.1-28.3c4.4-5.9,8.4-12.1,12.6-18.2
	C153.9,475.1,153.7,474.9,153.6,474.8L153.6,474.8z M116.9,552.7c4.1-5.3,8.1-10.6,12.1-15.9c5-6.9,8.8-14.5,11.2-22.7
	c0.6-2.1,1.3-4.1,1.9-6.3c3.1-11.9,7.8-23.3,14.1-33.9c-0.3,0.2-0.6,0.4-0.8,0.6c-0.2,0.3-0.4,0.7-0.6,0.9
	c-6.4,9.3-12.8,18.5-19.1,27.8c-3.4,5.1-5.7,10.8-7.8,16.5c-3.6,10.1-7,20.3-11.5,30.1c-1,2.1-1.9,4.2-2.9,6.3
	c0.1,0.1,0.3,0.2,0.4,0.4C115,555.2,116,553.9,116.9,552.7L116.9,552.7z M414,504.2c-1.3-0.4-2.7-0.6-4-0.8c-0.5,0-0.9-0.1-1.4-0.1
	c-12.7-1-24.6,1.9-35.9,7.8c-7.7,4-15.3,8.3-23.1,12.2c-7.1,3.6-14.8,6.1-22.7,7.4c-2.9,0.5-5.8,0.7-8.7,0.6c-4.7,0-9.3-0.2-14-0.3
	c-2-0.1-4,0-5.9-0.1c-0.1-0.1-0.1-0.3-0.1-0.4c1.6-0.4,3.1-1,4.7-1.3c0.7-0.1,1.5-0.3,2.2-0.6c11.2-2.8,20.8-8.5,30.1-15.2
	c5-3.6,10-7.5,15.4-10.6c9.3-5.5,19.3-8.6,30.2-7.5c7.4,0.6,14.7,1.8,21.8,3.7c0,0,0.1,0.1,0.1,0c2.7,0.8,5.3,1.7,7.8,2.8
	c0.8,0.3,1.7,0.5,2.5,0.8c1.2,0.5,2.5,1,3.7,1.5c0,0.2-0.1,0.3-0.1,0.4C415.7,504.5,414.8,504.3,414,504.2L414,504.2z M392.1,497.9
	c-3.6-0.5-7.2-1.1-10.8-1.4c-11.6-1.1-22.1,2.2-31.9,8.3c-5.2,3.3-10.1,7-15.2,10.5c-7.9,5.4-15.8,10.7-25.2,13.1
	c-0.3,0.1-0.5,0.2-0.7,0.3c0,0.2,0.1,0.3,0.1,0.5c3.5-0.8,7.1-1.5,10.5-2.5c7.6-2.3,14.8-5.6,21.6-9.8c7.2-4.3,14.2-9,21.8-12.6
	c9.3-4.6,19.7-6.6,30-5.7c0.4,0.1,0.9,0,1.3-0.2C393.1,498.2,392.6,498,392.1,497.9L392.1,497.9z M358.4,507.3
	c-5.8,3.3-11.6,6.8-17.4,10.3c-9.7,5.9-19.9,10.4-31.3,12.1c-0.3,0.1-0.6,0.2-0.9,0.3c0,0.1,0,0.2,0,0.3c0.7,0.1,1.3,0.1,2,0.1
	c14.3,0.9,27.7-2.4,40.4-9c7.1-3.7,14.2-7.6,21.3-11.4c9.4-5,19.8-7.8,30.5-8c0.2,0,0.3-0.1,0.9-0.3c-1-0.2-1.6-0.5-2.2-0.6
	C386.4,497.4,372,499.7,358.4,507.3L358.4,507.3z M150,454.2c-0.8,0.1-1.6,0.3-2.3,0.6c-3.7,1.8-7.6,3.2-11.6,4.2
	c-2.4,0.6-4.9,1.1-7.3,1.5c-4.8,0.8-9.5,2.3-13.9,4.3c-2.2,1-4.4,1.9-6.5,3c-12.9,6.2-26.8,9.9-41.1,10.9c-7,0.5-14,1-20.9,1.4
	c-8.4,0.3-16.7,1.5-24.8,3.5c-1.8,0.5-3.7,0.9-5.5,1.4c-3.2,0.8-6.5,1.5-9.7,2.3c-0.1,0-0.1,0.1-0.2,0.1c-0.2,0.1-0.5,0.1-0.8,0.1
	c-0.2,0.1-0.4,0.1-0.6,0.1l-0.5,0.1l0,0c-0.1-0.1-0.1-0.2-0.1-0.3c0.3-0.2,0.5-0.4,0.8-0.5c1.5-0.7,3.1-1.4,4.6-2.1
	c1.8-0.8,3.7-1.7,5.5-2.4c16-5.8,32.4-10.5,49.1-13.9c15.3-3.2,30.5-6.3,45.7-9.6c8.1-1.8,16.2-3.9,24.4-4.5c2.5-0.2,5-0.4,7.4-0.5
	c0.1,0,0.1,0,0.2,0c3.9-0.3,7.7-0.5,11.5-0.7c0.5,0,0.9,0.1,1.3,0.1C153.1,453.6,151.6,454,150,454.2z M124.4,456.6
	c-8,1.6-15.9,3.6-23.9,5.3c-16.5,3.5-33,6.9-49.5,10.6c-12.8,3-25.5,6.8-37.8,11.4c-1.1,0.3-2.1,0.8-3,1.5c-0.1,0-0.1,0-0.2,0.1
	c0.4-0.1,0.8-0.2,1.2-0.3c0,0,0.1,0,0.1,0c0.2-0.1,0.4-0.1,0.7-0.2c8.3-2,16.6-4.6,25.2-5.3c6.1-0.5,12.2-0.8,18.3-1.2
	c5.2-0.4,10.5-0.9,15.7-1.3c13-1.1,25.2-5,37-10.4c2.2-1,4.4-2,6.5-3c4.4-2,9-3.5,13.7-4.3c4.1-0.6,8.1-1.6,12.1-2.8
	c1.1-0.5,2.2-0.9,3.3-1.2l1-0.4C138,454.8,131.1,455.3,124.4,456.6L124.4,456.6z M12.2,485c5.4-1.7,10.6-4,15.6-6.7
	c9.4-4.8,18.3-10.4,27.2-16c10.2-6.4,21.5-10.7,33.4-12.7c5.5-0.9,11.1-0.9,16.5,0c5.5,0.8,10.9,1.8,16.4,2.7
	c6.7,1.1,13.5,1.6,20.2,1.5c-0.6-0.1-1.1-0.2-1.7-0.2c-0.6-0.1-1.2-0.1-1.7-0.2c-9.8-0.7-19.5-2.5-29.2-4.3
	c-12.6-2.3-24.7-0.8-36.7,3.6c-7.5,2.8-14.6,6.5-21.3,10.8c-12.4,7.9-24.9,15.4-38.5,21C12.3,484.7,12.2,484.8,12.2,485z
	 M129.5,467.3c-1.8,1.1-3.6,2.1-5.4,3.2c-8.2,4.8-17.1,8.5-26.3,10.9c-15.6,4.4-31.8,6.1-48,5.1c-6.8-0.5-13.7-0.2-20.5-0.3
	c-1.5,0-3,0.3-4.4,0.8c3.4,0,6.8-0.2,10.2-0.1c6.7,0.2,13.4,0.6,20.1,0.8c22.5,0.6,44-3.5,64.2-13.5c3.6-1.8,6.9-4.2,10.4-6.3
	C129.8,467.7,129.7,467.5,129.5,467.3z M360.8,320.9c0.3,0.2,0.7,0.5,1,0.8l0.1,0.1c0,0.2,0.1,0.5,0.2,0.7c1,2.8,1.8,5.6,2.4,8.5
	C363.3,327.7,362.1,324.3,360.8,320.9L360.8,320.9z M360.8,320.9c0.3,0.2,0.7,0.5,1,0.8l0.1,0.1c0,0.2,0.1,0.5,0.2,0.7
	c1,2.8,1.8,5.6,2.4,8.5C363.3,327.7,362.1,324.3,360.8,320.9L360.8,320.9z M365.2,347.1c0-0.1,0-0.2,0-0.2c-0.1-3.1-0.4-6.2-0.8-9.3
	c-0.1-0.5-0.1-0.9-0.2-1.3c-0.9-5.3-2.1-10.5-3.7-15.7c0.2,0.1,0.3,0.2,0.4,0.3c-0.2-0.5-0.4-1.1-0.6-1.6c-0.1-0.1-0.1-0.3-0.1-0.4
	c0.4,0.1,0.7,0.4,1,0.8l0.3,0.5c0.4,0.6,0.8,1.3,1.2,1.9c-0.3-0.3-0.5-0.6-0.7-0.9c0.1,0.2,0.1,0.4,0.1,0.6c0,0.2,0.1,0.5,0.2,0.7
	c1,2.8,1.8,5.6,2.4,8.5c0,0.1,0.1,0.1,0.1,0.2c0.5,2,0.9,4.1,1.2,6.1c0.1,0.4,0.1,0.8,0.1,1.3c0.4,3,0.7,6,0.9,9
	C366.3,347.5,365.7,347.3,365.2,347.1L365.2,347.1z M365.2,347.1c0-0.1,0-0.2,0-0.2c-0.1-3.1-0.4-6.2-0.8-9.3
	c-0.1-0.5-0.1-0.9-0.2-1.3c-0.9-5.3-2.1-10.5-3.7-15.7c0.2,0.1,0.3,0.2,0.4,0.3c-0.2-0.5-0.4-1.1-0.6-1.6c-0.1-0.1-0.1-0.3-0.1-0.4
	c0.4,0.1,0.7,0.4,1,0.8l0.3,0.5c0.4,0.6,0.8,1.3,1.2,1.9c-0.3-0.3-0.5-0.6-0.7-0.9c0.1,0.2,0.1,0.4,0.1,0.6c0,0.2,0.1,0.5,0.2,0.7
	c1,2.8,1.8,5.6,2.4,8.5c0,0.1,0.1,0.1,0.1,0.2c0.5,2,0.9,4.1,1.2,6.1c0.1,0.4,0.1,0.8,0.1,1.3c0.4,3,0.7,6,0.9,9
	C366.3,347.5,365.7,347.3,365.2,347.1L365.2,347.1z M488.9,581c-1.3-0.8-2.2-2.1-2.5-3.7c-0.8-3-1.6-5.9-2.6-8.8
	c-5.1-15-14.6-28.1-27.3-37.6c-4.8-3.7-9.6-7.3-14.4-10.9c-3.6-2.8-6.9-5.7-10.7-8.3c-8.1-6-18.4-8.1-28.2-6
	c-4.5,1-8.8,2.6-12.9,4.7c-6.8,3.4-13.6,7-20.4,10.5c-9.6,5-19.7,8.7-30.5,10.1c-14.1,1.7-28.4,1.7-42.5,0c-0.4-0.1-0.7-0.3-1.1-0.4
	c0.1-0.2,0.3-0.3,0.5-0.4l0.9-0.3c9.7-2.6,18.5-7.6,25.8-14.6c3.9-3.6,7.8-7.2,11.6-10.9c4.1-3.9,8.6-7.3,13.4-10.1
	c8.1-5.1,17.6-7.4,27.1-6.8c6.7,0.5,13.2,2.4,19.2,5.5c7.3,3.8,14.8,7.2,22.6,10c2.9,1,5.8,2.1,9.1,3.4c-3.1-2.9-6.1-5.5-8.8-8.3
	c-6-6.3-12.2-12.3-18.5-18.2c-8.5-7.8-17.8-14.8-27.6-20.9c-0.9-0.5-1.8-0.9-2.8-1c-6.3-1.3-12.3-0.1-18.2,1.9
	c-8.6,3-16,8-22.8,13.9c-6.1,5.3-12,11-18.1,16.4c-8.1,7.2-16.8,13.5-26.9,17.5c-5.5,2.2-11.1,4.4-16.8,6.1
	c-16.6,5.1-31.5,14.4-43.4,27c-2.7,2.8-5.3,5.6-8,8.3c-0.6,0.6-1.3,1.2-1.9,1.7l-0.3-0.3c0.8-1.5,1.7-2.9,2.6-4.3
	c6-9.8,11.7-19.8,15.6-30.7c1.4-3.9,3.2-7.7,5.2-11.3c7.4-13.5,17.9-25.1,30.5-34c6.4-4.8,13.7-8.1,21.5-9.7
	c6.5-1.2,13.2-1.5,19.8-0.9c11.9,0.8,23.9,1,35.6-2.1c6.9-1.7,14.1-2.4,21.3-1.9c0.5,0,1-0.1,1.6-0.1c-0.8-0.8-1.7-1.4-2.7-1.9
	c-7.3-4-14.9-7.4-22.6-10.2c-11-4-22.4-7-33.9-9c-13.1-2.3-26.5-3.3-39.8-2.9c-5.4,0.1-10.7,1.5-15.5,4.1c-1.5,0.8-3,1.7-4.6,2.5
	c-5.4,2.8-9.8,7.2-12.7,12.6c-2.5,4.8-5,9.5-7.3,14.4c-4.1,8.8-9.2,17-15.2,24.6c-3.4,4.1-6.1,8.7-8,13.7c-2,5.3-3.5,10.8-4.5,16.4
	c-1.2,6.4-2.1,12.8-3.2,19.1c-1.3,7.7-3.3,15.2-6,22.6c-2.1,5.8-5,11.3-8.8,16.2c-0.2,0.3-0.5,0.6-0.8,0.8c-0.2,0.2-0.4,0.4-0.7,0.6
	l0,0c-0.3,0.3-0.7,0.6-1.1,0.9c0.1-1.6,0.1-2.7,0.2-3.7c0.8-6.6,0.4-13.3-1.1-19.7c-1.6-6.1-3.2-12.2-5-18.3
	c-1.8-6.4-3.8-12.8-4.6-19.5c-0.8-6.3-0.3-12.7,1.4-18.8c2.8-9.9,9.4-17.1,17.1-23.5c4.4-3.6,9.2-6.6,14.3-9.1
	c9.6-4.7,18.6-10.3,26.1-17.9c2.1-2.1,4.4-4,6.9-5.7c5.2-3.3,10.5-6.2,15.8-9.3c0.5-0.3,0.9-0.6,1.5-0.9c-0.6-0.2-1.2-0.2-1.9-0.1
	c-7.4,1.5-15,2.9-22.4,4.7c-14.1,3.4-27.9,7.8-42.2,10.3c-0.9,0.2-1.8,0.6-2.6,1.1c-5,3.2-9.4,7.4-12.9,12.2
	c-5.3,7.4-8.5,15.7-11,24.3c-2.2,7.5-4.4,15.1-6.7,22.6c-5.6,18.1-15.9,34.4-29.8,47.2c-5.2,4.7-9.8,9.9-13.9,15.6
	c-0.6,0.9-1.4,1.8-2.1,2.6c-0.2-0.8-0.2-1.7,0-2.5c1.9-8.9,2.5-18,3.2-27c0.5-7.9,1.4-15.7,3-23.4c2.2-10.1,6.4-19.3,13.5-27
	c3.7-3.9,7.6-7.7,11.7-11.1c4-3.4,8.4-6.5,12.5-9.8c6.9-5.6,13.7-11.3,20.6-17c0.9-0.8,1.9-1.5,2.9-2.2c1.7-1.3,3.4-2.6,5.1-3.9
	c-0.5-0.2-1.1-0.3-1.6-0.2c-10.5,1.2-20.7,4.3-30.9,7c-0.8,0.3-1.6,0.6-2.4,0.9c-6.7,2.8-12.6,7-18.4,11.2
	c-6.7,5-13.9,9.3-21.5,12.9c-16.1,7.4-33.1,9.9-50.7,9.3c-9.1-0.4-18.1-1.6-27-3.6c-6.1-1.5-12.5-1.6-18.7-0.3
	c-0.1,0-0.1,0.1-0.2,0.1c-0.2,0.1-0.5,0.1-0.8,0.1c-0.2,0.1-0.4,0.1-0.6,0.1c-0.2,0-0.3,0-0.5,0c-0.6,0.1-1.2,0.2-1.8,0.3
	c-0.4,0-0.9,0-1.3,0c0.7-0.6,1.4-1.1,2.2-1.5c3.6-2.2,7.3-4.2,10.8-6.6c5.9-4.1,10.9-9.1,16.1-14c8.8-8.2,18.3-15.3,29.3-20.4
	c15.2-7,30.8-8.4,46.7-2.6c5.2,1.9,10.5,3.7,15.7,5.4c3.5,1.1,7,1.9,10.6,2.5c8.8,1.5,17.7,1.5,26.5,0.1c16.3-2.3,32.5-5,48.4-9.4
	c0.7-0.2,1.3-0.4,2-0.7c-0.7-0.4-1.4-0.5-2.1-0.5c-3.2,0.1-6.4,0.1-9.6,0.6c-6.7,0.8-13.4,2-20.1,2.8c-16.8,1.9-32.8-0.3-48-8
	c-4.6-2.3-9.2-4.7-13.9-6.9c-22-10.2-45.2-12.8-69.1-11.9c-0.9,0.1-1.8,0.1-2.7,0.1c0-0.2-0.1-0.4-0.1-0.5c0.5-0.2,0.9-0.4,1.4-0.6
	c4.7-1.3,9.4-2.5,14.1-3.8c8.5-2.2,16.7-5.2,24.6-8.8c5.1-2.4,10.2-4.6,15.5-6.5c14.3-5.1,28.8-6.1,43.5-1.5
	c9.8,3,19.1,7.2,26.9,14.1c6.4,5.7,12.7,11.5,19,17.3c5.2,4.7,11.2,8.4,17.8,10.9c1.1,0.4,2.2,0.7,3.4,0.8c4.2,0.2,8.4,0.4,12.5-1.1
	c1.2-0.4,2.4-0.6,3.6-0.9c20.9-5.5,42.2-8.3,63.8-6.1c0.4,0,0.7,0,1.1-0.1c-5.2-1.7-10.4-3-15.6-4.5c-2.6-0.8-5.1-1.5-7.7-2.2
	c-0.8-0.2-1.7-0.5-2.5-0.7c-3.9-1.1-7.7-2.4-11.5-3.8c-11.2-4.3-21-10.9-30-18.8c-3.8-3.5-8.4-6.1-13.4-7.4
	c-2.7-0.7-5.4-1.3-8.1-1.8c-3.7-0.7-7.3-1.3-11-2c-6.6-1.2-12.9-3.6-18.7-7.1c-7.5-4.4-14-10-20.5-15.5c-3.8-3.1-7.6-6.1-12.2-8
	c-0.3-0.2-0.5-0.4-0.7-0.7c0.2-0.1,0.4-0.2,0.6-0.2c0.6,0.1,1.3,0.2,2,0.3c8.6,1.9,17.6,1.5,26.1-1.2c4.4-1.4,8.9-2.4,13.3-3.4
	c7-1.7,14.2-2.6,21.4-2.7c10-0.4,20,2,28.8,6.9c10.7,6,19.3,15,24.9,26c3.8,7.5,7.2,15.1,12,22c2.4,3.4,4.6,6.9,7.6,9.8
	c5.5,5.4,12,9.7,19.1,12.9c4.2,1.9,8.4,4.1,13,4.9c18.8,3.3,36.9,9.4,53.7,18.3c0.5,0.2,1.1,0.4,1.6,0.6c-0.2-0.5-0.4-1-0.7-1.5
	c-4.1-6.3-8.1-12.7-12.3-19c-5.7-8.5-13.2-15.3-21.8-20.9c-4.4-2.8-8.8-5.6-13.3-8.4c-8.3-5.1-16.4-10.6-23.4-17.5
	c-8.4-8.2-15.4-17.4-22.2-26.9c-3.9-5.4-7.7-10.9-11.8-16.2c-5.7-7.4-12.4-14-20-19.5c-1-0.7-1.9-1.4-3-2.1
	c-0.4-0.3-0.8-0.6-1.3-0.8c-0.8-0.4-1.4-1-1.7-1.8c0.6,0.1,1.2,0.3,1.7,0.5c8.7,3.3,17.9,5.5,27.1,6.6c13.7,1.6,27.1,5,39.9,10.2
	c15.1,6.2,27.8,15.5,36.9,29.2c4.2,6.3,7.5,13,9,20.5c1,5.4,1.7,10.9,2.5,16.4c0.8,5.6,1.5,11.2,2.5,16.8c0.7,4.6,2,9.1,3.9,13.4
	c3.4,7,6.9,14,10.3,20.9c0.7,1.5,1.8,2.7,3.2,3.5c14.7,9,28.2,19.7,40.3,31.9c0.6,0.5,1.2,1,1.8,1.5c0.1-0.4,0.1-0.8-0.1-1.2
	c-1.7-4.2-3.5-8.3-5.1-12.5c-4.1-10.6-9.2-20.8-15.2-30.4c-4.7-7.5-9.4-15-14.3-22.5c-6.8-10.4-10.5-22.5-10.7-35
	c-0.1-5.3,0-10.6-0.1-16c-0.1-7.4-0.1-14.9-0.3-22.3c0-0.6,0-1.3,0-1.9c0-0.1,0-0.2,0-0.2c-0.1-3.1-0.4-6.2-0.8-9.3
	c-0.1-0.5-0.1-0.9-0.2-1.3c-0.9-5.3-2.1-10.5-3.7-15.7c-0.1-0.5-0.2-1-0.4-1.4c-0.1-0.6-0.3-1.2-0.5-1.8c-0.2-0.6-0.3-1.3-0.5-2
	c0.1,0,0.3,0,0.4,0c0.2,0.3,0.5,0.5,0.7,0.8c1.7,2.6,3.5,5.1,5.5,7.5c0.9,1.2,1.8,2.4,2.8,3.5c2,2.3,4,4.6,6,6.9
	c2.9,3.1,5.7,6.4,8.3,9.8c0.3,0.4,0.6,0.7,0.8,1.1c0.8,1.1,1.6,2.2,2.4,3.3c0.4,0.5,0.7,1,1.1,1.6c0.4,0.5,0.7,1.1,1.1,1.6
	c5.6,9.1,10.6,18.7,14.7,28.6c4.7,10.8,6.9,22,5.6,33.9c-0.1,0.8-0.1,1.7-0.2,2.6c-0.7,7.5-0.3,15,1.4,22.3c1.6,7,2.1,14.3,1.6,21.4
	c-0.4,5.7-0.5,11.4-0.6,17c0.1,3.9,1,7.7,2.8,11.1c2.7,5.6,6.8,10.1,11.3,14.3c4.5,4.1,9.3,8,14.1,11.7c8.4,6.5,17.3,12.6,24.9,20.2
	c3.7,3.6,7.3,7.3,10.6,11.2c5.2,6.3,8.7,13.6,11.9,21c1.7,4.1,3.1,8.4,4.6,12.6C490,580.1,489.4,580.5,488.9,581z M402.5,499.1
	c-2.3-1.1-4.6-2.1-6.9-3.3c-6.1-3-12.4-5.4-19.2-6.2c-10-1.1-19.2,1.3-27.8,6.4c-4.6,2.8-8.9,6-12.9,9.7c-3.5,3.3-7,6.5-10.5,9.8
	c-5.8,5.7-12.6,10.1-20.2,13.1c-1.2,0.5-2.5,0.9-3.7,1.3c-0.3,0.1-0.6,0.3-1.3,0.6c0.4,0.1,0.8,0.2,1.2,0.2
	c8.6,0.2,17.1,0.3,25.7-0.1c2.6-0.1,5.2-0.3,7.7-0.6c12.2-1.3,24-5,34.8-10.8c6.2-3.2,12.3-6.5,18.6-9.7c6.5-3.3,13.2-5.9,20.6-6.3
	l1.2-0.1c0.3-0.1,0.6-0.2,0.8-0.3c-0.6-0.3-0.9-0.5-1.2-0.6C407.2,501.2,404.9,500.2,402.5,499.1
	C402.6,499.1,402.6,499.1,402.5,499.1z M327.9,461.7c-7.4,0.4-14.9,0.4-22.3-0.2c-7.6-0.6-15.3,0.1-22.7,2.1c-6.3,2-12.3,5-17.5,9.1
	c-11.9,8.5-21.8,19.7-28.8,32.5c-2.1,4-4,8.1-5.6,12.3c-3,7.7-6.7,15.2-11.1,22.2c-0.4,0.6-0.7,1.2-1.1,1.8l0.1,0.1
	c0.1,0.1,0.1,0.1,0.1,0.2c0.7-0.6,1.3-1.1,1.9-1.7c3.6-3.7,7.4-7.3,11.4-10.5c4.9-4,10.2-7.5,15.8-10.5c5.9-2.9,12-5.4,18.2-7.2
	c8.6-2.6,16.8-6.1,24.7-10.4c6-3.3,11.3-7.7,16.4-12.2c6-5.3,11.8-10.8,17.8-16.1c5.6-5.2,12-9.5,18.9-12.8c0,0,0.1-0.1,0.1-0.1
	c1-0.5,1.9-0.9,2.9-1.3c0.4-0.1,0.6-0.4,0.8-0.8c-0.9,0.2-1.7,0.3-2.6,0.5c-5.3,1.3-10.7,2.3-16.1,2.8
	C328.8,461.6,328.4,461.6,327.9,461.7z M204.9,467c-5.1,2.6-10,5.4-14.7,8.5c-6.7,4.4-12.2,10.2-16.3,17.1
	c-4.7,8.2-5.8,17.1-4.6,26.4c0.8,6.4,2.7,12.6,4.4,18.9c1.8,6.4,3.5,12.9,5.2,19.4c1.4,5.8,1.5,11.9,0.6,17.8c0,0.3-0.1,0.7-0.1,1.1
	c0,0.1,0.1,0.3,0.2,0.4c0,0,0,0,0.1,0.1c0.7-1,1.4-1.8,2-2.8c0.4-0.6,0.7-1.2,1.1-1.8c3.5-6,5.7-12.4,7.6-19.1
	c2.2-7.5,3.3-15.3,4.6-23.1c1.1-6.6,2.4-13.2,4-19.7c1.9-8.2,5.7-15.8,11.1-22.2c5-6.2,9.2-12.9,12.6-20c2.9-5.9,5.6-11.8,8.9-17.4
	c0.9-1.6,1.8-3.1,2.9-4.6c-0.1-0.1-0.2-0.2-0.4-0.3c-0.7,0.5-1.6,1-2.2,1.6c-2.4,2-4.8,4.1-7,6.2c-0.9,0.9-1.8,1.7-2.8,2.5
	C216.7,460.1,211,463.9,204.9,467L204.9,467z M141.6,453.7c-3-0.1-5.9-0.4-8.9-0.9c-0.1,0-0.2,0-0.3,0l-0.1,0c0,0-0.1,0-0.1,0
	c-1.9-0.3-3.8-0.7-5.7-1.1l0,0c-3.5-0.8-6.9-1.8-10.2-3.1c-3.5-1.4-7.2-2.4-10.7-3.7c-15.1-5.6-29.9-4.4-44.4,2
	c-8.4,3.8-16.2,8.7-23.1,14.7c-4.5,3.8-8.9,7.8-13.2,11.8c-2.7,2.5-5.5,4.8-8.4,7l0,0c-0.9,0.7-1.8,1.3-2.7,1.9
	c-1.4,0.9-2.7,1.8-4.2,2.6c-0.1,0.1-0.2,0.1-0.3,0.2c-0.2,0.2-0.4,0.5-0.6,0.8c0.6-0.1,1.1-0.2,1.7-0.3c0.3-0.1,0.7-0.2,1.1-0.2
	c0,0,0.1,0,0.1,0c1.5-0.2,3-0.3,4.5-0.2c2.2,0,4.5,0.3,6.7,0.6l1.7,0.2c0,0,0.1,0,0.2,0c1.7,0.3,3.4,0.6,5.1,0.9
	c11.2,2,22.5,3.5,33.9,2.6c11.4-0.9,22.7-2.7,33.5-7c5.2-2.1,10.2-4.6,15-7.5c0.1-0.1,0.1-0.1,0.2-0.2c2.5-1.5,4.9-3.1,7.3-4.7
	c0.1-0.1,0.1-0.1,0.2-0.2l0,0c0.3-0.2,0.7-0.5,1-0.7c4.9-3.4,9.9-6.7,14.9-9.9c0.2-0.1,0.4-0.2,0.5-0.3c1.4-0.9,3-1.7,4.5-2.4
	c1.1-0.5,2.2-0.9,3.3-1.2c0.7-0.3,1.3-0.5,2-0.7c0.5-0.1,0.9-0.4,1.3-0.8c-0.6-0.1-1.2-0.1-1.8-0.1c-1.2,0-2.4,0-3.5-0.1
	C141.7,453.7,141.7,453.7,141.6,453.7L141.6,453.7z M141.9,480.9c-7.2,5.8-14.4,11.7-19.7,19.3c-4.9,6.8-8.1,14.5-9.4,22.8
	c-1.3,8-2.1,16.1-3,24.2c-0.7,7.2-1.2,14.4-2.8,21.4c0,0.1,0,0.2,0,0.3c0,0.2,0,0.4,0,0.7c0.4-0.2,0.7-0.5,1-0.9
	c0.2-0.3,0.4-0.7,0.6-1c3.4-4.9,7.4-9.3,11.7-13.3c10.7-10.3,19.3-22,24.9-35.7c2.8-6.7,4.8-13.8,7-20.7c1.9-5.9,3.5-12,5.4-18
	c1.6-5.5,4.1-10.8,7.2-15.7c0.2-0.4,0.4-0.7,0.7-1.1c0.3-0.5,0.5-1,0.8-1.5c-0.1-0.1-0.2-0.2-0.3-0.2c-0.6,0.5-1.1,1.1-1.8,1.5
	c-0.5,0.4-1,0.8-1.5,1.2C155.7,470,148.8,475.4,141.9,480.9L141.9,480.9z M185.2,425.9c-5.7-5.2-11.3-10.5-17.1-15.5
	c-7.4-6.5-16.3-10.3-25.6-13.1c-14.3-4.4-28.5-3.4-42.5,1.5c-4.9,1.7-9.8,3.7-14.5,6c-9.4,4.4-19.2,7.7-29.3,10
	c-0.7,0.1-1.5,0.3-2.2,0.5c-0.3,0-0.6,0.1-0.9,0.2c0,0.1,0,0.3,0,0.4c1.1,0,2.3-0.1,3.4,0c1.6,0,3.2,0,4.8,0
	c8.6-0.1,17.2,0.7,25.7,2.3c12.5,2.4,24.6,6.6,36,12.5c2.2,1.1,4.4,2.2,6.6,3.3c10.4,5.3,21.9,8.3,33.6,8.7c3.7,0.2,7.4,0.1,11-0.3
	c1.1-0.1,2.2-0.2,3.3-0.3c5.9-0.7,11.8-1.7,17.7-2.5c0.8-0.1,1.5-0.2,2.2-0.3c1.5-0.2,3-0.3,4.9-0.5c0.2-0.1,0.4-0.1,0.5-0.1
	c0.2,0,0.4-0.1,0.5-0.1c-0.2-0.1-0.3-0.2-0.5-0.3c-0.2-0.2-0.4-0.3-0.6-0.4c0,0-0.1,0-0.1,0c-0.2-0.1-0.5-0.3-0.7-0.4
	c-1.6-0.7-3.2-1.6-4.7-2.5C192.6,432.3,188.7,429.2,185.2,425.9L185.2,425.9z M266.3,405.7c-4.5-7.1-8.1-14.6-11.9-22
	c-5.5-10.6-14-19.3-24.5-25c-8-4.3-17-6.5-26.1-6.3c-7.1,0-14.1,0.8-21,2.4c-5,1.2-10.1,2.4-15.1,3.8c-4.9,1.5-10,2.2-15.1,2.1
	c-1.8,0-3.6-0.2-5.4-0.5c-0.3-0.1-0.6-0.2-0.8-0.3c0,0.2-0.1,0.3-0.1,0.5c0.2,0.2,0.5,0.4,0.7,0.6c0.2,0.1,0.4,0.3,0.5,0.4
	c4.4,3.4,8.9,6.8,13.2,10.3c6.1,4.9,12.5,9.3,19.7,12.4c3.5,1.4,7.2,2.5,10.9,3.3c3.3,0.8,6.7,1.2,10.1,1.8c2.6,0.5,5.1,1,7.7,1.6
	c5.7,1.2,11,3.9,15.4,7.9c8.9,8.1,19.2,14.5,30.3,18.9c1.7,0.7,3.3,1.3,5.1,1.9c2.8,1,5.6,1.8,8.4,2.6c2.3,0.6,4.6,1.2,6.8,1.8
	c4.2,1.1,8.4,2.3,12.6,3.4c0.4,0.1,0.9,0.2,1.4,0.3c0-0.1,0-0.2,0.1-0.2c-1.6-0.9-3.1-1.8-4.6-2.8c-0.1-0.1-0.2-0.2-0.3-0.2
	C277.1,419.4,270.9,413.1,266.3,405.7L266.3,405.7z M347.1,400.3c-0.7-5.2-1.4-10.4-2.4-15.5c-1.5-7.6-4.9-14.4-9.3-20.8
	c-8.2-11.9-19.3-20.4-32.4-26.3c-12.5-5.5-25.7-9.2-39.2-11c-7.7-1.1-15.4-2.3-22.8-4.8c-0.1,0-0.2-0.1-0.3,0
	c-0.2,0-0.5,0.1-0.6,0.2l4.2,3.3c0.6,0.5,1.2,1,1.8,1.5c5,4.1,9.5,8.9,13.4,14.1c5.9,7.8,11.6,15.8,17.5,23.7
	c5.6,7.7,12,14.8,19,21.3c6.5,6,14,10.7,21.4,15.3c6.2,3.9,12.3,8,18.4,12.2c1.6,1.1,3.1,2.3,4.5,3.6l0.1,0.1
	c4.8,4.4,9.1,9.4,12.6,14.9c0.5,0.6,0.9,1.3,1.4,1.9c-1.2-2.8-2.2-5.6-3-8.6C349.1,417.1,348.2,408.7,347.1,400.3L347.1,400.3z
	 M409.4,460.2c0.5-7,0-14.1-1.6-21c-1.8-7.4-2.3-15.1-1.4-22.7c1.8-14.1-1.1-27.3-7.1-40c-4-8.5-8.1-17-13.2-24.9
	c-0.3-0.6-0.7-1.2-1.1-1.7l-0.4-0.6c-1.1-1.6-2.3-3.2-3.5-4.7c-0.2-0.4-0.5-0.8-0.9-1.1c-1.6-2.1-3.3-4.2-5-6.3
	c-2.2-2.6-4.6-5.1-6.8-7.7c-1.8-2.2-3.6-4.5-5.4-6.8c-0.1-0.2-0.3-0.4-0.4-0.6c-0.3-0.3-0.5-0.6-0.7-0.9c0.1,0.2,0.1,0.4,0.1,0.6
	c0,0.2,0.1,0.5,0.2,0.7c1,2.8,1.8,5.6,2.4,8.5c0,0.1,0.1,0.1,0.1,0.2c0.5,2,0.9,4.1,1.2,6.1c0.1,0.4,0.1,0.8,0.1,1.3
	c0.4,3,0.7,6,0.9,9c0,0.6,0,1.3,0.1,1.9c0,0.6,0,1.2,0,1.7c0.2,7.7,0,15.4,0.2,23.1c0.1,6.8,0.2,13.5,0.8,20.2
	c0.7,9.2,4.1,17.5,9,25.3c4,6.4,8.1,12.8,12.2,19.2c0.7,1.1,1.4,2.2,2.1,3.3c4.4,6.9,8.3,14.2,11.7,21.6c1,2.1,2,4.4,2.9,6.7
	c0.4,1.1,0.9,2.1,1.3,3.2c0.3,0.8,0.7,1.6,1,2.4c0.1,0.1,0.2,0.3,0.4,0.4c0.1-0.3,0.1-0.6,0.2-0.8c0-0.8,0.1-1.7,0.1-2.5
	C409,468.8,409.1,464.4,409.4,460.2L409.4,460.2z M365.2,347.1c0-0.1,0-0.2,0-0.2c-0.1-3.1-0.4-6.2-0.8-9.3
	c-0.1-0.5-0.1-0.9-0.2-1.3c-0.9-5.3-2.1-10.5-3.7-15.7c0.2,0.1,0.3,0.2,0.4,0.3c-0.2-0.5-0.4-1.1-0.6-1.6c-0.1-0.1-0.1-0.3-0.1-0.4
	c0.4,0.1,0.7,0.4,1,0.8l0.3,0.5c0.4,0.6,0.8,1.3,1.2,1.9c-0.3-0.3-0.5-0.6-0.7-0.9c0.1,0.2,0.1,0.4,0.1,0.6c0,0.2,0.1,0.5,0.2,0.7
	c1,2.8,1.8,5.6,2.4,8.5c0,0.1,0.1,0.1,0.1,0.2c0.5,2,0.9,4.1,1.2,6.1c0.1,0.4,0.1,0.8,0.1,1.3c0.4,3,0.7,6,0.9,9
	C366.3,347.5,365.7,347.3,365.2,347.1L365.2,347.1z M364.1,336.2c-0.9-5.3-2.1-10.5-3.7-15.7c0.2,0.1,0.3,0.2,0.4,0.3
	c0.3,0.2,0.7,0.5,1,0.8l0.1,0.1c0,0.2,0.1,0.5,0.2,0.7c1,2.8,1.8,5.6,2.4,8.5c0,0.1,0.1,0.1,0.1,0.2c0.5,2,0.9,4.1,1.2,6.1
	C365.2,337,364.7,336.6,364.1,336.2L364.1,336.2z M360.8,320.9c0.3,0.2,0.7,0.5,1,0.8l0.1,0.1c0,0.2,0.1,0.5,0.2,0.7
	c1,2.8,1.8,5.6,2.4,8.5C363.3,327.7,362.1,324.3,360.8,320.9L360.8,320.9z"/>
</svg>
