<?xml version="1.0" encoding="utf-8"?>
<!-- Generator: Adobe Illustrator 26.3.1, SVG Export Plug-In . SVG Version: 6.00 Build 0)  -->
<svg version="1.1" id="Layer_1" xmlns="http://www.w3.org/2000/svg" xmlns:xlink="http://www.w3.org/1999/xlink" x="0px" y="0px"
	 viewBox="0 0 277.4 34" style="enable-background:new 0 0 277.4 34;" xml:space="preserve">
<style type="text/css">
	.st0{fill:#FFFFFF;}
</style>
<path class="st0" d="M262.9,7.6V7.3c0-0.4,0.2-0.7,0.5-1c0.3-0.3,0.7-0.5,1.1-0.5h0.2c0.5,0.1,1,0.5,1.3,0.9
	c0.3,0.5,0.5,1.1,0.5,1.8v0.4c-0.4,1.5-1.3,2.9-2.6,3.8c-3.7,3-8.8,4.1-13.8,4.3c-1.5,0.1-3,0.1-4.6,0.1c-12.1,0-24.1-2.9-36.2-5.8
	c-12.1-2.9-24.2-5.9-36.5-5.9c-3.3,0-6.6,0.2-9.9,0.7c-4.1,0.5-8,1.9-11.6,4.1c-3.5,2.1-5.8,5.7-6.2,9.8c0,0.2,0,0.4,0,0.7
	c0,1.3,0.2,2.6,0.8,3.8c0.6,1.2,1.7,2.1,3.1,2.5c0.4,0.1,0.8,0.1,1.2,0.1c1.2,0,2.4-0.4,3.3-1.1c0.9-0.7,1.8-1.5,2.5-2.4l0,0
	c2.2-2.9,3.4-6.5,3.4-10.1c0.1-3.2-1-6.2-3.1-8.6c-2.9-2.9-6.7-4.5-10.8-4.6H144c-6.4,0.1-12.5,2.7-17.1,7.1
	c-4.7,4.3-7.6,10.3-8,16.8v0.4c0,2,0.5,4,1.5,5.8c0.5,0.9,1.1,1.6,1.9,2.2c0.8,0.6,1.8,0.9,2.8,0.9h0.5c1.7-0.2,3.2-1.2,4.1-2.6
	c0.9-1.4,1.5-2.9,1.9-4.4c0.8-2.8,1.2-5.6,1.2-8.5c0-1.9-0.2-3.9-0.8-5.7c-0.7-2.4-2-4.6-3.7-6.4s-4-3.1-6.4-3.6
	c-0.7-0.1-1.4-0.2-2.1-0.2c-3.1,0.1-6.2,1.2-8.6,3.2c-2.5,1.9-4.7,4.3-6.5,6.9c-1.5,1.9-2.5,4.2-2.8,6.7v0.2c0,1.3,0.4,2.6,1.2,3.7
	c0.8,1.2,2,1.9,3.4,2.1h0.3c1.1,0,2.1-0.4,2.9-1c0.8-0.6,1.5-1.4,2.1-2.3c0.7-1.3,1.1-2.8,1.1-4.4c-0.1-2.4-0.9-4.8-2.3-6.8
	c-1.4-2-3.3-3.6-5.5-4.7c-2.9-1.3-6.1-1.9-9.3-1.8c-2.9,0-5.7,0.3-8.5,0.8C66.5,7.8,45.8,12.5,25,12.5c-1.5,0-3.1,0-4.6,0
	c-1.5,0-3-0.2-4.4-0.5c-1.3-0.3-2.5-0.9-3.4-1.9c-0.8-0.9-1.2-2-1.2-3.1c0-1.3,0.4-2.6,1.3-3.6c0.7-1,1.8-1.5,3-1.5h0.5l0.1-1
	l-0.2,1c0.8,0.1,1.5,0.5,2.1,1c0.3,0.3,0.5,0.7,0.5,1.1c0,0.3-0.1,0.5-0.2,0.8c-0.3,0.5-0.2,1.1,0.3,1.4s1.1,0.2,1.4-0.3
	c0.3-0.6,0.5-1.2,0.5-1.8c0-1-0.4-1.9-1.1-2.6c-0.9-0.8-2-1.4-3.2-1.6l0,0h-0.7c-1.8,0-3.5,0.9-4.6,2.3C10,3.6,9.4,5.3,9.4,7.1
	c0,1.7,0.6,3.3,1.7,4.5c1.2,1.2,2.7,2.1,4.4,2.5c1.6,0.4,3.2,0.6,4.8,0.6c1.6,0,3.1,0,4.7,0c21.1,0,41.9-4.7,62.6-7.7
	c2.7-0.4,5.5-0.7,8.2-0.7c2.9-0.1,5.8,0.5,8.5,1.6c1.9,0.9,3.5,2.3,4.7,4.1c1.2,1.6,1.8,3.5,1.9,5.5c0,1.1-0.3,2.2-0.8,3.1
	c-0.4,0.6-0.8,1.2-1.4,1.6c-0.5,0.4-1.2,0.6-1.8,0.6h-0.2c-0.8-0.1-1.5-0.5-1.9-1.2c-0.5-0.7-0.8-1.6-0.8-2.4v-0.1
	c0.3-2,1.1-4,2.4-5.6c1.7-2.4,3.7-4.6,6-6.4c2.1-1.7,4.7-2.7,7.4-2.8c0.6,0,1.1,0,1.7,0.1c2,0.4,3.9,1.5,5.3,3
	c1.5,1.6,2.6,3.5,3.2,5.6c0.5,1.7,0.7,3.4,0.7,5.1c0,2.7-0.4,5.4-1.2,8c-0.3,1.3-0.9,2.6-1.6,3.8c-0.6,1-1.5,1.6-2.6,1.8H125
	c-0.6,0-1.2-0.2-1.6-0.5c-0.9-0.7-1.5-1.6-1.8-2.6c-0.4-1.2-0.7-2.4-0.7-3.7v-0.4c0.4-5.9,3-11.4,7.4-15.3c4.2-4.1,9.8-6.5,15.7-6.6
	h1.3c3.5,0.1,6.9,1.5,9.4,3.9c1.8,2,2.7,4.6,2.6,7.2c0,3.3-1,6.4-3,9.1c-0.6,0.8-1.3,1.5-2.1,2.1c-0.6,0.5-1.4,0.8-2.2,0.8
	c-0.2,0-0.4,0-0.7,0c-0.8-0.2-1.4-0.8-1.8-1.5c-0.5-0.9-0.7-1.8-0.7-2.8v-0.5c0.4-3.4,2.4-6.5,5.4-8.2c3.3-2,6.9-3.3,10.7-3.8
	c3.2-0.4,6.4-0.7,9.5-0.7c12,0,24,2.9,36.1,5.8c12.1,2.9,24.4,5.6,36.8,5.6c1.6,0,3.1,0,4.7-0.1c5.4,0,10.6-1.7,15-4.9
	c1.7-1.2,2.9-3,3.3-5c0-0.2,0-0.5,0-0.7c0-1-0.3-2-0.9-2.9s-1.5-1.6-2.5-1.8c-0.2,0-0.5,0-0.7,0c-1,0-1.9,0.4-2.5,1
	c-0.6,0.3-1,1.2-1,2.2c0,0.4,0.1,0.9,0.3,1.3c0.2,0.5,0.9,0.7,1.4,0.5s0.7-0.9,0.5-1.4L262.9,7.6z"/>
</svg>
